<?xml version="1.0" encoding="UTF-8"?>
<svg width="142px" height="216px" viewBox="0 0 142 216" version="1.1" xmlns="http://www.w3.org/2000/svg" xmlns:xlink="http://www.w3.org/1999/xlink">
    <!-- Generator: Sketch 51.2 (57519) - http://www.bohemiancoding.com/sketch -->
    <title>bronze</title>
    <desc>Created with Sketch.</desc>
    <defs>
        <linearGradient x1="50%" y1="0%" x2="50%" y2="85.4060443%" id="linearGradient-1">
            <stop stop-color="#F6B391" offset="0%"></stop>
            <stop stop-color="#CB623B" offset="100%"></stop>
        </linearGradient>
        <path d="M13.6670897,5.32040397 C13.6670897,4.21409108 14.5586295,3.31724728 15.6643813,3.31724728 L51.669798,3.31724728 C52.7728717,3.31724728 53.6670897,4.20268605 53.6670897,5.32040397 L53.6670897,111.314091 C53.6670897,112.420403 52.9684072,112.755523 52.1102585,112.065591 L34.0359547,97.5342647 L15.2484512,112.091916 C14.3750893,112.768648 13.6670897,112.431809 13.6670897,111.314091 L13.6670897,5.32040397 Z" id="path-2"></path>
        <path d="M13.6670897,5.32040397 C13.6670897,4.21409108 14.5586295,3.31724728 15.6643813,3.31724728 L51.669798,3.31724728 C52.7728717,3.31724728 53.6670897,4.20268605 53.6670897,5.32040397 L53.6670897,111.314091 C53.6670897,112.420403 52.9684072,112.755523 52.1102585,112.065591 L34.0359547,97.5342647 L15.2484512,112.091916 C14.3750893,112.768648 13.6670897,112.431809 13.6670897,111.314091 L13.6670897,5.32040397 Z" id="path-4"></path>
    </defs>
    <g id="Medals" stroke="none" stroke-width="1" fill="none" fill-rule="evenodd">
        <g id="Artboard" transform="translate(-557.000000, -57.000000)">
            <g id="bronze" transform="translate(559.000000, 59.000000)">
                <g id="Group" transform="translate(10.000000, 98.000000)">
                    <mask id="mask-3" fill="white">
                        <use xlink:href="#path-2"></use>
                    </mask>
                    <use id="Rectangle" fill="url(#linearGradient-1)" transform="translate(33.667090, 57.878618) rotate(-345.000000) translate(-33.667090, -57.878618) " xlink:href="#path-2"></use>
                    <path d="M34.5,8.5 L8.5,105.5" id="Line" stroke="#8F543D" stroke-width="2" stroke-linecap="square" mask="url(#mask-3)"></path>
                    <path d="M60.5,13.5 L34.5,110.5" id="Line-Copy" stroke="#8F543D" stroke-width="2" stroke-linecap="square" mask="url(#mask-3)"></path>
                </g>
                <g id="Group-Copy" transform="translate(95.000000, 156.000000) scale(-1, 1) translate(-95.000000, -156.000000) translate(61.000000, 98.000000)">
                    <mask id="mask-5" fill="white">
                        <use xlink:href="#path-4"></use>
                    </mask>
                    <use id="Rectangle" fill="url(#linearGradient-1)" transform="translate(33.667090, 57.878618) rotate(-345.000000) translate(-33.667090, -57.878618) " xlink:href="#path-4"></use>
                    <path d="M34.5,8.5 L8.5,105.5" id="Line" stroke="#8F543D" stroke-width="2" stroke-linecap="square" mask="url(#mask-5)"></path>
                    <path d="M60.5,13.5 L34.5,110.5" id="Line-Copy" stroke="#8F543D" stroke-width="2" stroke-linecap="square" mask="url(#mask-5)"></path>
                </g>
                <path d="M69,139 C30.3400675,139 -1,107.659932 -1,69 C-1,30.3400675 30.3400675,-1 69,-1 C107.659932,-1 139,30.3400675 139,69 C139,107.659932 107.659932,139 69,139 Z" id="Oval" stroke="#8B3512" stroke-width="2" fill=""></path>
                <circle id="Oval-Copy" stroke="#8B3512" stroke-width="2" fill="" cx="71" cy="69" r="32"></circle>
                <g id="Layer_1" transform="translate(8.000000, 8.000000)" fill="#643725">
                    <path d="M70.6708604,122.863152 C70.6708604,122.863152 63.9496753,114.649848 48.2678571,111.984983 C33.0028409,108.410652 14.5284091,93.4523046 9.79099026,72.4551457 C4.30194805,51.6567417 13.5409903,29.9105861 25.3506494,19.7463874 C37.0815747,9.07063907 48.0726461,7.41136093 47.8510552,7.2675894 C48.1164773,7.58649338 37.2163149,9.48851325 25.7861201,20.2090629 C14.2573052,30.433947 5.48295455,51.8958179 11.0454545,72.1390927 C15.8818994,92.5811225 33.9675325,106.901255 48.7386364,110.227957 C52.2771916,110.773719 55.4293831,111.624536 58.1948052,112.613017 C68.6181006,116.323788 72.6266234,121.111013 72.6266234,121.111013 L70.6708604,122.863152 L70.6708604,122.863152 Z" id="Shape"></path>
                    <path d="M54.2406656,122.863152 C54.2406656,122.863152 60.9606331,114.649848 76.6436688,111.984983 C91.9090909,108.410652 110.382305,93.4523046 115.118912,72.4551457 C120.60836,51.6567417 111.37013,29.9105861 99.5608766,19.7463874 C87.830763,9.07063907 76.8372565,7.41136093 77.0608766,7.2675894 C76.7958604,7.58649338 87.6964286,9.48851325 99.1254058,20.2090629 C110.654221,30.4335397 119.429383,51.8954106 113.864448,72.1386854 C109.03125,92.5807152 90.9439935,106.900848 76.1737013,110.22755 C72.6355519,110.773311 69.4805195,111.624129 66.7171266,112.612609 C56.2930195,116.323381 52.2832792,121.110606 52.2832792,121.110606 L54.2406656,122.863152 L54.2406656,122.863152 Z" id="Shape"></path>
                    <path d="M43.7443182,98.9893411 C43.7443182,98.9893411 48.0198864,100.464934 49.4366883,103.887755 C51.2090097,108.164652 50.4423701,111.745907 50.4423701,111.745907 C50.4423701,111.745907 46.1594968,109.510321 44.7252435,107.190427 C42.7118506,103.936222 43.7443182,98.9893411 43.7443182,98.9893411" id="Shape"></path>
                    <path d="M36.2414773,117.776166 C36.2414773,117.776166 40.5653409,119.108394 43.7199675,117.176235 C47.6578734,114.765517 49.1375812,111.41845 49.1375812,111.41845 C49.1375812,111.41845 44.3628247,110.696334 41.8453734,111.723507 C38.3051948,113.166924 36.2414773,117.776166 36.2414773,117.776166" id="Shape"></path>
                    <path d="M37.0909091,95.3017848 C37.0909091,95.3017848 40.9675325,97.4563212 41.7544643,101.001735 C42.7390422,105.432179 41.3916396,108.755623 41.3916396,108.755623 C41.3916396,108.755623 37.6375812,105.868381 36.6465097,103.385573 C35.2540584,99.8988079 37.0909091,95.3017848 37.0909091,95.3017848" id="Shape"></path>
                    <path d="M26.6635552,112.153192 C26.6635552,112.153192 30.6107955,114.176175 33.9825487,112.850464 C38.1907468,111.19648 40.1879058,108.218414 40.1879058,108.218414 C40.1879058,108.218414 35.7021104,106.705758 33.0957792,107.266589 C29.4379058,108.057129 26.6635552,112.153192 26.6635552,112.153192" id="Shape"></path>
                    <path d="M31.1128247,90.5214834 C31.1128247,90.5214834 34.4878247,93.2621026 34.6469156,96.818106 C34.8469968,101.259954 32.9829545,104.239649 32.9829545,104.239649 C32.9829545,104.239649 29.8486201,100.81194 29.3137175,98.2448245 C28.5588474,94.6432053 31.1128247,90.5214834 31.1128247,90.5214834" id="Shape"></path>
                    <path d="M18.1931818,105.001272 C18.1931818,105.001272 21.6574675,107.629073 25.1371753,106.926507 C29.4793019,106.047586 31.9111201,103.515497 31.9111201,103.515497 C31.9111201,103.515497 27.8364448,101.288871 25.2280844,101.386619 C21.5645292,101.52306 18.1931818,105.001272 18.1931818,105.001272" id="Shape"></path>
                    <path d="M26.0418019,84.7184901 C26.0418019,84.7184901 28.836039,87.939298 28.3847403,91.3991821 C27.8267045,95.7212881 25.5239448,98.2765927 25.5239448,98.2765927 C25.5239448,98.2765927 23.0803571,94.4326391 22.9967532,91.8655232 C22.882711,88.261053 26.0418019,84.7184901 26.0418019,84.7184901" id="Shape"></path>
                    <path d="M11.1201299,96.487798 C11.1201299,96.487798 14.0170455,99.615745 17.4939123,99.5298079 C21.836039,99.4239139 24.6107955,97.3940066 24.6107955,97.3940066 C24.6107955,97.3940066 21.0564123,94.5511589 18.523539,94.1984503 C14.9630682,93.7052285 11.1201299,96.487798 11.1201299,96.487798" id="Shape"></path>
                    <path d="M22.0170455,78.1375828 C22.0170455,78.1375828 24.1680195,81.7237252 23.1469156,84.9860762 C21.8729708,89.0609603 19.2171266,91.1364834 19.2171266,91.1364834 C19.2171266,91.1364834 17.5097403,87.0115033 17.8681006,84.5164768 C18.3656656,81.0174934 22.0170455,78.1375828 22.0170455,78.1375828" id="Shape"></path>
                    <path d="M5.61891234,86.9483742 C5.61891234,86.9483742 7.88555195,90.4603907 11.2544643,90.9723477 C15.463474,91.6125993 18.4862013,90.1288609 18.4862013,90.1288609 C18.4862013,90.1288609 15.5377435,86.7769073 13.1517857,86.0055099 C9.79829545,84.9188742 5.61891234,86.9483742 5.61891234,86.9483742" id="Shape"></path>
                    <path d="M19.2406656,70.9885132 C19.2406656,70.9885132 20.7081981,74.8157682 19.1688312,77.7901689 C17.2491883,81.5062351 14.3352273,83.0543245 14.3352273,83.0543245 C14.3352273,83.0543245 13.3863636,78.7806854 14.1530032,76.435947 C15.2276786,73.1446788 19.2406656,70.9885132 19.2406656,70.9885132" id="Shape"></path>
                    <path d="M1.92086039,76.6905 C1.92086039,76.6905 3.51298701,80.4684735 6.67694805,81.5380033 C10.6314935,82.8722682 13.799513,81.9575066 13.799513,81.9575066 C13.799513,81.9575066 11.5247565,78.219447 9.35430195,77.0639801 C6.29910714,75.4454305 1.92086039,76.6905 1.92086039,76.6905" id="Shape"></path>
                    <path d="M17.7126623,63.4924371 C17.7126623,63.4924371 18.4788961,67.4382119 16.4894481,70.0440199 C14.0064935,73.3047417 10.929789,74.3001457 10.929789,74.3001457 C10.929789,74.3001457 10.7406656,70.0138808 11.8790584,67.8809305 C13.4732143,64.8865728 17.7126623,63.4924371 17.7126623,63.4924371" id="Shape"></path>
                    <path d="M0.0275974026,66.0383742 C0.0275974026,66.0383742 0.924918831,69.9556391 3.79667208,71.5293874 C7.38433442,73.4929073 10.601461,73.1511954 10.601461,73.1511954 C10.601461,73.1511954 9.03733766,69.1545099 7.13676948,67.6703642 C4.46550325,65.5846589 0.0275974026,66.0383742 0.0275974026,66.0383742" id="Shape"></path>
                    <path d="M17.4983766,55.7984205 C17.4983766,55.7984205 17.5689935,59.7372715 15.2053571,61.9138013 C12.2573052,64.6344636 9.12012987,65.0706656 9.12012987,65.0706656 C9.12012987,65.0706656 9.66517857,60.9025132 11.125,59.0379636 C13.1712662,56.4199371 17.4983766,55.7984205 17.4983766,55.7984205" id="Shape"></path>
                    <path d="M0,55.2343311 C0,55.2343311 0.200487013,59.168702 2.70657468,61.1778377 C5.83522727,63.6846755 8.99594156,63.9037947 8.99594156,63.9037947 C8.99594156,63.9037947 8.16680195,59.7804437 6.58482143,58.0234172 C4.35836039,55.5556788 0,55.2343311 0,55.2343311" id="Shape"></path>
                    <path d="M18.5949675,47.9390464 C18.5949675,47.9390464 17.9935065,51.7528609 15.3445617,53.4487947 C12.0369318,55.5727848 8.93709416,55.4571159 8.93709416,55.4571159 C8.93709416,55.4571159 10.1663961,51.5276325 11.8936688,49.9766921 C14.3116883,47.8005695 18.5949675,47.9390464 18.5949675,47.9390464" id="Shape"></path>
                    <path d="M1.80357143,44.4062583 C1.80357143,44.4062583 1.32751623,48.2384007 3.40625,50.6043179 C6.00081169,53.5603907 9.01501623,54.3114238 9.01501623,54.3114238 C9.01501623,54.3114238 8.91233766,50.189702 7.68303571,48.2229238 C5.95616883,45.4611258 1.80357143,44.4062583 1.80357143,44.4062583" id="Shape"></path>
                    <path d="M21.0523539,40.2747616 C21.0523539,40.2747616 19.8287338,43.8531656 16.9833604,45.0375497 C13.429789,46.5225099 10.4565747,45.8806291 10.4565747,45.8806291 C10.4565747,45.8806291 12.3137175,42.2981523 14.2394481,41.0966623 C16.9415584,39.4105033 21.0523539,40.2747616 21.0523539,40.2747616" id="Shape"></path>
                    <path d="M5.44439935,33.9985033 C5.44439935,33.9985033 4.33887987,37.6160066 5.94277597,40.2535828 C7.94724026,43.5485166 10.7276786,44.7878841 10.7276786,44.7878841 C10.7276786,44.7878841 11.3275162,40.7940497 10.474026,38.6851291 C9.27475649,35.7245762 5.44439935,33.9985033 5.44439935,33.9985033" id="Shape"></path>
                    <path d="M24.838474,33.1668278 C24.838474,33.1668278 23.0515422,36.4100364 20.1034903,37.0682086 C16.4232955,37.8933675 13.663961,36.7668179 13.663961,36.7668179 C13.663961,36.7668179 16.0616883,33.6266523 18.1237825,32.7970132 C21.0215097,31.6297351 24.838474,33.1668278 24.838474,33.1668278" id="Shape"></path>
                    <path d="M10.8413149,24.4423808 C10.8413149,24.4423808 9.16030844,27.7446457 10.2605519,30.5646854 C11.6367695,34.0876987 14.1103896,35.7579735 14.1103896,35.7579735 C14.1103896,35.7579735 15.367289,32.0056589 14.9001623,29.8250563 C14.2455357,26.7626821 10.8413149,24.4423808 10.8413149,24.4423808" id="Shape"></path>
                    <path d="M29.8392857,26.8359934 C29.8392857,26.8359934 27.5625,29.6605132 24.6075487,29.7928808 C20.9151786,29.9606821 18.4415584,28.4028179 18.4415584,28.4028179 C18.4415584,28.4028179 21.2909903,25.7815331 23.4216721,25.3327053 C26.4155844,24.7010066 29.8392857,26.8359934 29.8392857,26.8359934" id="Shape"></path>
                    <path d="M17.8080357,16.0246192 C17.8080357,16.0246192 15.625,18.9253013 16.211039,21.8345364 C16.9403409,25.4711821 19.0446429,27.5051623 19.0446429,27.5051623 C19.0446429,27.5051623 20.8936688,24.0978179 20.8137175,21.9143642 C20.7008929,18.8462881 17.8080357,16.0246192 17.8080357,16.0246192" id="Shape"></path>
                    <path d="M35.8116883,21.530702 C35.8116883,21.530702 33.1314935,23.8672947 30.2573052,23.490149 C26.6651786,23.0213642 24.5418019,21.0957219 24.5418019,21.0957219 C24.5418019,21.0957219 27.7362013,19.0523742 29.8709416,18.983543 C32.8656656,18.8837583 35.8116883,21.530702 35.8116883,21.530702" id="Shape"></path>
                    <path d="M26.0328734,9.04131457 C26.0328734,9.04131457 23.432224,11.4675099 23.5032468,14.3763377 C23.5896916,18.0093179 25.2767857,20.3328775 25.2767857,20.3328775 C25.2767857,20.3328775 27.6400162,17.360106 27.9314123,15.2385596 C28.3449675,12.258457 26.0328734,9.04131457 26.0328734,9.04131457" id="Shape"></path>
                    <path d="M42.5734578,17.3739536 C42.5734578,17.3739536 39.5913149,19.1729305 36.8818994,18.3172252 C33.4935065,17.2513609 31.7706981,15.0300298 31.7706981,15.0300298 C31.7706981,15.0300298 35.2025162,13.6045331 37.2719156,13.9022583 C40.1773539,14.3197252 42.5734578,17.3739536 42.5734578,17.3739536" id="Shape"></path>
                    <path d="M35.2528409,3.65171523 C35.2528409,3.65171523 32.3348214,5.55088411 31.9090909,8.36848013 C31.3762175,11.8890497 32.6112013,14.4199172 32.6112013,14.4199172 C32.6112013,14.4199172 35.3956981,11.9525861 36.0357143,9.95729801 C36.9395292,7.15232781 35.2528409,3.65171523 35.2528409,3.65171523" id="Shape"></path>
                    <path d="M49.8311688,14.4936358 C49.8311688,14.4936358 46.6489448,15.7203775 44.1789773,14.432543 C41.0888799,12.8249901 39.804789,10.3865762 39.804789,10.3865762 C39.804789,10.3865762 43.3555195,9.59725828 45.3056006,10.2371026 C48.0377435,11.137202 49.8311688,14.4936358 49.8311688,14.4936358" id="Shape"></path>
                    <path d="M45.09375,0 C45.09375,0 41.9525162,1.33222848 41.0665584,3.98161589 C39.9577922,7.28754636 40.7155032,9.9389702 40.7155032,9.9389702 C40.7155032,9.9389702 43.8210227,8.03654305 44.7792208,6.21883113 C46.1270292,3.66515563 45.09375,0 45.09375,0" id="Shape"></path>
                    <path d="M45.2329545,8.1607649 C45.2329545,8.1607649 47.5819805,9.49299338 49.6659903,8.77454305 C52.2702922,7.8772947 53.5592532,6.11497351 53.5592532,6.11497351 C53.5592532,6.11497351 50.8701299,5.08250662 49.2711039,5.35416556 C47.0247565,5.74108609 45.2329545,8.1607649 45.2329545,8.1607649" id="Shape"></path>
                    <path d="M81.1627435,98.9893411 C81.1627435,98.9893411 76.8859578,100.464934 75.4703734,103.887755 C73.6996753,108.164652 74.4642857,111.745907 74.4642857,111.745907 C74.4642857,111.745907 78.7491883,109.510321 80.1830357,107.190427 C82.1988636,103.936222 81.1627435,98.9893411 81.1627435,98.9893411" id="Shape"></path>
                    <path d="M88.6668019,117.776166 C88.6668019,117.776166 84.3441558,119.108394 81.1883117,117.176235 C77.2512175,114.765517 75.7706981,111.41845 75.7706981,111.41845 C75.7706981,111.41845 80.5462662,110.696334 83.0637175,111.723507 C86.601461,113.166924 88.6668019,117.776166 88.6668019,117.776166" id="Shape"></path>
                    <path d="M87.8185877,95.3017848 C87.8185877,95.3017848 83.9399351,97.4563212 83.1550325,101.001735 C82.1696429,105.432179 83.5174513,108.755623 83.5174513,108.755623 C83.5174513,108.755623 87.2715097,105.868381 88.2617695,103.385573 C89.6534091,99.8988079 87.8185877,95.3017848 87.8185877,95.3017848" id="Shape"></path>
                    <path d="M98.2443182,112.153192 C98.2443182,112.153192 94.2970779,114.176175 90.9277597,112.850464 C86.7163149,111.19648 84.7199675,108.218414 84.7199675,108.218414 C84.7199675,108.218414 89.2065747,106.705758 91.8120942,107.266589 C95.4707792,108.057129 98.2443182,112.153192 98.2443182,112.153192" id="Shape"></path>
                    <path d="M93.7946429,90.5214834 C93.7946429,90.5214834 90.4208604,93.2621026 90.2613636,96.818106 C90.0608766,101.259954 91.9249188,104.239649 91.9249188,104.239649 C91.9249188,104.239649 95.0596591,100.81194 95.59375,98.2448245 C96.3486201,94.6432053 93.7946429,90.5214834 93.7946429,90.5214834" id="Shape"></path>
                    <path d="M106.714692,105.001272 C106.714692,105.001272 103.248782,107.629073 99.7719156,106.926507 C95.4281656,106.047586 92.9975649,103.515497 92.9975649,103.515497 C92.9975649,103.515497 97.0722403,101.288871 99.6793831,101.386619 C103.344562,101.52306 106.714692,105.001272 106.714692,105.001272" id="Shape"></path>
                    <path d="M98.8660714,84.7184901 C98.8660714,84.7184901 96.0730519,87.939298 96.5239448,91.3991821 C97.0811688,95.7212881 99.3859578,98.2765927 99.3859578,98.2765927 C99.3859578,98.2765927 101.828328,94.4326391 101.911526,91.8655232 C102.02638,88.261053 98.8660714,84.7184901 98.8660714,84.7184901" id="Shape"></path>
                    <path d="M113.790584,96.487798 C113.790584,96.487798 110.890422,99.615745 107.415584,99.5298079 C103.072646,99.4239139 100.297078,97.3940066 100.297078,97.3940066 C100.297078,97.3940066 103.852679,94.5511589 106.385146,94.1984503 C109.946834,93.7052285 113.790584,96.487798 113.790584,96.487798" id="Shape"></path>
                    <path d="M102.892045,78.1375828 C102.892045,78.1375828 100.741883,81.7237252 101.761769,84.9860762 C103.035714,89.0609603 105.691964,91.1364834 105.691964,91.1364834 C105.691964,91.1364834 107.398133,87.0115033 107.039773,84.5164768 C106.543425,81.0174934 102.892045,78.1375828 102.892045,78.1375828" id="Shape"></path>
                    <path d="M119.290584,86.9483742 C119.290584,86.9483742 117.022321,90.4603907 113.653815,90.9723477 C109.445617,91.6125993 106.423295,90.1288609 106.423295,90.1288609 C106.423295,90.1288609 109.369724,86.7769073 111.757305,86.0055099 C115.111607,84.9188742 119.290584,86.9483742 119.290584,86.9483742" id="Shape"></path>
                    <path d="M105.666396,70.9885132 C105.666396,70.9885132 104.199675,74.8157682 105.739854,77.7901689 C107.658279,81.5062351 110.571834,83.0543245 110.571834,83.0543245 C110.571834,83.0543245 111.520292,78.7806854 110.755682,76.435947 C109.680195,73.1446788 105.666396,70.9885132 105.666396,70.9885132" id="Shape"></path>
                    <path d="M122.988636,76.6905 C122.988636,76.6905 121.394886,80.4684735 118.231737,81.5380033 C114.277192,82.8722682 111.109172,81.9575066 111.109172,81.9575066 C111.109172,81.9575066 113.382711,78.219447 115.554383,77.0639801 C118.607549,75.4454305 122.988636,76.6905 122.988636,76.6905" id="Shape"></path>
                    <path d="M107.196023,63.4924371 C107.196023,63.4924371 106.430195,67.4382119 108.418831,70.0440199 C110.904627,73.3047417 113.978896,74.3001457 113.978896,74.3001457 C113.978896,74.3001457 114.168425,70.0138808 113.03125,67.8809305 C111.435471,64.8865728 107.196023,63.4924371 107.196023,63.4924371" id="Shape"></path>
                    <path d="M124.881088,66.0383742 C124.881088,66.0383742 123.983766,69.9556391 121.111201,71.5293874 C117.523539,73.4929073 114.306412,73.1511954 114.306412,73.1511954 C114.306412,73.1511954 115.870536,69.1545099 117.771916,67.6703642 C120.443182,65.5846589 124.881088,66.0383742 124.881088,66.0383742" id="Shape"></path>
                    <path d="M107.408685,55.7984205 C107.408685,55.7984205 107.340909,59.7372715 109.70414,61.9138013 C112.650568,64.6344636 115.789367,65.0706656 115.789367,65.0706656 C115.789367,65.0706656 115.244724,60.9025132 113.783685,59.0379636 C111.735795,56.4199371 107.408685,55.7984205 107.408685,55.7984205" id="Shape"></path>
                    <path d="M124.908685,55.2343311 C124.908685,55.2343311 124.708604,59.168702 122.20211,61.1778377 C119.071023,63.6846755 115.912744,63.9037947 115.912744,63.9037947 C115.912744,63.9037947 116.741071,59.7804437 118.323052,58.0234172 C120.549107,55.5556788 124.908685,55.2343311 124.908685,55.2343311" id="Shape"></path>
                    <path d="M106.313718,47.9390464 C106.313718,47.9390464 106.912338,51.7528609 109.563312,53.4487947 C112.872565,55.5727848 115.971591,55.4571159 115.971591,55.4571159 C115.971591,55.4571159 114.740666,51.5276325 113.013393,49.9766921 C110.596997,47.8005695 106.313718,47.9390464 106.313718,47.9390464" id="Shape"></path>
                    <path d="M123.106331,44.4062583 C123.106331,44.4062583 123.578734,48.2384007 121.501623,50.6043179 C118.905844,53.5603907 115.892857,54.3114238 115.892857,54.3114238 C115.892857,54.3114238 115.995536,50.189702 117.226461,48.2229238 C118.952922,45.4611258 123.106331,44.4062583 123.106331,44.4062583" id="Shape"></path>
                    <path d="M103.854708,40.2747616 C103.854708,40.2747616 105.081169,43.8531656 107.924919,45.0375497 C111.478896,46.5225099 114.450487,45.8806291 114.450487,45.8806291 C114.450487,45.8806291 112.594968,42.2981523 110.667208,41.0966623 C107.964692,39.4105033 103.854708,40.2747616 103.854708,40.2747616" id="Shape"></path>
                    <path d="M119.464692,33.9985033 C119.464692,33.9985033 120.568182,37.6160066 118.963474,40.2535828 C116.961039,43.5485166 114.180601,44.7878841 114.180601,44.7878841 C114.180601,44.7878841 113.580763,40.7940497 114.434253,38.6851291 C115.633523,35.7245762 119.464692,33.9985033 119.464692,33.9985033" id="Shape"></path>
                    <path d="M100.068588,33.1668278 C100.068588,33.1668278 101.857143,36.4100364 104.80276,37.0682086 C108.483766,37.8933675 111.243912,36.7668179 111.243912,36.7668179 C111.243912,36.7668179 108.844562,33.6266523 106.782468,32.7970132 C103.887581,31.6297351 100.068588,33.1668278 100.068588,33.1668278" id="Shape"></path>
                    <path d="M114.066153,24.4423808 C114.066153,24.4423808 115.748782,27.7446457 114.648539,30.5646854 C113.273945,34.0876987 110.799513,35.7579735 110.799513,35.7579735 C110.799513,35.7579735 109.54099,32.0056589 110.008929,29.8250563 C110.663961,26.7626821 114.066153,24.4423808 114.066153,24.4423808" id="Shape"></path>
                    <path d="M95.067776,26.8359934 C95.067776,26.8359934 97.3461851,29.6605132 100.300325,29.7928808 C103.994318,29.9606821 106.466315,28.4028179 106.466315,28.4028179 C106.466315,28.4028179 103.616883,25.7815331 101.486201,25.3327053 C98.4935065,24.7010066 95.067776,26.8359934 95.067776,26.8359934" id="Shape"></path>
                    <path d="M107.100649,16.0246192 C107.100649,16.0246192 109.280844,18.9253013 108.696429,21.8345364 C107.965097,25.4711821 105.864042,27.5051623 105.864042,27.5051623 C105.864042,27.5051623 104.013393,24.0978179 104.094156,21.9143642 C104.207386,18.8462881 107.100649,16.0246192 107.100649,16.0246192" id="Shape"></path>
                    <path d="M89.0965909,21.530702 C89.0965909,21.530702 91.7767857,23.8672947 94.6513799,23.490149 C98.2439123,23.0213642 100.366071,21.0957219 100.366071,21.0957219 C100.366071,21.0957219 97.1716721,19.0523742 95.0369318,18.983543 C92.0422078,18.8837583 89.0965909,21.530702 89.0965909,21.530702" id="Shape"></path>
                    <path d="M98.8762175,9.04131457 C98.8762175,9.04131457 101.476867,11.4675099 101.404221,14.3763377 C101.317776,18.0093179 99.6314935,20.3328775 99.6314935,20.3328775 C99.6314935,20.3328775 97.2674513,17.360106 96.9776786,15.2385596 C96.5645292,12.258457 98.8762175,9.04131457 98.8762175,9.04131457" id="Shape"></path>
                    <path d="M82.3356331,17.3739536 C82.3356331,17.3739536 85.3173701,19.1729305 88.0263799,18.3172252 C91.4147727,17.2513609 93.1363636,15.0300298 93.1363636,15.0300298 C93.1363636,15.0300298 89.7086039,13.6045331 87.6367695,13.9022583 C84.7297078,14.3197252 82.3356331,17.3739536 82.3356331,17.3739536" id="Shape"></path>
                    <path d="M89.6546266,3.65171523 C89.6546266,3.65171523 92.5738636,5.55088411 93.0008117,8.36848013 C93.5320617,11.8890497 92.2974838,14.4199172 92.2974838,14.4199172 C92.2974838,14.4199172 89.5137987,11.9525861 88.8721591,9.95729801 C87.9695617,7.15232781 89.6546266,3.65171523 89.6546266,3.65171523" id="Shape"></path>
                    <path d="M75.0758929,14.4936358 C75.0758929,14.4936358 78.2593344,15.7203775 80.7301136,14.432543 C83.8193994,12.8249901 85.1034903,10.3865762 85.1034903,10.3865762 C85.1034903,10.3865762 81.5539773,9.59725828 79.6034903,10.2371026 C76.8709416,11.137202 75.0758929,14.4936358 75.0758929,14.4936358" id="Shape"></path>
                    <path d="M79.8133117,0 C79.8133117,0 82.9553571,1.33222848 83.8429383,3.98161589 C84.9512987,7.28754636 84.1923701,9.9389702 84.1923701,9.9389702 C84.1923701,9.9389702 81.086039,8.03654305 80.1270292,6.21883113 C78.7836851,3.66515563 79.8133117,0 79.8133117,0" id="Shape"></path>
                    <path d="M79.6757305,8.1607649 C79.6757305,8.1607649 77.3250812,9.49299338 75.2418831,8.77454305 C72.6359578,7.8772947 71.3478084,6.11497351 71.3478084,6.11497351 C71.3478084,6.11497351 74.0393669,5.08250662 75.6375812,5.35416556 C77.8814935,5.74108609 79.6757305,8.1607649 79.6757305,8.1607649" id="Shape"></path>
                </g>
            </g>
        </g>
    </g>
</svg>