<?xml version="1.0" encoding="UTF-8" standalone="no"?>
<svg width="61px" height="61px" viewBox="0 0 61 61" version="1.1" xmlns="http://www.w3.org/2000/svg" xmlns:xlink="http://www.w3.org/1999/xlink">
    <!-- Generator: Sketch 50.2 (55047) - http://www.bohemiancoding.com/sketch -->
    <title>if_pie-chart-1_3339000</title>
    <desc>Created with Sketch.</desc>
    <defs></defs>
    <g id="Page-1" stroke="none" stroke-width="1" fill="none" fill-rule="evenodd">
        <g id="if_pie-chart-1_3339000" fill="#008080" fill-rule="nonzero">
            <path d="M59.921,27.964 C58.908,13.099 46.934,1.124 32.068,0.11 L31,0.038 L31,29.032 L59.994,29.032 L59.921,27.964 Z M33,27.032 L33,2.199 C35.475,2.464 37.854,3.058 40.097,3.931 C40.093,3.966 40.077,3.996 40.077,4.032 C40.077,4.584 40.525,5.032 41.077,5.032 C41.378,5.032 41.639,4.892 41.823,4.682 C46.76,6.999 50.912,10.717 53.775,15.319 C53.595,15.142 53.349,15.032 53.077,15.032 C52.525,15.032 52.077,15.48 52.077,16.032 C52.077,16.584 52.525,17.032 53.077,17.032 C53.629,17.032 54.077,16.584 54.077,16.032 C54.077,15.903 54.048,15.782 54.004,15.669 C54.516,16.519 54.973,17.404 55.394,18.309 C55.201,18.491 55.077,18.746 55.077,19.032 C55.077,19.584 55.525,20.032 56.077,20.032 C56.098,20.032 56.116,20.021 56.138,20.02 C56.993,22.238 57.572,24.589 57.834,27.032 L33,27.032 Z" id="Shape"></path>
            <path d="M31.318,31.032 L51.415,51.129 L52.121,50.363 C56.739,45.355 59.536,38.869 59.997,32.1 L60.07,31.032 L31.318,31.032 Z M51.343,48.229 L36.146,33.032 L57.908,33.032 C57.308,38.616 55.007,43.942 51.343,48.229 Z" id="Shape"></path>
            <circle id="Oval" cx="35.076" cy="4.032" r="1"></circle>
            <circle id="Oval" cx="35.076" cy="10.032" r="1"></circle>
            <circle id="Oval" cx="38.076" cy="7.032" r="1"></circle>
            <circle id="Oval" cx="44.076" cy="7.032" r="1"></circle>
            <circle id="Oval" cx="41.076" cy="10.032" r="1"></circle>
            <circle id="Oval" cx="47.076" cy="10.032" r="1"></circle>
            <circle id="Oval" cx="50.076" cy="13.032" r="1"></circle>
            <circle id="Oval" cx="38.076" cy="13.032" r="1"></circle>
            <circle id="Oval" cx="44.076" cy="13.032" r="1"></circle>
            <circle id="Oval" cx="50.076" cy="19.032" r="1"></circle>
            <circle id="Oval" cx="53.076" cy="22.032" r="1"></circle>
            <circle id="Oval" cx="35.076" cy="16.032" r="1"></circle>
            <circle id="Oval" cx="35.076" cy="22.032" r="1"></circle>
            <circle id="Oval" cx="38.076" cy="19.032" r="1"></circle>
            <circle id="Oval" cx="44.076" cy="19.032" r="1"></circle>
            <circle id="Oval" cx="41.076" cy="16.032" r="1"></circle>
            <circle id="Oval" cx="47.076" cy="16.032" r="1"></circle>
            <circle id="Oval" cx="41.076" cy="22.032" r="1"></circle>
            <circle id="Oval" cx="47.076" cy="22.032" r="1"></circle>
            <circle id="Oval" cx="56.076" cy="25.032" r="1"></circle>
            <circle id="Oval" cx="50.076" cy="25.032" r="1"></circle>
            <circle id="Oval" cx="38.076" cy="25.032" r="1"></circle>
            <circle id="Oval" cx="44.076" cy="25.032" r="1"></circle>
            <path d="M29,0.038 L27.932,0.11 C12.269,1.179 0,14.321 0,30.032 C0,37.271 2.621,44.265 7.38,49.727 L8.084,50.535 L29,29.618 L29,0.038 Z M27,28.79 L8.199,47.591 C4.194,42.623 2,36.43 2,30.032 C2,15.729 12.896,3.705 27,2.199 L27,28.79 Z" id="Shape"></path>
            <path d="M9.498,51.948 L10.306,52.652 C15.767,57.411 22.762,60.032 30,60.032 C36.927,60.032 43.687,57.607 49.037,53.206 L49.888,52.506 L29.414,32.032 L9.498,51.948 Z M29.414,34.86 L30.515,35.961 L13.707,52.768 C13.281,52.462 12.851,52.164 12.441,51.834 L29.414,34.86 Z M21.198,56.592 C20.503,56.361 19.819,56.101 19.145,55.816 L34.758,40.203 L36.172,41.617 L21.198,56.592 Z M37.586,43.032 L39,44.446 L25.756,57.691 C24.961,57.569 24.173,57.414 23.394,57.224 L37.586,43.032 Z M17.219,54.914 C16.603,54.598 16.001,54.257 15.409,53.895 L31.929,37.375 L33.344,38.79 L17.219,54.914 Z M28.315,57.96 L40.414,45.86 L41.828,47.274 L31.117,57.986 C30.745,58.001 30.374,58.032 30,58.032 C29.436,58.032 28.876,57.994 28.315,57.96 Z M43.242,48.689 L44.657,50.104 L37.894,56.867 C36.694,57.221 35.475,57.506 34.235,57.697 L43.242,48.689 Z M42.56,55.029 L46.072,51.517 L46.9,52.345 C45.536,53.38 44.077,54.266 42.56,55.029 Z" id="Shape"></path>
        </g>
    </g>
</svg>