<?xml version="1.0" encoding="UTF-8"?>
<svg width="82px" height="130px" viewBox="0 0 82 130" version="1.1" xmlns="http://www.w3.org/2000/svg" xmlns:xlink="http://www.w3.org/1999/xlink">
    <!-- Generator: Sketch 51 (57462) - http://www.bohemiancoding.com/sketch -->
    <title>OI Icon</title>
    <desc>Created with Sketch.</desc>
    <defs></defs>
    <g id="Page-1" stroke="none" stroke-width="1" fill="none" fill-rule="evenodd">
        <g id="HelpDocs-Knowledge-Base-Kit" transform="translate(-982.000000, -1769.000000)">
            <rect fill="#FFFFFF" x="0" y="0" width="1200" height="2387"></rect>
            <g id="OI-Icon" transform="translate(982.000000, 1769.000000)">
                <path d="M7.5150392,116.678676 L74.2582969,116.678676 C75.7279073,116.678676 77.0791686,117.484551 77.7776411,118.777567 L80.6521591,124.098891 C81.7021127,126.042571 80.9776042,128.469391 79.0339241,129.519344 C78.4499172,129.834818 77.7965827,130 77.1328149,130 L4.27344972,130 C2.06431072,130 0.273449719,128.209139 0.273449719,126 C0.273449719,125.265903 0.475466697,124.545963 0.857374978,123.919031 L4.09896446,118.597707 C4.82495256,117.40594 6.11955856,116.678676 7.5150392,116.678676 Z" id="OI-Mat" fill="#DEA4FE"></path>
                <rect id="OI-Background" fill="#DEA4FE" x="4" y="0" width="72" height="114" rx="4"></rect>
                <path d="M8.22392048,0.00627246547 L60.2239205,2.92181057 C62.3427385,3.04060854 64,4.79339235 64,6.9155381 L64,105.776538 C64,107.875563 62.3775056,109.61755 60.2837692,109.76646 L8.28376919,113.464777 C6.08019629,113.621499 4.16679971,111.962198 4.01007832,109.758625 C4.00336156,109.664184 4,109.569535 4,109.474856 L4,4 C4,1.790861 5.790861,-3.51213245e-14 8,-3.55271368e-14 C8.07468408,-3.5540856e-14 8.14935351,0.00209164181 8.22392048,0.00627246547 Z" id="OI-Door" fill="#5D2ADB"></path>
                <path d="M57,55 L57,55 C59.209139,55 61,56.790861 61,59 L61,69.8215105 C61,71.8172496 59.528918,73.5076397 57.5522941,73.7831984 L57,73.860193 C55.0774706,74.1282105 53.3016814,72.7869636 53.033664,70.8644342 C53.0112483,70.7036429 53,70.5414918 53,70.3791456 L53,59 C53,56.790861 54.790861,55 57,55 Z" id="OI-Handle-2" fill="#DEA4FE"></path>
                <circle id="OI-Handle" fill="#5D2ADB" cx="57" cy="60" r="3"></circle>
            </g>
        </g>
    </g>
</svg>