<?xml version="1.0" encoding="UTF-8" standalone="no"?>
<svg width="118px" height="141px" viewBox="0 0 118 141" version="1.1" xmlns="http://www.w3.org/2000/svg" xmlns:xlink="http://www.w3.org/1999/xlink">
    <!-- Generator: Sketch 50.2 (55047) - http://www.bohemiancoding.com/sketch -->
    <title>Group 14</title>
    <desc>Created with Sketch.</desc>
    <defs></defs>
    <g id="Page-1" stroke="none" stroke-width="1" fill="none" fill-rule="evenodd">
        <g id="Group-14" transform="translate(-59.000000, -48.000000)">
            <circle id="Oval-3" cx="115.5" cy="115.5" r="115.5"></circle>
            <g id="Group-13" transform="translate(57.750000, 48.726562)">
                <g id="Group-12" transform="translate(0.000000, 45.117188)">
                    <g id="Group-9" transform="translate(0.226471, 36.869382)" fill="#4A90E2" stroke="#4A90E2" stroke-width="0.9">
                        <rect id="Rectangle-2" x="2.15503719" y="0.739901928" width="28.0856322" height="55.8497424"></rect>
                    </g>
                    <g id="Group" transform="translate(3.609375, 0.000000)" fill-rule="nonzero">
                        <path d="M11.8562861,19.7223068 L11.012765,27.6438422 L16.0575475,27.6438422 L15.2145371,19.7223068 C14.6703217,19.9387089 14.1095066,20.0532597 13.5349009,20.0532597 C12.9613167,20.0535137 12.4005015,19.9387089 11.8562861,19.7223068 Z" id="Shape" fill="#F8D417"></path>
                        <path d="M22.4844483,3.41823854 C22.5309276,2.6407658 22.5572317,1.85008542 22.5572317,1.04568941 C22.5572317,0.72235625 22.5526349,0.400293056 22.5449735,0.0807697917 L4.52482827,0.0807697917 C4.51716686,0.400293056 4.5128254,0.72235625 4.5128254,1.04568941 C4.5128254,1.85008542 4.53938495,2.6407658 4.58560879,3.41823854 C1.89236807,4.70242743 0.0850416421,7.04627535 0.0850416421,9.72056823 C0.0850416421,13.5944703 3.87769458,16.7757333 8.66454304,17.042172 C9.62017615,18.3367747 10.6991579,19.2620714 11.8562861,19.7225608 C12.4005015,19.9389628 12.9613167,20.0535137 13.5349009,20.0535137 C14.1095066,20.0535137 14.6703217,19.9389628 15.2145371,19.7225608 C16.3711546,19.2620714 17.4496256,18.3367747 18.4052587,17.042172 C23.1923625,16.7757333 26.9850155,13.5947243 26.9850155,9.72056823 C26.9850155,7.04627535 25.1781998,4.70242743 22.4844483,3.41823854 Z M1.63724315,9.72056823 C1.63724315,7.82552604 2.85259802,6.14536198 4.71917269,5.08646493 C5.13723025,9.15213177 6.17203125,12.7303859 7.60752395,15.3688658 C4.19411078,14.7806179 1.63724315,12.473599 1.63724315,9.72056823 Z M19.4627885,15.3688658 C20.8982812,12.7301319 21.9328269,9.15187778 22.3511398,5.08646493 C24.2182252,6.14510799 25.432814,7.82527205 25.432814,9.72056823 C25.432814,12.473599 22.8764571,14.7806179 19.4627885,15.3688658 Z" id="Shape" fill="#FCAE42"></path>
                        <rect id="Rectangle-path" fill="#FC8A00" x="11.012765" y="27.6440962" width="5.04478258" height="1"></rect>
                        <rect id="Rectangle-path" fill="#F5A623" x="7.62182525" y="28.5439936" width="11.8529662" height="4.42633698"></rect>
                        <rect id="Rectangle-path" fill="#F5A623" x="6.11865677" y="32.7163375" width="14.936428" height="1.49170122"></rect>
                        <path d="M13.5349009,0.0807697917 L4.52482827,0.0807697917 C4.51716686,0.400293056 4.5128254,0.72235625 4.5128254,1.04568941 C4.5128254,1.85008542 4.53938495,2.6407658 4.58560879,3.41823854 C1.89236807,4.70242743 0.0850416421,7.04627535 0.0850416421,9.72056823 C0.0850416421,13.5944703 3.87769458,16.7757333 8.66454304,17.042172 C10.0696455,18.945596 11.7403435,20.0535137 13.5349009,20.0535137 L13.5349009,0.0807697917 Z M1.63724315,9.72056823 C1.63724315,7.82552604 2.85259802,6.14536198 4.71917269,5.08646493 C5.13723025,9.15213177 6.17203125,12.7303859 7.60752395,15.3688658 C4.19411078,14.7806179 1.63724315,12.473599 1.63724315,9.72056823 Z" id="Shape" fill="#F8D417"></path>
                        <path d="M13.5349009,20.0535137 C12.9613167,20.0535137 12.4005015,19.9389628 11.8562861,19.7225608 L11.012765,27.6440962 L13.5349009,27.6440962 L13.5349009,20.0535137 Z" id="Shape" fill="#F9CD00"></path>
                    </g>
                </g>
                <g id="Group-10" transform="translate(43.312500, 0.000000)">
                    <rect id="Rectangle-2" stroke="#D0021B" stroke-width="0.9" fill="#D0021B" x="3.39997465" y="47.0454953" width="28.0856322" height="92.2103557"></rect>
                    <g id="Group" fill-rule="nonzero">
                        <path d="M15.0179624,24.9123875 L13.9495023,34.9185375 L20.3395602,34.9185375 L19.2717471,24.9123875 C18.5824075,25.1857375 17.8720416,25.3304333 17.1442078,25.3304333 C16.4176678,25.3307542 15.707302,25.1857375 15.0179624,24.9123875 Z" id="Shape" fill="#F8D417"></path>
                        <path d="M28.4803012,4.317775 C28.5391749,3.33570417 28.5724935,2.33695 28.5724935,1.32087083 C28.5724935,0.91245 28.5666708,0.505633333 28.5569664,0.102025 L5.73144915,0.102025 C5.72174469,0.505633333 5.7162455,0.91245 5.7162455,1.32087083 C5.7162455,2.33695 5.7498876,3.33570417 5.80843779,4.317775 C2.39699956,5.93990833 0.107719413,8.90055833 0.107719413,12.2786125 C0.107719413,17.1719625 4.91174646,21.1904 10.9750879,21.5269542 C12.1855565,23.1622417 13.5522667,24.3310375 15.0179624,24.9127083 C15.707302,25.1860583 16.4176678,25.3307542 17.1442078,25.3307542 C17.8720416,25.3307542 18.5824075,25.1860583 19.2717471,24.9127083 C20.7367958,24.3310375 22.1028591,23.1622417 23.3133277,21.5269542 C29.3769926,21.1904 34.1810196,17.1722833 34.1810196,12.2786125 C34.1810196,8.90055833 31.8923864,5.93990833 28.4803012,4.317775 Z M2.07384132,12.2786125 C2.07384132,9.884875 3.61329083,7.7625625 5.97761874,6.42500833 C6.50715831,11.5605875 7.81790625,16.0804875 9.63619701,19.4133042 C5.31254032,18.6702542 2.07384132,15.756125 2.07384132,12.2786125 Z M24.6528655,19.4133042 C26.4711562,16.0801667 27.7815807,11.5602667 28.3114438,6.42500833 C30.6764186,7.76224167 32.2148977,9.88455417 32.2148977,12.2786125 C32.2148977,15.756125 28.9768457,18.6702542 24.6528655,19.4133042 Z" id="Shape" fill="#FCAE42"></path>
                        <rect id="Rectangle-path" fill="#FC8A00" x="13.9495023" y="34.9188583" width="6.39005793" height="1.1367125"></rect>
                        <rect id="Rectangle-path" fill="#F5A623" x="9.65431198" y="36.0555708" width="15.0137571" height="5.5911625"></rect>
                        <rect id="Rectangle-path" fill="#F5A623" x="7.75029857" y="41.3259" width="18.9194755" height="1.88425417"></rect>
                        <path d="M17.1442078,0.102025 L5.73144915,0.102025 C5.72174469,0.505633333 5.7162455,0.91245 5.7162455,1.32087083 C5.7162455,2.33695 5.7498876,3.33570417 5.80843779,4.317775 C2.39699956,5.93990833 0.107719413,8.90055833 0.107719413,12.2786125 C0.107719413,17.1719625 4.91174646,21.1904 10.9750879,21.5269542 C12.7548843,23.9312792 14.8711017,25.3307542 17.1442078,25.3307542 L17.1442078,0.102025 Z M2.07384132,12.2786125 C2.07384132,9.884875 3.61329083,7.7625625 5.97761874,6.42500833 C6.50715831,11.5605875 7.81790625,16.0804875 9.63619701,19.4133042 C5.31254032,18.6702542 2.07384132,15.756125 2.07384132,12.2786125 Z" id="Shape" fill="#F8D417"></path>
                        <path d="M17.1442078,25.3307542 C16.4176678,25.3307542 15.707302,25.1860583 15.0179624,24.9127083 L13.9495023,34.9188583 L17.1442078,34.9188583 L17.1442078,25.3307542 Z" id="Shape" fill="#F9CD00"></path>
                    </g>
                </g>
                <g id="Group-11" transform="translate(88.429687, 77.601563)">
                    <g id="Group-9" transform="translate(1.481739, 27.984176)" fill="#417505" stroke="#417505" stroke-width="0.9">
                        <rect id="Rectangle-2" x="0.45" y="0.928050199" width="28.0856322" height="32.0624252"></rect>
                    </g>
                    <g id="Group" transform="translate(5.414062, 0.000000)" fill-rule="nonzero">
                        <path d="M8.69460982,14.532226 L8.07602764,20.3691469 L11.7755349,20.3691469 L11.1573272,14.532226 C10.7582359,14.6916802 10.3469715,14.7760861 9.92559397,14.7760861 C9.50496558,14.7762733 9.09370114,14.6916802 8.69460982,14.532226 Z" id="Shape" fill="#F8D417"></path>
                        <path d="M16.4885954,2.51870208 C16.5226802,1.94582743 16.5419699,1.36322083 16.5419699,0.770507986 C16.5419699,0.5322625 16.5385989,0.294952778 16.5329805,0.0595145833 L3.3182074,0.0595145833 C3.31258903,0.294952778 3.30940529,0.5322625 3.30940529,0.770507986 C3.30940529,1.36322083 3.3288823,1.94582743 3.36277978,2.51870208 C1.38773659,3.46494653 0.0623638709,5.19199236 0.0623638709,7.16252396 C0.0623638709,10.0169781 2.84364269,12.3610667 6.35399823,12.5573899 C7.05479584,13.5113076 7.84604916,14.1931052 8.69460982,14.5324132 C9.09370114,14.6918674 9.50496558,14.7762733 9.92559397,14.7762733 C10.3469715,14.7762733 10.7582359,14.6918674 11.1573272,14.5324132 C12.0055133,14.1931052 12.7963921,13.5113076 13.4971897,12.5573899 C17.0077325,12.3610667 19.7890114,10.0171653 19.7890114,7.16252396 C19.7890114,5.19199236 18.4640132,3.46494653 16.4885954,2.51870208 Z M1.20064497,7.16252396 C1.20064497,5.76617708 2.09190522,4.52816146 3.46072664,3.74792153 C3.76730218,6.74367604 4.52615625,9.38028438 5.5788509,11.3244274 C3.07568124,10.8909816 1.20064497,9.19107292 1.20064497,7.16252396 Z M14.2727116,11.3244274 C15.3254063,9.38009722 16.084073,6.74348889 16.3908359,3.74792153 C17.7600318,4.52797431 18.6507302,5.76598993 18.6507302,7.16252396 C18.6507302,9.19107292 16.7760685,10.8909816 14.2727116,11.3244274 Z" id="Shape" fill="#FCAE42"></path>
                        <rect id="Rectangle-path" fill="#FC8A00" x="8.07602764" y="20.369334" width="3.69950722" height="1"></rect>
                        <rect id="Rectangle-path" fill="#F5A623" x="5.58933852" y="21.0324163" width="8.69217519" height="3.26151146"></rect>
                        <rect id="Rectangle-path" fill="#F5A623" x="4.48701496" y="24.106775" width="10.9533805" height="1.09914826"></rect>
                        <path d="M9.92559397,0.0595145833 L3.3182074,0.0595145833 C3.31258903,0.294952778 3.30940529,0.5322625 3.30940529,0.770507986 C3.30940529,1.36322083 3.3288823,1.94582743 3.36277978,2.51870208 C1.38773659,3.46494653 0.0623638709,5.19199236 0.0623638709,7.16252396 C0.0623638709,10.0169781 2.84364269,12.3610667 6.35399823,12.5573899 C7.38440669,13.9599128 8.6095852,14.7762733 9.92559397,14.7762733 L9.92559397,0.0595145833 Z M1.20064497,7.16252396 C1.20064497,5.76617708 2.09190522,4.52816146 3.46072664,3.74792153 C3.76730218,6.74367604 4.52615625,9.38028437 5.5788509,11.3244274 C3.07568124,10.8909816 1.20064497,9.19107292 1.20064497,7.16252396 Z" id="Shape" fill="#F8D417"></path>
                        <path d="M9.92559397,14.7762733 C9.50496558,14.7762733 9.09370114,14.6918674 8.69460982,14.5324132 L8.07602764,20.369334 L9.92559397,20.369334 L9.92559397,14.7762733 Z" id="Shape" fill="#F9CD00"></path>
                    </g>
                </g>
            </g>
        </g>
    </g>
</svg>