<?xml version="1.0" encoding="UTF-8" standalone="no"?>
<svg width="219px" height="201px" viewBox="0 0 219 201" version="1.1" xmlns="http://www.w3.org/2000/svg" xmlns:xlink="http://www.w3.org/1999/xlink">
    <!-- Generator: Sketch 50.2 (55047) - http://www.bohemiancoding.com/sketch -->
    <title>Group 20</title>
    <desc>Created with Sketch.</desc>
    <defs></defs>
    <g id="Page-1" stroke="none" stroke-width="1" fill="none" fill-rule="evenodd">
        <g id="Group-20" transform="translate(-43.000000, -27.000000)">
            <g id="if_9_3319600" fill-rule="nonzero">
                <circle id="Oval" cx="115.5" cy="115.5" r="115.5"></circle>
                <g id="Group" transform="translate(42.350000, 27.300000)">
                    <path d="M93.5098771,109.66375 C93.5098771,122.01 100.382382,132.90375 110.148573,138.71375 C114.489102,141.255625 119.191342,142.708125 124.255293,143.07125 L124.255293,166.674375 C124.255293,170.66875 120.999896,174.3 116.659367,174.3 L8.50784499,174.3 C4.52902647,174.3 0.911918715,171.031875 0.911918715,166.674375 L0.911918715,24.329375 C0.911918715,20.335 4.16731569,16.70375 8.50784499,16.70375 L31.6573346,16.70375 L31.6573346,36.3125 L93.1481664,36.3125 L93.1481664,16.70375 L116.659367,16.70375 C120.638185,16.70375 124.255293,19.971875 124.255293,24.329375 L124.255293,76.25625 C119.191342,76.619375 114.489102,78.071875 110.148573,80.61375 C100.382382,86.42375 93.5098771,97.3175 93.5098771,109.66375 Z" id="Shape" fill="#FACC20"></path>
                    <path d="M86.6373724,30.865625 C71.4455198,68.630625 39.9766824,97.680625 0.911918715,110.026875 L0.911918715,24.329375 C0.911918715,20.335 4.16731569,16.70375 8.50784499,16.70375 L34.5510208,16.70375 L34.5510208,30.865625 L86.6373724,30.865625 Z" id="Shape" fill="#FDEF34"></path>
                    <path d="M124.255293,87.87625 L124.255293,166.674375 C124.255293,171.031875 120.999896,174.3 116.659367,174.3 L58.0622212,174.3 C60.5941966,133.993125 87.7225047,100.2225 124.255293,87.87625 Z" id="Shape" fill="#F7A90B"></path>
                    <path d="M73.9774953,11.256875 C73.9774953,10.1675 73.9774953,9.44125 73.6157845,8.351875 C72.1689414,3.63125 67.8284121,0 62.7644612,0 C56.6153781,0 51.5514272,5.08375 51.5514272,11.256875 L32.0190454,11.256875 L32.0190454,36.675625 L93.5098771,36.675625 L93.5098771,11.256875 L73.9774953,11.256875 Z M62.7644612,4.3575 C65.6581474,4.3575 67.8284121,5.81 68.9135444,8.351875 C69.2752552,9.078125 69.636966,10.1675 69.636966,11.256875 C69.636966,14.525 67.1049905,17.43 64.2113043,17.793125 C63.8495936,17.793125 63.4878828,17.793125 63.126172,17.793125 C62.7644612,17.793125 62.4027505,17.793125 62.0410397,17.793125 C61.6793289,17.793125 61.3176181,17.793125 60.5941966,17.43 C58.0622212,16.340625 56.2536673,14.161875 56.2536673,11.256875 C55.8919565,7.625625 58.7856427,4.3575 62.7644612,4.3575 Z" id="Shape" fill="#695652"></path>
                    <path d="M93.5098771,109.66375 C93.5098771,122.01 100.382382,132.90375 110.148573,138.71375 L110.148573,160.138125 L15.0186389,160.138125 L15.0186389,30.865625 L31.6573346,30.865625 L31.6573346,36.3125 L93.1481664,36.3125 L93.1481664,30.865625 L109.786862,30.865625 L109.786862,80.61375 C100.382382,86.42375 93.5098771,97.3175 93.5098771,109.66375 Z" id="Shape" fill="#FFFFFF"></path>
                    <path d="M160.788081,109.66375 C160.788081,119.105 157.170974,127.456875 151.02189,133.63 C149.936758,134.719375 148.489915,135.80875 147.404783,136.898125 C141.979121,140.8925 135.106616,143.434375 127.51069,143.434375 C118.10621,143.434375 109.786862,139.803125 103.637779,133.63 C97.4886957,127.456875 93.8715879,119.105 93.8715879,109.66375 C93.8715879,91.144375 109.06344,75.893125 127.51069,75.893125 C135.106616,75.893125 141.979121,78.435 147.404783,82.429375 C148.851626,83.51875 149.936758,84.608125 151.02189,85.6975 C156.809263,91.870625 160.788081,100.2225 160.788081,109.66375 Z" id="Shape" fill="#00A8EA"></path>
                    <g transform="translate(22.976276, 98.043750)" fill="#B3B4B7" id="Rectangle-path">
                        <rect x="1.80855388" y="15.25125" width="5.42566163" height="40.67"></rect>
                        <rect x="11.213034" y="0" width="5.42566163" height="56.284375"></rect>
                        <rect x="20.6175142" y="34.496875" width="5.42566163" height="21.424375"></rect>
                        <rect x="30.0219943" y="21.424375" width="5.42566163" height="34.86"></rect>
                        <rect x="39.4264745" y="13.0725" width="5.42566163" height="43.211875"></rect>
                        <rect x="48.8309546" y="5.81" width="5.42566163" height="50.11125"></rect>
                        <rect x="58.5971456" y="23.96625" width="5.42566163" height="32.318125"></rect>
                    </g>
                    <g transform="translate(22.976276, 141.618750)" fill="#9D9EA0" id="Rectangle-path">
                        <rect x="1.80855388" y="1.4525" width="5.42566163" height="10.89375"></rect>
                        <rect x="11.213034" y="1.4525" width="5.42566163" height="10.89375"></rect>
                        <rect x="20.6175142" y="1.4525" width="5.42566163" height="10.89375"></rect>
                        <rect x="30.0219943" y="1.4525" width="5.42566163" height="10.89375"></rect>
                        <rect x="39.4264745" y="1.4525" width="5.42566163" height="10.89375"></rect>
                        <rect x="48.8309546" y="1.4525" width="5.42566163" height="10.89375"></rect>
                        <rect x="58.5971456" y="1.4525" width="5.42566163" height="10.89375"></rect>
                    </g>
                    <g transform="translate(22.976276, 43.575000)" id="Shape">
                        <g transform="translate(7.234216, 5.986655)" fill="#9ECA5B">
                            <path d="M18.0855388,23.4264696 L12.2981664,29.2364696 C13.0215879,29.5995946 13.7450095,30.3258446 14.1067202,31.0520946 L19.5323819,25.2420946 C18.8089603,24.8789696 18.4472495,24.5158446 18.0855388,23.4264696 Z"></path>
                            <path d="M37.2562098,27.4208446 C37.2562098,27.4208446 37.2562098,27.0577196 37.2562098,27.4208446 C37.2562098,26.3314696 37.6179206,25.6052196 37.9796314,25.2420946 L25.3197543,21.9739696 C25.3197543,21.9739696 25.3197543,22.3370946 25.3197543,22.3370946 C25.3197543,23.0633446 24.9580435,23.7895946 24.9580435,24.1527196 L37.2562098,27.4208446 Z"></path>
                            <path d="M63.6610964,0.549594595 C63.6610964,0.912719595 63.6610964,0.912719595 63.6610964,0.549594595 L41.9584499,23.7895946 C42.6818715,24.1527196 43.405293,24.8789696 43.7670038,25.6052196 L65.4696503,2.36521959 C65.4696503,2.36521959 65.4696503,2.36521959 65.4696503,2.00209459 C64.7462287,2.00209459 64.384518,1.27584459 63.6610964,0.549594595 Z"></path>
                            <path d="M7.2342155,32.8677196 C7.2342155,32.1414696 7.59592628,31.4152196 7.95763705,30.6889696 L1.80855388,28.5102196 C1.80855388,28.5102196 1.80855388,28.5102196 1.80855388,28.5102196 C1.80855388,29.2364696 1.4468431,29.9627196 1.08513233,30.6889696 C1.08513233,30.6889696 1.08513233,30.6889696 1.4468431,30.6889696 L7.2342155,32.8677196 C7.2342155,32.8677196 7.2342155,32.8677196 7.2342155,32.8677196 Z"></path>
                        </g>
                        <path d="M5.42566163,38.854375 C2.8936862,38.854375 0.72342155,36.675625 0.72342155,34.13375 C0.72342155,31.591875 2.8936862,29.413125 5.42566163,29.413125 C7.95763705,29.413125 10.1279017,31.591875 10.1279017,34.13375 C10.1279017,36.675625 7.95763705,38.854375 5.42566163,38.854375 Z M5.42566163,31.955 C3.97881853,31.955 2.8936862,33.044375 2.8936862,34.496875 C2.8936862,35.949375 3.97881853,37.03875 5.42566163,37.03875 C6.87250473,37.03875 7.95763705,35.949375 7.95763705,34.496875 C7.59592628,33.044375 6.51079395,31.955 5.42566163,31.955 Z" fill="#98BA56"></path>
                        <path d="M18.0855388,43.575 C15.5535633,43.575 13.3832987,41.39625 13.3832987,38.854375 C13.3832987,36.3125 15.5535633,34.13375 18.0855388,34.13375 C20.6175142,34.13375 22.7877788,36.3125 22.7877788,38.854375 C22.7877788,41.39625 20.6175142,43.575 18.0855388,43.575 Z M18.0855388,36.3125 C16.6386957,36.3125 15.5535633,37.401875 15.5535633,38.854375 C15.5535633,40.306875 16.6386957,41.39625 18.0855388,41.39625 C19.5323819,41.39625 20.6175142,40.306875 20.6175142,38.854375 C20.6175142,37.401875 19.5323819,36.3125 18.0855388,36.3125 Z" fill="#98BA56"></path>
                        <path d="M28.5751512,33.044375 C26.0431758,33.044375 23.8729112,30.865625 23.8729112,28.32375 C23.8729112,25.781875 26.0431758,23.603125 28.5751512,23.603125 C31.1071267,23.603125 33.2773913,25.781875 33.2773913,28.32375 C33.2773913,30.865625 31.1071267,33.044375 28.5751512,33.044375 Z M28.5751512,25.781875 C27.1283081,25.781875 26.0431758,26.87125 26.0431758,28.32375 C26.0431758,29.77625 27.1283081,30.865625 28.5751512,30.865625 C30.0219943,30.865625 31.1071267,29.77625 31.1071267,28.32375 C31.1071267,26.87125 30.0219943,25.781875 28.5751512,25.781875 Z" fill="#98BA56"></path>
                        <path d="M47.7458223,37.765 C45.2138469,37.765 43.0435822,35.58625 43.0435822,33.044375 C43.0435822,30.5025 45.2138469,28.32375 47.7458223,28.32375 C50.2777977,28.32375 52.4480624,30.5025 52.4480624,33.044375 C52.8097732,35.58625 50.6395085,37.765 47.7458223,37.765 Z M47.7458223,30.865625 C46.2989792,30.865625 45.2138469,31.955 45.2138469,33.4075 C45.2138469,34.86 46.2989792,35.949375 47.7458223,35.949375 C49.1926654,35.949375 50.2777977,34.86 50.2777977,33.4075 C50.2777977,31.955 49.1926654,30.865625 47.7458223,30.865625 Z" fill="#98BA56"></path>
                        <path d="M74.1507089,9.44125 C71.6187335,9.44125 69.4484688,7.2625 69.4484688,4.720625 C69.4484688,2.17875 71.6187335,0 74.1507089,0 C76.6826843,0 78.852949,2.17875 78.852949,4.720625 C78.852949,7.2625 76.6826843,9.44125 74.1507089,9.44125 Z M74.1507089,2.541875 C72.7038658,2.541875 71.6187335,3.63125 71.6187335,5.08375 C71.6187335,6.53625 72.7038658,7.625625 74.1507089,7.625625 C75.597552,7.625625 76.6826843,6.53625 76.6826843,5.08375 C76.6826843,3.63125 75.2358412,2.541875 74.1507089,2.541875 Z" fill="#98BA56"></path>
                    </g>
                    <path d="M160.788081,109.66375 C160.788081,100.2225 157.170974,91.870625 151.02189,85.6975 L127.148979,109.66375 L151.02189,133.63 C156.809263,127.456875 160.788081,119.105 160.788081,109.66375 Z" id="Shape" fill="#40EEFF"></path>
                    <g opacity="0.1" transform="translate(120.638185, 83.518750)" fill="#231F20" id="Shape">
                        <path d="M31.1071267,48.65875 C30.7454159,49.021875 30.3837051,49.385 30.0219943,49.748125 C30.3837051,49.748125 30.7454159,49.021875 31.1071267,48.65875 Z"></path>
                        <path d="M30.0219943,2.17875 C29.2985728,1.4525 28.5751512,0.72625 27.8517297,0 L1.80855388,26.145 L27.4900189,51.926875 C28.2134405,51.200625 28.936862,50.474375 29.6602836,49.748125 L5.7873724,25.781875 L30.0219943,2.17875 C30.3837051,2.541875 30.7454159,2.905 31.1071267,3.63125 C31.1071267,3.268125 30.7454159,2.905 30.0219943,2.17875 Z"></path>
                    </g>
                </g>
            </g>
            <g id="Group-14" transform="translate(155.000000, 114.000000)">
                <circle id="Oval-3" cx="69.5" cy="69.5" r="69.5"></circle>
                <g id="Group-13" transform="translate(34.750000, 29.320312)">
                    <g id="Group-12" transform="translate(0.000000, 27.148438)">
                        <g id="Group-9" transform="translate(0.136275, 22.185472)" fill="#4A90E2" stroke="#4A90E2" stroke-width="0.54">
                            <rect id="Rectangle-2" x="1.29597476" y="0.444443152" width="16.9015709" height="33.6081134"></rect>
                        </g>
                        <g id="Group" transform="translate(2.171875, 0.000000)" fill-rule="nonzero">
                            <path d="M7.13430203,11.8675352 L6.6267287,16.6341734 L9.6623338,16.6341734 L9.15506781,11.8675352 C8.82759618,11.9977512 8.49013598,12.0666801 8.14437758,12.0666801 C7.79923386,12.0668329 7.46177366,11.9977512 7.13430203,11.8675352 Z" id="Shape" fill="#F8D417"></path>
                            <path d="M13.5296031,2.05686215 C13.5575711,1.58903223 13.5733992,1.11325486 13.5733992,0.629224363 C13.5733992,0.434664583 13.5706331,0.240868981 13.566023,0.0486017361 L2.72273216,0.0486017361 C2.71812205,0.240868981 2.71550966,0.434664583 2.71550966,0.629224363 C2.71550966,1.11325486 2.73149138,1.58903223 2.75930572,2.05686215 C1.13869767,2.82959919 0.0511722435,4.23996655 0.0511722435,5.84917309 C0.0511722435,8.1802224 2.33333137,10.0944889 5.21372936,10.2548135 C5.788764,11.0338168 6.43802145,11.590597 7.13430203,11.8676881 C7.46177366,11.9979041 7.79923386,12.0668329 8.14437758,12.0668329 C8.49013598,12.0668329 8.82759618,11.9979041 9.15506781,11.8676881 C9.85104105,11.590597 10.4999912,11.0338168 11.0750258,10.2548135 C13.9555775,10.0944889 16.2377366,8.18037523 16.2377366,5.84917309 C16.2377366,4.23996655 15.1505185,2.82959919 13.5296031,2.05686215 Z M0.98518094,5.84917309 C0.98518094,4.70886632 1.71649838,3.69785851 2.83967534,3.06068669 C3.09123379,5.50712691 3.71390625,7.66027552 4.57768757,9.24793223 C2.52372899,8.89396487 0.98518094,7.50575868 0.98518094,5.84917309 Z M11.7113749,9.24793223 C12.5751562,7.66012269 13.197675,5.50697407 13.4493872,3.06068669 C14.5728715,3.69770567 15.3037279,4.70871348 15.3037279,5.84917309 C15.3037279,7.50575868 13.7654872,8.89396487 11.7113749,9.24793223 Z" id="Shape" fill="#FCAE42"></path>
                            <rect id="Rectangle-path" fill="#FC8A00" x="6.6267287" y="16.6343263" width="3.0356051" height="1"></rect>
                            <rect id="Rectangle-path" fill="#F5A623" x="4.58629312" y="17.175823" width="7.13230432" height="2.66346684"></rect>
                            <rect id="Rectangle-path" fill="#F5A623" x="3.68178914" y="19.6864542" width="8.98772074" height="1"></rect>
                            <path d="M8.14437758,0.0486017361 L2.72273216,0.0486017361 C2.71812205,0.240868981 2.71550966,0.434664583 2.71550966,0.629224363 C2.71550966,1.11325486 2.73149138,1.58903223 2.75930572,2.05686215 C1.13869767,2.82959919 0.0511722435,4.23996655 0.0511722435,5.84917309 C0.0511722435,8.1802224 2.33333137,10.0944889 5.21372936,10.2548135 C6.05922391,11.4001638 7.06453567,12.0668329 8.14437758,12.0668329 L8.14437758,0.0486017361 Z M0.98518094,5.84917309 C0.98518094,4.70886632 1.71649838,3.69785851 2.83967534,3.06068669 C3.09123379,5.50712691 3.71390625,7.66027552 4.57768757,9.24793223 C2.52372899,8.89396487 0.98518094,7.50575868 0.98518094,5.84917309 Z" id="Shape" fill="#F8D417"></path>
                            <path d="M8.14437758,12.0668329 C7.79923386,12.0668329 7.46177366,11.9979041 7.13430203,11.8676881 L6.6267287,16.6343263 L8.14437758,16.6343263 L8.14437758,12.0668329 Z" id="Shape" fill="#F9CD00"></path>
                        </g>
                    </g>
                    <g id="Group-10" transform="translate(26.062500, 0.000000)">
                        <rect id="Rectangle-2" stroke="#D0021B" stroke-width="0.54" fill="#D0021B" x="2.04509297" y="28.307982" width="16.9015709" height="55.4874435"></rect>
                        <g id="Group" fill-rule="nonzero">
                            <path d="M9.03678258,14.9905708 L8.39385635,21.0115875 L12.2389561,21.0115875 L11.5964192,14.9905708 C11.1816218,15.1550542 10.7541722,15.2421222 10.3162116,15.2421222 C9.87902955,15.2423153 9.45157997,15.1550542 9.03678258,14.9905708 Z" id="Shape" fill="#F8D417"></path>
                            <path d="M17.1374973,2.59814167 C17.1729234,2.00719861 17.1929723,1.40621667 17.1929723,0.794809722 C17.1929723,0.54905 17.1894686,0.304255556 17.1836291,0.0613916667 L3.44879407,0.0613916667 C3.4429546,0.304255556 3.43964556,0.54905 3.43964556,0.794809722 C3.43964556,1.40621667 3.45988908,2.00719861 3.49512058,2.59814167 C1.44235038,3.57423056 0.0648181751,5.35574722 0.0648181751,7.38842917 C0.0648181751,10.3329125 2.95555307,12.7509333 6.60405719,12.9534486 C7.3324344,13.9374528 8.15482717,14.6407542 9.03678258,14.9907639 C9.45157997,15.1552472 9.87902955,15.2423153 10.3162116,15.2423153 C10.7541722,15.2423153 11.1816218,15.1552472 11.5964192,14.9907639 C12.4779853,14.6407542 13.2999888,13.9374528 14.028366,12.9534486 C17.6770648,12.7509333 20.5677997,10.3331056 20.5677997,7.38842917 C20.5677997,5.35574722 19.1906568,3.57423056 17.1374973,2.59814167 Z M1.24789586,7.38842917 C1.24789586,5.94804167 2.17423128,4.67097917 3.5969221,3.86613056 C3.91556279,6.95637083 4.70428125,9.6761375 5.79840426,11.6815986 C3.19672339,11.2344819 1.24789586,9.48095833 1.24789586,7.38842917 Z M14.8344082,11.6815986 C15.9285312,9.67594444 16.7170551,6.95617778 17.0358904,3.86613056 C18.4589705,4.67078611 19.384722,5.94784861 19.384722,7.38842917 C19.384722,9.48095833 17.4362838,11.2344819 14.8344082,11.6815986 Z" id="Shape" fill="#FCAE42"></path>
                            <rect id="Rectangle-path" fill="#FC8A00" x="8.39385635" y="21.0117806" width="3.84509979" height="1"></rect>
                            <rect id="Rectangle-path" fill="#F5A623" x="5.80930461" y="21.6957764" width="9.03425214" height="3.36437917"></rect>
                            <rect id="Rectangle-path" fill="#F5A623" x="4.66359957" y="24.8671" width="11.3844463" height="1.13381528"></rect>
                            <path d="M10.3162116,0.0613916667 L3.44879407,0.0613916667 C3.4429546,0.304255556 3.43964556,0.54905 3.43964556,0.794809722 C3.43964556,1.40621667 3.45988908,2.00719861 3.49512058,2.59814167 C1.44235038,3.57423056 0.0648181751,5.35574722 0.0648181751,7.38842917 C0.0648181751,10.3329125 2.95555307,12.7509333 6.60405719,12.9534486 C7.67501695,14.4002069 8.94841185,15.2423153 10.3162116,15.2423153 L10.3162116,0.0613916667 Z M1.24789586,7.38842917 C1.24789586,5.94804167 2.17423128,4.67097917 3.5969221,3.86613056 C3.91556279,6.95637083 4.70428125,9.6761375 5.79840426,11.6815986 C3.19672339,11.2344819 1.24789586,9.48095833 1.24789586,7.38842917 Z" id="Shape" fill="#F8D417"></path>
                            <path d="M10.3162116,15.2423153 C9.87902955,15.2423153 9.45157997,15.1552472 9.03678258,14.9907639 L8.39385635,21.0117806 L10.3162116,21.0117806 L10.3162116,15.2423153 Z" id="Shape" fill="#F9CD00"></path>
                        </g>
                    </g>
                    <g id="Group-11" transform="translate(53.210937, 46.695313)">
                        <g id="Group-9" transform="translate(0.891609, 16.838963)" fill="#417505" stroke="#417505" stroke-width="0.54">
                            <rect id="Rectangle-2" x="0.27" y="0.557657912" width="16.9015709" height="19.2945329"></rect>
                        </g>
                        <g id="Group" transform="translate(3.257812, 0.000000)" fill-rule="nonzero">
                            <path d="M5.23182149,8.74449965 L4.85960105,12.2567594 L7.08571145,12.2567594 L6.71371639,8.74449965 C6.47357053,8.84044826 6.22609972,8.89123796 5.97254356,8.89123796 C5.71943816,8.89135058 5.47196735,8.84044826 5.23182149,8.74449965 Z" id="Shape" fill="#F8D417"></path>
                            <path d="M9.92170895,1.51558264 C9.94221882,1.17086586 9.95382606,0.820293056 9.95382606,0.463639005 C9.95382606,0.320279167 9.95179761,0.177482407 9.94841686,0.0358118056 L1.99667025,0.0358118056 C1.9932895,0.177482407 1.99137375,0.320279167 1.99137375,0.463639005 C1.99137375,0.820293056 2.00309368,1.17086586 2.02349086,1.51558264 C0.835044959,2.08496782 0.0375263119,3.12418588 0.0375263119,4.30991701 C0.0375263119,6.02753229 1.71110967,7.43804444 3.82340153,7.55617836 C4.2450936,8.13018079 4.72121573,8.54043993 5.23182149,8.74461227 C5.47196735,8.84056088 5.71943816,8.89135058 5.97254356,8.89135058 C6.22609972,8.89135058 6.47357053,8.84056088 6.71371639,8.74461227 C7.22409677,8.54043993 7.69999351,8.13018079 8.12168558,7.55617836 C10.2340901,7.43804444 11.9076735,6.02764491 11.9076735,4.30991701 C11.9076735,3.12418588 11.1103802,2.08496782 9.92170895,1.51558264 Z M0.722466023,4.30991701 C0.722466023,3.46969097 1.25876548,2.72473785 2.08242858,2.25524282 C2.26690478,4.05788299 2.72353125,5.64441354 3.35697089,6.81426586 C1.8507346,6.5534478 0.722466023,5.53055903 0.722466023,4.30991701 Z M8.58834161,6.81426586 C9.22178125,5.64430093 9.67829503,4.05777037 9.86288392,2.25524282 C10.6867724,2.72462523 11.2227338,3.46957836 11.2227338,4.30991701 C11.2227338,5.53055903 10.0946906,6.5534478 8.58834161,6.81426586 Z" id="Shape" fill="#FCAE42"></path>
                            <rect id="Rectangle-path" fill="#FC8A00" x="4.85960105" y="12.256872" width="2.22611041" height="1"></rect>
                            <rect id="Rectangle-path" fill="#F5A623" x="3.36328162" y="12.6558696" width="5.2303565" height="1.96255451"></rect>
                            <rect id="Rectangle-path" fill="#F5A623" x="2.6999787" y="14.5058083" width="6.59099521" height="1"></rect>
                            <path d="M5.97254356,0.0358118056 L1.99667025,0.0358118056 C1.9932895,0.177482407 1.99137375,0.320279167 1.99137375,0.463639005 C1.99137375,0.820293056 2.00309368,1.17086586 2.02349086,1.51558264 C0.835044959,2.08496782 0.0375263119,3.12418588 0.0375263119,4.30991701 C0.0375263119,6.02753229 1.71110967,7.43804444 3.82340153,7.55617836 C4.44343087,8.40012072 5.18065949,8.89135058 5.97254356,8.89135058 L5.97254356,0.0358118056 Z M0.722466023,4.30991701 C0.722466023,3.46969097 1.25876548,2.72473785 2.08242858,2.25524282 C2.26690478,4.05788299 2.72353125,5.64441354 3.35697089,6.81426586 C1.8507346,6.5534478 0.722466023,5.53055903 0.722466023,4.30991701 Z" id="Shape" fill="#F8D417"></path>
                            <path d="M5.97254356,8.89135058 C5.71943816,8.89135058 5.47196735,8.84056088 5.23182149,8.74461227 L4.85960105,12.256872 L5.97254356,12.256872 L5.97254356,8.89135058 Z" id="Shape" fill="#F9CD00"></path>
                        </g>
                    </g>
                </g>
            </g>
        </g>
    </g>
</svg>