<?xml version="1.0" encoding="UTF-8"?>
<svg width="601px" height="265px" viewBox="0 0 601 265" version="1.1" xmlns="http://www.w3.org/2000/svg" xmlns:xlink="http://www.w3.org/1999/xlink">
    <!-- Generator: Sketch 51.1 (57501) - http://www.bohemiancoding.com/sketch -->
    <title>Group 3</title>
    <desc>Created with Sketch.</desc>
    <defs></defs>
    <g id="Page-1" stroke="none" stroke-width="1" fill="none" fill-rule="evenodd">
        <g id="Group-3" transform="translate(-1.000000, 0.000000)">
            <polyline id="Line-Two" stroke="#109EA6" stroke-width="2" points="44 113.811775 129.915612 168.337972 215.691583 212.726959 301.318857 148.130699 387.077974 97 472.654276 114.786486 557.993662 147.771954"></polyline>
            <polyline id="Line-One" stroke="#50A5F5" stroke-width="2" points="44.2903443 181.081912 129.498413 106.156103 215.5 155.000003 301.410431 186.839847 386.046875 135.786487 472.654276 135.786486 557.949768 81.5530122"></polyline>
            <g id="Ticks" transform="translate(0.000000, 254.000000)" stroke="#D6D6D6" stroke-linecap="square">
                <path d="M1.5,0.5 L1.5,10.5" id="Line"></path>
                <path d="M86.5,0.5 L86.5,10.5" id="Line-Copy"></path>
                <path d="M171.5,0.5 L171.5,10.5" id="Line-Copy-2"></path>
                <path d="M256.5,0.5 L256.5,10.5" id="Line-Copy-3"></path>
                <path d="M341.5,0.5 L341.5,10.5" id="Line-Copy-4"></path>
                <path d="M426.5,0.5 L426.5,10.5" id="Line-Copy-5"></path>
                <path d="M511.5,0.5 L511.5,10.5" id="Line-Copy-6"></path>
                <path d="M601.5,0.5 L601.5,10.5" id="Line-Copy-7"></path>
            </g>
            <g id="HorzLines" transform="translate(1.000000, 60.000000)" stroke-linecap="square">
                <path d="M0.5,194.5 L599.553406,194.5" id="Line" stroke="#979797"></path>
                <g id="HorzLine" transform="translate(0.000000, 129.000000)" stroke="#DBDBDB" stroke-dasharray="1,2,2,2">
                    <path d="M0.5,1.5 L599.553406,1.5" id="Line-Copy-10"></path>
                </g>
                <g id="HorzLine" transform="translate(0.000000, 64.333333)" stroke="#DBDBDB" stroke-dasharray="1,2,2,2">
                    <path d="M0.5,1.5 L599.553406,1.5" id="Line-Copy-10"></path>
                </g>
                <g id="HorzLine" stroke="#DBDBDB" stroke-dasharray="1,2,2,2">
                    <path d="M0.5,1.5 L599.553406,1.5" id="Line-Copy-10"></path>
                </g>
            </g>
            <g id="VertLines" transform="translate(43.000000, 61.000000)" stroke="#DBDBDB" stroke-dasharray="1,2,2" stroke-linecap="square">
                <g id="VertLine">
                    <path d="M1,0 L1,192.529999" id="Line-Copy-11"></path>
                </g>
                <g id="VertLine" transform="translate(85.500000, 0.000000)">
                    <path d="M1,0 L1,192.529999" id="Line-Copy-11"></path>
                </g>
                <g id="VertLine" transform="translate(171.333333, 0.000000)">
                    <path d="M1,0 L1,192.529999" id="Line-Copy-11"></path>
                </g>
                <g id="VertLine" transform="translate(257.000000, 0.000000)">
                    <path d="M1,0 L1,192.529999" id="Line-Copy-11"></path>
                </g>
                <g id="VertLine" transform="translate(343.000000, 0.000000)">
                    <path d="M1,0 L1,192.529999" id="Line-Copy-11"></path>
                </g>
                <g id="VertLine" transform="translate(428.000000, 0.000000)">
                    <path d="M1,0 L1,192.529999" id="Line-Copy-11"></path>
                </g>
                <g id="VertLine" transform="translate(514.000000, 0.000000)">
                    <path d="M1,0 L1,192.529999" id="Line-Copy-11"></path>
                </g>
            </g>
            <g id="Oval-2" transform="translate(37.000000, 75.000000)" fill="#50A5F5" stroke="#50A5F5" stroke-width="4">
                <g transform="translate(0.000000, 98.000000)" id="Oval-1-Copy-7">
                    <circle cx="7.5" cy="7.5" r="5.5"></circle>
                </g>
                <g transform="translate(85.000000, 24.000000)" id="Oval-1-Copy-7">
                    <circle cx="7.5" cy="7.5" r="5.5"></circle>
                </g>
                <g transform="translate(171.000000, 73.000000)" id="Oval-1-Copy-7">
                    <circle cx="7.5" cy="7.5" r="5.5"></circle>
                </g>
                <g transform="translate(257.000000, 104.000000)" id="Oval-1-Copy-7">
                    <circle cx="7.5" cy="7.5" r="5.5"></circle>
                </g>
                <g transform="translate(342.000000, 53.000000)" id="Oval-1-Copy-7">
                    <circle cx="7.5" cy="7.5" r="5.5"></circle>
                </g>
                <g transform="translate(428.000000, 53.000000)" id="Oval-1-Copy-7">
                    <circle cx="7.5" cy="7.5" r="5.5"></circle>
                </g>
                <g transform="translate(513.000000, 0.000000)" id="Oval-1-Copy-7">
                    <circle cx="7.5" cy="7.5" r="5.5"></circle>
                </g>
            </g>
            <g id="Oval-1" transform="translate(37.000000, 107.000000)" fill="#109EA6" stroke="#109EA6" stroke-width="4">
                <circle cx="7.5" cy="7.5" r="5.5"></circle>
            </g>
            <g id="Oval-1" transform="translate(122.000000, 161.000000)" fill="#109EA6" stroke="#109EA6" stroke-width="4">
                <circle cx="7.5" cy="7.5" r="5.5"></circle>
            </g>
            <g id="Oval-1" transform="translate(208.000000, 205.000000)" fill="#109EA6" stroke="#109EA6" stroke-width="4">
                <circle cx="7.5" cy="7.5" r="5.5"></circle>
            </g>
            <g id="Oval-1" transform="translate(293.000000, 141.000000)" fill="#109EA6" stroke="#109EA6" stroke-width="4">
                <circle cx="7.5" cy="7.5" r="5.5"></circle>
            </g>
            <g id="Oval-1" transform="translate(379.000000, 90.000000)" fill="#109EA6" stroke="#109EA6" stroke-width="4">
                <circle cx="7.5" cy="7.5" r="5.5"></circle>
            </g>
            <g id="Oval-1" transform="translate(465.000000, 108.000000)" fill="#109EA6" stroke="#109EA6" stroke-width="4">
                <circle cx="7.5" cy="7.5" r="5.5"></circle>
            </g>
            <g id="Oval-1" transform="translate(551.000000, 141.000000)" fill="#109EA6" stroke="#109EA6" stroke-width="4">
                <circle cx="7.5" cy="7.5" r="5.5"></circle>
            </g>
            <g id="Legends" transform="translate(421.000000, 0.000000)">
                <text id="Entry" font-family="HelveticaNeue, Helvetica Neue" font-size="14" font-weight="normal" fill="#4A4A4A">
                    <tspan x="19" y="13">Entry</tspan>
                </text>
                <text id="Market" font-family="HelveticaNeue, Helvetica Neue" font-size="14" font-weight="normal" fill="#979797">
                    <tspan x="122" y="13">Market</tspan>
                </text>
                <g id="Oval-2" fill="#50A5F5" stroke="#50A5F5" stroke-width="4">
                    <circle id="Oval-1-Copy-7" cx="7.5" cy="7.5" r="5.5"></circle>
                </g>
                <g id="Oval-1" transform="translate(92.000000, 0.000000)" fill="#109EA6" stroke="#109EA6" stroke-width="4">
                    <circle cx="7.5" cy="7.5" r="5.5"></circle>
                </g>
            </g>
        </g>
    </g>
</svg>