<?xml version="1.0" encoding="UTF-8" standalone="no"?>
<svg width="278px" height="278px" viewBox="0 0 278 278" version="1.1" xmlns="http://www.w3.org/2000/svg" xmlns:xlink="http://www.w3.org/1999/xlink">
    <!-- Generator: Sketch 50.2 (55047) - http://www.bohemiancoding.com/sketch -->
    <title>Group 18</title>
    <desc>Created with Sketch.</desc>
    <defs></defs>
    <g id="Page-1" stroke="none" stroke-width="1" fill="none" fill-rule="evenodd">
        <g id="Group-18">
            <g id="if_14_3319630" fill="#FFFFFF" fill-rule="nonzero">
                <circle id="Oval" cx="139" cy="139" r="139"></circle>
            </g>
            <g id="Group-17" transform="translate(31.688312, 64.987013)">
                <g id="if_88_111104" transform="translate(14.265862, 94.260123)" fill="#4A90E2">
                    <path d="M32.9480081,30.1247049 C31.1141348,27.7454176 28.8957613,26.2003527 25.7171949,25.3236977 L22.738953,35.6905512 C22.738953,36.6454772 21.9525541,37.4272321 20.9921689,37.4272321 C20.0320721,37.4272321 19.2456732,36.6454772 19.2456732,35.6905512 L19.2456732,27.4418903 C19.2456732,26.2438366 18.2673126,25.2710391 17.0621931,25.2710391 C15.8571697,25.2710391 14.8789053,26.2438366 14.8789053,27.4418903 L14.8789053,35.6905512 C14.8789053,36.6454772 14.0925064,37.4272321 13.1323135,37.4272321 C12.1718321,37.4272321 11.3854333,36.6454772 11.3854333,35.6905512 L8.4071914,25.3236977 C5.22852885,26.2088583 3.01025149,27.7454176 1.17657039,30.1247049 C0.451595399,31.0624284 0.057675019,32.9465724 0.0319135105,33.954157 C0.0405647634,34.2145827 0.0319135105,34.5185878 0.0319135105,34.8221152 L0.0319135105,36.5587961 L0.0319135105,38.2955726 C0.0319135105,40.2144081 1.59529103,41.7685521 3.52538554,41.7685521 L30.5988085,41.7685521 C32.5288069,41.7685521 34.0924727,40.2144081 34.0924727,38.2955726 L34.0924727,36.5587961 L34.0924727,34.8221152 C34.0924727,34.5185878 34.0839176,34.2145827 34.0924727,33.954157 C34.0660384,32.9465724 33.6725986,31.0623329 32.9480081,30.1247049 Z M7.89205735,9.27717511 C7.89205735,14.3479737 11.0716812,21.797964 17.0621931,21.797964 C22.9486017,21.797964 26.2321366,14.3479737 26.2321366,9.27717511 C26.2321366,4.20656763 22.1274055,0.0906950355 17.0621931,0.0906950355 C11.9969807,0.0906950355 7.89205735,4.20656763 7.89205735,9.27717511 Z" id="Shape"></path>
                </g>
                <path d="M33.5938843,30.8236466 C31.7565744,28.4599786 29.5340438,26.9250565 26.349521,26.0541565 L23.3656981,36.352955 C23.3656981,37.3016122 22.5778256,38.0782351 21.6156407,38.0782351 C20.6537447,38.0782351 19.8658722,37.3016122 19.8658722,36.352955 L19.8658722,28.1584439 C19.8658722,26.968255 18.8856783,26.0018437 17.6783004,26.0018437 C16.4710189,26.0018437 15.4909213,26.968255 15.4909213,28.1584439 L15.4909213,36.352955 C15.4909213,37.3016122 14.7030487,38.0782351 13.7410564,38.0782351 C12.7787753,38.0782351 11.9909027,37.3016122 11.9909027,36.352955 L9.00707985,26.0541565 C5.82246072,26.9335063 3.60002647,28.4599786 1.76290918,30.8236466 C1.03657564,31.7552144 0.641917081,33.6269895 0.616107297,34.6279596 C0.624774762,34.8866757 0.616107297,35.1886852 0.616107297,35.4902199 L0.616107297,37.2155001 L0.616107297,38.9408752 C0.616107297,40.8471142 2.18241447,42.3910558 4.11612584,42.3910558 L31.2402824,42.3910558 C33.1738975,42.3910558 34.7404935,40.8471142 34.7404935,38.9408752 L34.7404935,37.2155001 L34.7404935,35.4902199 C34.7404935,35.1886852 34.7319224,34.8866757 34.7404935,34.6279596 C34.7140096,33.6269895 34.3198326,31.7551194 33.5938843,30.8236466 Z M8.49098048,10.1129742 C8.49098048,15.1504847 11.6765627,22.5515682 17.6783004,22.5515682 C23.5757397,22.5515682 26.8654278,15.1504847 26.8654278,10.1129742 C26.8654278,5.07565365 22.7530047,0.986800434 17.6783004,0.986800434 C12.6035962,0.986800434 8.49098048,5.07565365 8.49098048,10.1129742 Z" id="Shape" fill="#4A90E2"></path>
                <path d="M41.7928667,27.6038217 L70.912343,38.5236253" id="Line-4" stroke="#4A90E2" stroke-width="1.8" stroke-linecap="square"></path>
                <path d="M140.998152,43.0735435 L168.558497,27.8313176" id="Line-4" stroke="#4A90E2" stroke-width="1.8" stroke-linecap="square"></path>
                <path d="M141.398431,84.2503029 L168.958776,102.22248" id="Line-4" stroke="#4A90E2" stroke-width="1.8" stroke-linecap="square"></path>
                <path d="M53.8501499,102.449976 L81.6501499,85.1602865" id="Line-4" stroke="#4A90E2" stroke-width="1.8" stroke-linecap="square"></path>
                <g id="if_88_111104" transform="translate(90.704487, 146.584182)" fill="#4A90E2">
                    <path d="M32.977777,29.8368462 C31.1404671,27.4731782 28.9179365,25.9382561 25.7334137,25.0673561 L22.7495908,35.3661545 C22.7495908,36.3148118 21.9617183,37.0914347 20.9995334,37.0914347 C20.0376374,37.0914347 19.2497649,36.3148118 19.2497649,35.3661545 L19.2497649,27.1716434 C19.2497649,25.9814546 18.269571,25.0150432 17.0621931,25.0150432 C15.8549116,25.0150432 14.874814,25.9814546 14.874814,27.1716434 L14.874814,35.3661545 C14.874814,36.3148118 14.0869414,37.0914347 13.1249491,37.0914347 C12.162668,37.0914347 11.3747954,36.3148118 11.3747954,35.3661545 L8.39097255,25.0673561 C5.20635342,25.9467059 2.98391917,27.4731782 1.14680188,29.8368462 C0.420468342,30.7684139 0.0258097837,32.6401891 0,33.6411592 C0.00866746467,33.8998753 0,34.2018847 0,34.5034195 L0,36.2286997 L0,37.9540748 C0,39.8603138 1.56630717,41.4042553 3.50001854,41.4042553 L30.6241751,41.4042553 C32.5577902,41.4042553 34.1243863,39.8603138 34.1243863,37.9540748 L34.1243863,36.2286997 L34.1243863,34.5034195 C34.1243863,34.2018847 34.1158151,33.8998753 34.1243863,33.6411592 C34.0979023,32.6401891 33.7037253,30.768319 32.977777,29.8368462 Z M7.87487318,9.12617378 C7.87487318,14.1636842 11.0604554,21.5647677 17.0621931,21.5647677 C22.9596324,21.5647677 26.2493205,14.1636842 26.2493205,9.12617378 C26.2493205,4.08885321 22.1368974,0 17.0621931,0 C11.9874889,-1.01190179e-15 7.87487318,4.08885321 7.87487318,9.12617378 Z" id="Shape"></path>
                </g>
                <g id="if_88_111104" transform="translate(176.892703, 98.355049)" fill="#4A90E2">
                    <path d="M32.977777,29.8368462 C31.1404671,27.4731782 28.9179365,25.9382561 25.7334137,25.0673561 L22.7495908,35.3661545 C22.7495908,36.3148118 21.9617183,37.0914347 20.9995334,37.0914347 C20.0376374,37.0914347 19.2497649,36.3148118 19.2497649,35.3661545 L19.2497649,27.1716434 C19.2497649,25.9814546 18.269571,25.0150432 17.0621931,25.0150432 C15.8549116,25.0150432 14.874814,25.9814546 14.874814,27.1716434 L14.874814,35.3661545 C14.874814,36.3148118 14.0869414,37.0914347 13.1249491,37.0914347 C12.162668,37.0914347 11.3747954,36.3148118 11.3747954,35.3661545 L8.39097255,25.0673561 C5.20635342,25.9467059 2.98391917,27.4731782 1.14680188,29.8368462 C0.420468342,30.7684139 0.0258097837,32.6401891 0,33.6411592 C0.00866746467,33.8998753 0,34.2018847 0,34.5034195 L0,36.2286997 L0,37.9540748 C0,39.8603138 1.56630717,41.4042553 3.50001854,41.4042553 L30.6241751,41.4042553 C32.5577902,41.4042553 34.1243863,39.8603138 34.1243863,37.9540748 L34.1243863,36.2286997 L34.1243863,34.5034195 C34.1243863,34.2018847 34.1158151,33.8998753 34.1243863,33.6411592 C34.0979023,32.6401891 33.7037253,30.768319 32.977777,29.8368462 Z M7.87487318,9.12617378 C7.87487318,14.1636842 11.0604554,21.5647677 17.0621931,21.5647677 C22.9596324,21.5647677 26.2493205,14.1636842 26.2493205,9.12617378 C26.2493205,4.08885321 22.1368974,0 17.0621931,0 C11.9874889,-1.01190179e-15 7.87487318,4.08885321 7.87487318,9.12617378 Z" id="Shape"></path>
                </g>
                <g id="if_88_111104" transform="translate(175.242949, 5.081727)" fill="#4A90E2">
                    <path d="M32.977777,29.8368462 C31.1404671,27.4731782 28.9179365,25.9382561 25.7334137,25.0673561 L22.7495908,35.3661545 C22.7495908,36.3148118 21.9617183,37.0914347 20.9995334,37.0914347 C20.0376374,37.0914347 19.2497649,36.3148118 19.2497649,35.3661545 L19.2497649,27.1716434 C19.2497649,25.9814546 18.269571,25.0150432 17.0621931,25.0150432 C15.8549116,25.0150432 14.874814,25.9814546 14.874814,27.1716434 L14.874814,35.3661545 C14.874814,36.3148118 14.0869414,37.0914347 13.1249491,37.0914347 C12.162668,37.0914347 11.3747954,36.3148118 11.3747954,35.3661545 L8.39097255,25.0673561 C5.20635342,25.9467059 2.98391917,27.4731782 1.14680188,29.8368462 C0.420468342,30.7684139 0.0258097837,32.6401891 0,33.6411592 C0.00866746467,33.8998753 0,34.2018847 0,34.5034195 L0,36.2286997 L0,37.9540748 C0,39.8603138 1.56630717,41.4042553 3.50001854,41.4042553 L30.6241751,41.4042553 C32.5577902,41.4042553 34.1243863,39.8603138 34.1243863,37.9540748 L34.1243863,36.2286997 L34.1243863,34.5034195 C34.1243863,34.2018847 34.1158151,33.8998753 34.1243863,33.6411592 C34.0979023,32.6401891 33.7037253,30.768319 32.977777,29.8368462 Z M7.87487318,9.12617378 C7.87487318,14.1636842 11.0604554,21.5647677 17.0621931,21.5647677 C22.9596324,21.5647677 26.2493205,14.1636842 26.2493205,9.12617378 C26.2493205,4.08885321 22.1368974,0 17.0621931,0 C11.9874889,-1.01190179e-15 7.87487318,4.08885321 7.87487318,9.12617378 Z" id="Shape"></path>
                </g>
                <g id="Group-16" transform="translate(82.038961, 25.272727)" fill-rule="nonzero">
                    <g id="if_idea_309059" fill="#F5A623">
                        <path d="M30.6883117,64.987013 L19.8571429,64.987013 C19.8571429,65.3480519 19.8571429,66.4311688 19.8571429,66.7922078 C19.8571429,69.6805195 22.3844156,72.2077922 25.2727273,72.2077922 C28.161039,72.2077922 30.6883117,69.6805195 30.6883117,66.7922078 C30.6883117,66.4311688 30.6883117,65.3480519 30.6883117,64.987013 Z" id="Shape" fill-opacity="0.8"></path>
                        <path d="M50.5454545,25.2771204 C50.5454545,11.1987426 38.9973934,-0.352746922 24.9231939,0.00823712467 C11.5707482,0.369221172 0.383563973,11.1987426 0.0226870621,24.1941683 C-0.338189849,32.8577854 3.63145617,40.7994344 10.1272406,45.492227 C13.0142558,47.6581313 14.4577635,50.9069877 14.4577635,54.1558442 L36.1103781,54.1558442 C36.1103781,50.9069877 37.5538858,47.6581313 40.0800241,45.492227 C46.5758085,41.1604185 50.5454545,33.5797535 50.5454545,25.2771204 Z" id="Shape" fill-opacity="0.802904212"></path>
                        <path d="M36.1038961,57.7662338 L14.4415584,57.7662338 C14.4415584,58.4883117 14.4415584,60.6545455 14.4415584,61.3766234 C14.4415584,67.5142857 19.1350649,68.5974026 25.2727273,68.5974026 C31.4103896,68.5974026 36.1038961,67.5142857 36.1038961,61.3766234 C36.1038961,60.6545455 36.1038961,58.4883117 36.1038961,57.7662338 Z" id="Shape" fill-opacity="0.8"></path>
                    </g>
                    <g id="Group-15" transform="translate(16.688312, 13.771429)">
                        <g id="Group" transform="translate(0.014667, 0.059402)">
                            <path d="M12.0249103,8.40459936 L6.77331656,8.40459936 C6.26509781,8.40459936 5.92628531,8.00438034 5.92628531,7.54698718 C5.92628531,7.03241987 6.32156656,6.689375 6.77331656,6.689375 L12.0249103,6.689375 C12.5331291,6.689375 12.8719416,7.08959402 12.8719416,7.54698718 C12.8719416,8.00438034 12.5331291,8.40459936 12.0249103,8.40459936 Z" id="Shape" fill="#FFFFFF"></path>
                            <path d="M15.0742228,0.285870726 L10.6696603,6.63220085 L8.12856656,6.63220085 L3.78047281,0.285870726 L6.43450406,1.2578312 C7.78975406,1.7723985 9.31441031,1.60087607 10.5567228,0.800438034 C11.5731603,0.171522436 12.7590041,-0.114348291 13.8883791,0.114348291 L15.0742228,0.285870726 Z" id="Shape" fill="#C64444"></path>
                            <path d="M11.9684416,8.40459936 L6.77331656,8.40459936 C3.72400406,10.8630876 0.222941558,16.523328 0.222941558,20.4111699 C0.222941558,25.4996688 4.28869156,27.4435897 9.37087906,27.4435897 C14.3965978,27.4435897 18.5188166,25.4996688 18.5188166,20.4111699 C18.5188166,16.523328 15.0177541,10.8630876 11.9684416,8.40459936 Z" id="Shape" fill="#C64444"></path>
                            <path d="M14.9048166,11.5491774 C16.2600666,13.8361432 17.1635666,16.2946314 17.1635666,18.2957265 C17.1635666,23.4413996 13.0978166,25.3853205 8.01562906,25.3853205 C5.02278531,25.3853205 2.36875406,24.6992308 0.674691558,23.0983547 C1.86053531,26.2429327 5.30512906,27.4435897 9.37087906,27.4435897 C14.3965978,27.4435897 18.5188166,25.4996688 18.5188166,20.4111699 C18.5188166,17.7811592 16.8812228,14.2935363 14.9048166,11.5491774 Z" id="Shape" fill="#231F20" opacity="0.1"></path>
                            <ellipse id="Oval" fill="#FFFFFF" opacity="0.1" cx="7.39447281" cy="15.9515865" rx="4.5175" ry="4.57393162"></ellipse>
                        </g>
                        <g id="if_Indian_Rupee_symbol_1172636" transform="translate(6.570909, 13.068376)" fill="#FDEF34">
                            <path d="M4.06895339,0.838682545 L5.53257876,0.838682545 L6.09407187,0.0110352966 L0.595182695,0.0110352966 L0.0336895865,0.838682545 L0.98822787,0.838682545 C1.95399602,0.838682545 2.8486417,0.912251189 3.204254,1.70679255 L0.595182695,1.70679255 L0.0336895865,2.5344398 L3.30906605,2.5344398 C3.30906605,2.53811823 3.30906605,2.53811823 3.30906605,2.53811823 C3.30906605,3.13402425 2.80372225,4.04627544 1.14170265,4.04627544 L0.336895865,4.04627544 L0.336895865,4.8187462 L3.55986631,8.77673926 L4.99354537,8.77673926 L1.6620196,4.68632264 C3.03580607,4.612754 4.32349693,3.85867539 4.50691801,2.5344398 L5.53257876,2.5344398 L6.09407187,1.70679255 L4.49194486,1.70679255 C4.42830898,1.38676894 4.28980735,1.07778064 4.06895339,0.838682545 Z" id="Shape"></path>
                        </g>
                    </g>
                </g>
                <path d="M108.529201,138.621825 L108.529201,114.279763" id="Line-5" stroke="#4A90E2" stroke-width="1.8" stroke-linecap="square"></path>
            </g>
        </g>
    </g>
</svg>