<?xml version="1.0" encoding="UTF-8"?>
<svg width="17px" height="17px" viewBox="0 0 17 17" version="1.1" xmlns="http://www.w3.org/2000/svg" xmlns:xlink="http://www.w3.org/1999/xlink">
    <!-- Generator: Sketch 52.5 (67469) - http://www.bohemiancoding.com/sketch -->
    <title>Google-color</title>
    <desc>Created with Sketch.</desc>
    <g id="Page-1" stroke="none" stroke-width="1" fill="none" fill-rule="evenodd">
        <g id="iPhone-8" transform="translate(-180.000000, -326.000000)">
            <g id="Google" transform="translate(180.000000, 326.000000)">
                <path d="M3.55454545,8.5 C3.55454545,7.96015556 3.64611364,7.4426 3.80954545,6.95715556 L0.948909091,4.81817778 C0.391386364,5.92657778 0.0772727273,7.17551111 0.0772727273,8.5 C0.0772727273,9.82335556 0.391,11.0715333 0.94775,12.1791778 L3.80684091,10.0360444 C3.64495455,9.55286667 3.55454545,9.0372 3.55454545,8.5" id="Fill-1" fill="#FBBC05"></path>
                <path d="M8.57727273,3.58888889 C9.775,3.58888889 10.8568182,4.00444444 11.7068182,4.68444444 L14.1795455,2.26666667 C12.6727273,0.982222222 10.7409091,0.188888889 8.57727273,0.188888889 C5.21822727,0.188888889 2.33131818,2.06984444 0.948909091,4.81817778 L3.80954545,6.95715556 C4.46868182,4.998 6.34756818,3.58888889 8.57727273,3.58888889" id="Fill-2" fill="#EA4335"></path>
                <path d="M8.57727273,13.4111111 C6.34756818,13.4111111 4.46868182,12.002 3.80954545,10.0428444 L0.948909091,12.1814444 C2.33131818,14.9301556 5.21822727,16.8111111 8.57727273,16.8111111 C10.6505,16.8111111 12.6298409,16.0903111 14.1154091,14.7397556 L11.4000455,12.6842667 C10.6338864,13.1568667 9.66913636,13.4111111 8.57727273,13.4111111" id="Fill-3" fill="#34A853"></path>
                <path d="M16.6909091,8.5 C16.6909091,8.00888889 16.6136364,7.48 16.4977273,6.98888889 L8.57727273,6.98888889 L8.57727273,10.2 L13.1363636,10.2 C12.9084091,11.2948 12.2879091,12.1364889 11.4000455,12.6842667 L14.1154091,14.7397556 C15.6759318,13.3215778 16.6909091,11.2090444 16.6909091,8.5" id="Fill-4" fill="#4285F4"></path>
            </g>
        </g>
    </g>
</svg>