<?xml version="1.0" encoding="UTF-8"?>
<svg width="316px" height="272px" viewBox="0 0 316 272" version="1.1" xmlns="http://www.w3.org/2000/svg" xmlns:xlink="http://www.w3.org/1999/xlink">
    <!-- Generator: Sketch 50.2 (55047) - http://www.bohemiancoding.com/sketch -->
    <title>Group 29</title>
    <desc>Created with Sketch.</desc>
    <defs>
        <filter x="-52.1%" y="-34.9%" width="204.1%" height="169.8%" filterUnits="objectBoundingBox" id="filter-1">
            <feGaussianBlur stdDeviation="10.5036384" in="SourceGraphic"></feGaussianBlur>
        </filter>
        <linearGradient x1="3.175543%" y1="52.1069434%" x2="107.779472%" y2="52.1069407%" id="linearGradient-2">
            <stop stop-color="#00A2A2" offset="0%"></stop>
            <stop stop-color="#5EEDFD" offset="100%"></stop>
        </linearGradient>
        <filter x="-52.1%" y="-34.9%" width="204.1%" height="169.8%" filterUnits="objectBoundingBox" id="filter-3">
            <feGaussianBlur stdDeviation="10.5036384" in="SourceGraphic"></feGaussianBlur>
        </filter>
        <rect id="path-4" x="0" y="0" width="71.136" height="90.288" rx="4.3699392"></rect>
        <filter x="-52.1%" y="-34.9%" width="204.1%" height="169.8%" filterUnits="objectBoundingBox" id="filter-6">
            <feGaussianBlur stdDeviation="10.5036384" in="SourceGraphic"></feGaussianBlur>
        </filter>
        <filter x="-52.0%" y="-34.9%" width="204.0%" height="169.9%" filterUnits="objectBoundingBox" id="filter-7">
            <feGaussianBlur stdDeviation="11.4386213" in="SourceGraphic"></feGaussianBlur>
        </filter>
        <rect id="path-8" x="0" y="0" width="77.44077" height="98.20701" rx="4.75893"></rect>
        <linearGradient x1="50%" y1="0%" x2="50%" y2="100%" id="linearGradient-10">
            <stop stop-color="#FBD249" offset="0%"></stop>
            <stop stop-color="#F5A623" offset="100%"></stop>
        </linearGradient>
    </defs>
    <g id="Page-1" stroke="none" stroke-width="1" fill="none" fill-rule="evenodd">
        <g id="iPhone-8" transform="translate(-12.000000, -62.000000)">
            <g id="Group-29" transform="translate(36.000000, 78.000000)">
                <path d="M35.397,75.8385 L35.397,103.448898 L125.28605,103.448898 L125.28605,117.83927" id="Path-3" stroke="#00A2A2" stroke-width="1.026" stroke-linecap="round" stroke-linejoin="round" stroke-dasharray="3.419999837875366"></path>
                <path d="M136.287,78.66 L136.287,119.400127" id="Path-4" stroke="#00A2A2" stroke-width="1.026" stroke-linecap="round" stroke-linejoin="round" stroke-dasharray="3.419999837875366"></path>
                <path d="M236.833137,76.95 L236.833137,103.511122 L146.205,103.511122 L146.205,119.959689" id="Path-5" stroke="#00A2A2" stroke-width="1.026" stroke-linecap="round" stroke-linejoin="round" stroke-dasharray="3.419999837875366"></path>
                <g id="Group-25" transform="translate(100.462500, 0.000000)">
                    <g id="Group-19">
                        <rect id="shadow" fill="#323C5A" opacity="0.244696553" filter="url(#filter-1)" x="5.472" y="10.26" width="60.534" height="90.288" rx="9.5344128"></rect>
                        <rect id="bg" fill="#FFFFFF" x="0" y="0" width="71.136" height="90.288" rx="4.3699392"></rect>
                        <g id="Group-5-Copy-2" transform="translate(8.892000, 55.806000)" fill="#323C5A">
                            <text id="Medium" font-family="AvenirNext-DemiBold, Avenir Next" font-size="8.55" font-weight="500">
                                <tspan x="0" y="16.866">Medium</tspan>
                            </text>
                            <text id="Risk" font-family="AvenirNext-Medium, Avenir Next" font-size="5.472" font-weight="400">
                                <tspan x="0" y="5">Risk</tspan>
                            </text>
                        </g>
                        <g id="Group-4" transform="translate(9.918000, 32.088000)" fill="#323C5A">
                            <text id="26%" font-family="AvenirNext-DemiBold, Avenir Next" font-size="8.55" font-weight="500">
                                <tspan x="0" y="16.866">26%</tspan>
                            </text>
                            <text id="Return" font-family="AvenirNext-Medium, Avenir Next" font-size="5.472" font-weight="400">
                                <tspan x="0" y="5">Return</tspan>
                            </text>
                        </g>
                        <g id="logo" transform="translate(9.918000, 9.576000)">
                            <rect id="Rectangle-3" fill="url(#linearGradient-2)" x="0" y="2.16068524" width="13.0700904" height="13.0700904" rx="4.06296"></rect>
                            <text id="a" font-family=".SFNSDisplay, .SF NS Display" font-size="12.18888" font-weight="normal" fill="#FFFFFF">
                                <tspan x="2.98711781" y="12.0871746">a</tspan>
                            </text>
                            <text id="Advice" font-family="AvenirNext-Medium, Avenir Next" font-size="8.667648" font-weight="400" letter-spacing="0.180575997" fill="#323C5A">
                                <tspan x="16.2647383" y="13.694976">Advice</tspan>
                            </text>
                        </g>
                        <g id="Group-21" transform="translate(44.118000, 58.140000)">
                            <g id="user-4" transform="translate(4.788000, 2.052000)">
                                <path d="M13.3120253,0.327896907 L13.3120253,6.23004124 L9.41582278,4.48125773 C6.83567089,6.81151175 3.78797468,6.23004124 3.78797468,6.23004124 L3.78797468,3.82546392 C3.78797468,3.82546392 4.46331646,0.327896907 8.55,0.327896907 L13.3120253,0.327896907 L13.3120253,0.327896907 Z" id="Shape" fill="#846954"></path>
                                <path d="M9.19936709,15.8483505 L10.2816456,18.4715258 L8.98291139,20.8761031 L8.11708861,20.8761031 L6.81835443,18.4715258 L7.90063291,15.8483505 L7.92227848,15.7565394 C8.11708861,15.8133748 8.32921519,15.8483505 8.55,15.8483505 C8.77078481,15.8483505 8.98291139,15.8133748 9.17772152,15.7565394 L9.19936709,15.8483505 L9.19936709,15.8483505 Z" id="Shape" fill="#F4661E"></path>
                                <path d="M12.6626582,16.0669485 C12.6626582,16.0669485 12.6366835,19.5251678 9.41582278,20.8761031 L8.98291139,20.8761031 L10.2816456,18.4715258 L9.19936709,15.8483505 L9.17772152,15.7565394 C10.108481,15.4985938 10.714557,14.7553608 10.714557,14.7553608 C11.1864304,15.2887398 12.6626582,16.0669485 12.6626582,16.0669485 L12.6626582,16.0669485 Z" id="Shape" fill="#E7ECED"></path>
                                <path d="M6.81835443,18.4715258 L8.11708861,20.8761031 L7.68417722,20.8761031 C4.46331646,19.5251678 4.43734177,16.0669485 4.43734177,16.0669485 C4.43734177,16.0669485 5.91356962,15.2887398 6.38544304,14.7553608 C6.38544304,14.7553608 6.99151899,15.4985938 7.92227848,15.7565394 L7.90063291,15.8483505 L6.81835443,18.4715258 L6.81835443,18.4715258 Z" id="Shape" fill="#E7ECED"></path>
                                <path d="M12.6626582,16.0669485 L14.6107595,18.6901237 L12.8791139,19.5645155 L13.9613924,20.8761031 L9.41582278,20.8761031 C12.6366835,19.5251678 12.6626582,16.0669485 12.6626582,16.0669485 L12.6626582,16.0669485 Z" id="Shape" fill="#545253"></path>
                                <path d="M7.68417722,20.8761031 L3.13860759,20.8761031 L4.22088608,19.5645155 L2.48924051,18.6901237 L4.43734177,16.0669485 C4.43734177,16.0669485 4.46331646,19.5251678 7.68417722,20.8761031 L7.68417722,20.8761031 Z" id="Shape" fill="#545253"></path>
                                <path d="M16.7753165,19.7831134 L16.7753165,20.8761031 L13.9613924,20.8761031 L12.8791139,19.5645155 L14.6107595,18.6901237 L12.6626582,16.0669485 C16.7623291,17.3785361 16.7753165,19.7831134 16.7753165,19.7831134 L16.7753165,19.7831134 Z" id="Shape" fill="#373738"></path>
                                <path d="M13.3120253,7.32303093 C14.0306582,7.32303093 14.6107595,7.59409237 14.6107595,8.19742268 C14.6107595,8.7570334 13.9267595,9.4040833 13.2557468,9.49589443 C13.2947089,9.21608907 13.3120253,8.92753979 13.3120253,8.63461856 L13.3120253,7.32303093 L13.3120253,7.32303093 Z" id="Shape" fill="#FFD7A3"></path>
                                <path d="M13.2557468,9.49589443 C13.0219747,11.2053303 12.1042025,12.6393328 10.714557,13.3650779 C10.0825063,13.6973468 9.35521519,13.8809691 8.55,13.8809691 C7.74478481,13.8809691 7.01749367,13.6973468 6.38544304,13.3650779 C4.99579747,12.6393328 4.07802532,11.2053303 3.84425316,9.49589443 C3.80529114,9.21608907 3.78797468,8.92753979 3.78797468,8.63461856 L3.78797468,7.32303093 L3.78797468,6.23004124 C3.78797468,6.23004124 6.83567089,6.81151175 9.41582278,4.48125773 L13.3120253,6.23004124 L13.3120253,7.32303093 L13.3120253,8.63461856 C13.3120253,8.92753979 13.2947089,9.21608907 13.2557468,9.49589443 L13.2557468,9.49589443 Z" id="Shape" fill="#FFE1B2"></path>
                                <path d="M10.714557,13.3650779 L10.714557,14.7553608 C10.714557,14.7553608 10.108481,15.4985938 9.17772152,15.7565394 C8.98291139,15.8133748 8.77078481,15.8483505 8.55,15.8483505 C8.32921519,15.8483505 8.11708861,15.8133748 7.92227848,15.7565394 C6.99151899,15.4985938 6.38544304,14.7553608 6.38544304,14.7553608 L6.38544304,13.3650779 C7.01749367,13.6973468 7.74478481,13.8809691 8.55,13.8809691 C9.35521519,13.8809691 10.0825063,13.6973468 10.714557,13.3650779 L10.714557,13.3650779 Z" id="Shape" fill="#FFD7A3"></path>
                                <path d="M4.43734177,16.0669485 L2.48924051,18.6901237 L4.22088608,19.5645155 L3.13860759,20.8761031 L0.324683544,20.8761031 L0.324683544,19.7831134 C0.324683544,19.7831134 0.36364557,17.391652 4.43734177,16.0669485 L4.43734177,16.0669485 Z" id="Shape" fill="#373738"></path>
                                <path d="M3.78797468,8.63461856 C3.78797468,8.92753979 3.80529114,9.21608907 3.84425316,9.49589443 C3.17324051,9.4040833 2.48924051,8.7570334 2.48924051,8.19742268 C2.48924051,7.59409237 3.06934177,7.32303093 3.78797468,7.32303093 L3.78797468,8.63461856 L3.78797468,8.63461856 Z" id="Shape" fill="#FFD7A3"></path>
                                <path d="M12.8608018,15.7872743 L12.3420873,15.5141143 C11.8998251,15.257524 11.331802,14.9005536 11.0391972,14.6216663 L11.0391972,13.5593241 C12.3546418,12.7997837 13.2541451,11.4370441 13.5415982,9.7690107 C14.2868552,9.55347313 14.935443,8.84713947 14.935443,8.19742268 C14.935443,7.53974892 14.4459068,7.10329628 13.6367089,7.01288417 L13.6367089,0 L8.55,0 C6.30847139,0 5.04571215,1.01923475 4.38110658,1.874215 C3.66139139,2.80010843 3.47679797,3.72381588 3.46930861,3.76268259 L3.46329114,3.79376722 L3.46329114,7.01284045 C2.65409316,7.10325256 2.16455696,7.5397052 2.16455696,8.19737896 C2.16455696,8.84709575 2.8131881,9.55342941 3.55835848,9.76892326 C3.84611468,11.4376125 4.74574785,12.8003083 6.06075949,13.5592803 L6.06075949,14.6216226 C5.76819797,14.9005099 5.20017494,15.257524 4.75786937,15.5140705 L4.23867873,15.7878863 C0.0906083544,17.1755898 0.00177493671,19.6712787 4.32911392e-05,19.7776485 L0,21.204 L17.1,21.204 L17.1,19.7813209 C17.0993939,19.6742516 17.0370114,17.1627362 12.8608018,15.7872743 L12.8608018,15.7872743 Z M8.55,14.208866 C9.20278709,14.208866 9.81946937,14.0954136 10.3898734,13.8721814 L10.3898734,14.6291424 C10.2145443,14.8140762 9.73933747,15.2608904 9.0918319,15.4403156 L9.08758937,15.441496 C8.72870582,15.5462482 8.37138076,15.5462482 8.01241063,15.441496 L8.00821139,15.4403156 C7.36555443,15.262202 6.88645139,14.8132893 6.71012658,14.6284866 L6.71012658,13.8721377 C7.28079038,14.0954574 7.89734278,14.208866 8.55,14.208866 L8.55,14.208866 Z M10.7252066,15.2158592 C11.2067339,15.6233258 11.9669696,16.0596036 12.3260696,16.2569975 C12.2644663,16.9446192 11.8863615,19.2975637 9.59028608,20.4363278 L10.6412218,18.4905438 L9.59639013,15.9581304 C10.102377,15.7508121 10.4930362,15.4359436 10.7252066,15.2158592 L10.7252066,15.2158592 Z M7.50360987,15.9580867 L6.45877823,18.4905001 L7.50919443,20.4353222 C6.42107165,19.8977024 5.63213392,19.0351587 5.16324759,17.86531 C4.8867038,17.1752837 4.80064101,16.5573948 4.77397367,16.2569975 C5.13307367,16.0596036 5.89330937,15.6233258 6.37483671,15.2158592 C6.6069638,15.4359436 6.99762304,15.7508121 7.50360987,15.9580867 L7.50360987,15.9580867 Z M4.55145722,18.0866622 C4.95488734,19.1057221 5.5961157,19.9398044 6.4344919,20.5482062 L3.83182861,20.5482062 L4.73276051,19.4563969 L2.98241316,18.5725617 L4.21179494,16.9171633 C4.27543291,17.2486889 4.37993772,17.6533574 4.55145722,18.0866622 L4.55145722,18.0866622 Z M7.17793063,18.4525078 L8.13193747,16.1401788 C8.41016962,16.1871773 8.68978709,16.1871773 8.96801924,16.1401788 L9.92206937,18.4525078 L8.79017924,20.5482062 L8.30982076,20.5482062 L7.17793063,18.4525078 L7.17793063,18.4525078 Z M12.5485428,18.0866622 C12.7200623,17.6533574 12.8245671,17.2486889 12.8882051,16.9171633 L14.1175868,18.5725617 L12.3671962,19.4563969 L13.2681714,20.5482062 L10.6655514,20.5482062 C11.5039276,19.9398044 12.1451559,19.1056784 12.5485428,18.0866622 L12.5485428,18.0866622 Z M14.2860759,8.19742268 C14.2860759,8.46524887 13.9991856,8.82991395 13.6251934,9.03115522 C13.6323365,8.90157036 13.6367089,7.67200068 13.6367089,7.67200068 C14.2153815,7.75393118 14.2860759,8.05612097 14.2860759,8.19742268 L14.2860759,8.19742268 Z M4.90891215,2.25741719 C5.74616278,1.19468145 6.97121544,0.655793814 8.55,0.655793814 L12.9873418,0.655793814 L12.9873418,5.72547348 L9.35586456,4.09551981 L9.19936709,4.23686524 C8.18518557,5.15283432 6.97952734,5.71275108 5.61594304,5.90113878 C4.9551038,5.99242528 4.41522,5.96938506 4.11265823,5.94109848 L4.11265823,3.86144514 C4.14781063,3.71157439 4.34166835,2.97739136 4.90891215,2.25741719 L4.90891215,2.25741719 Z M2.81392405,8.19742268 C2.81392405,8.05612097 2.88461848,7.75393118 3.46329114,7.67200068 C3.46329114,7.67200068 3.46766354,8.90161408 3.47480658,9.03115522 C3.10081443,8.82987024 2.81392405,8.46524887 2.81392405,8.19742268 L2.81392405,8.19742268 Z M4.16577646,9.45025118 C4.13053747,9.19711477 4.11265823,8.92273064 4.11265823,8.63461856 L4.11265823,6.59995267 C4.45664962,6.62876388 5.00839519,6.64445921 5.67724329,6.5544843 C6.67259316,6.4205712 8.12258658,6.01734544 9.47283722,4.86564035 L12.9873418,6.44313051 L12.9873418,8.63461856 C12.9873418,8.92255576 12.9694625,9.19698361 12.934137,9.45103814 C12.7108413,11.0838336 11.8474428,12.4042526 10.564683,13.0742552 C9.96020886,13.3919655 9.28239949,13.5530722 8.55,13.5530722 C7.8176438,13.5530722 7.13979114,13.3919655 6.53458101,13.073818 C5.25255722,12.4042963 4.38920203,11.0838336 4.16577646,9.45025118 L4.16577646,9.45025118 Z M0.649367089,19.7870919 C0.651531646,19.7275458 0.747508101,18.0097158 3.50688532,16.7733258 L1.99606785,18.8076857 L3.70901165,19.672634 L2.98652582,20.5482062 L0.649367089,20.5482062 L0.649367089,19.7870919 L0.649367089,19.7870919 Z M16.4506329,20.5482062 L14.1134742,20.5482062 L13.3909884,19.672634 L15.1038889,18.8076857 L13.5886124,16.7672925 C14.4666,17.1570964 15.3832899,17.7316155 15.9584992,18.5583092 C16.4224937,19.2252077 16.4495939,19.7587616 16.4506329,19.7866547 L16.4506329,20.5482062 L16.4506329,20.5482062 Z" id="Shape" fill="#231F20"></path>
                                <path d="M8.55,10.2741031 L9.41582278,10.2741031 L9.41582278,9.61830928 L8.87468354,9.61830928 L8.87468354,8.19742268 L8.22531646,8.19742268 L8.22531646,9.94620619 C8.22531646,10.1272927 8.3706881,10.2741031 8.55,10.2741031 L8.55,10.2741031 Z" id="Shape" fill="#231F20"></path>
                            </g>
                            <rect id="Rectangle-11" fill-opacity="0.66" fill="#FFFFFF" x="0" y="0" width="25.65" height="27.36"></rect>
                        </g>
                    </g>
                </g>
                <g id="Group-24">
                    <rect id="shadow" fill="#323C5A" opacity="0.244696553" filter="url(#filter-3)" x="2.052" y="10.26" width="60.534" height="90.288" rx="9.5344128"></rect>
                    <mask id="mask-5" fill="white">
                        <use xlink:href="#path-4"></use>
                    </mask>
                    <use id="bg" fill="#FFFFFF" xlink:href="#path-4"></use>
                    <g id="Group-5" mask="url(#mask-5)">
                        <g transform="translate(6.498000, 55.648000)">
                            <text id="Low" font-family="AvenirNext-DemiBold, Avenir Next" font-size="8.55" font-weight="500">
                                <tspan x="0" y="16.866" fill="#323C5A">Low</tspan>
                            </text>
                            <text id="Risk" font-family="AvenirNext-Medium, Avenir Next" font-size="5.472" font-weight="400">
                                <tspan x="0" y="5" fill="#323C5A">Risk</tspan>
                            </text>
                        </g>
                    </g>
                    <g id="Group-4" mask="url(#mask-5)">
                        <g transform="translate(6.498000, 32.088000)">
                            <text id="20.5%" font-family="AvenirNext-DemiBold, Avenir Next" font-size="8.55" font-weight="500">
                                <tspan x="0" y="16.866" fill="#323C5A">20.5%</tspan>
                            </text>
                            <text id="Return" font-family="AvenirNext-Medium, Avenir Next" font-size="5.472" font-weight="400">
                                <tspan x="0" y="5" fill="#323C5A">Return</tspan>
                            </text>
                        </g>
                    </g>
                    <g id="logo" transform="translate(6.498000, 9.576000)">
                        <rect id="Rectangle-3" fill="url(#linearGradient-2)" x="0" y="2.16068524" width="13.0700904" height="13.0700904" rx="4.06296"></rect>
                        <text id="a" font-family=".SFNSDisplay, .SF NS Display" font-size="12.18888" font-weight="normal" fill="#FFFFFF">
                            <tspan x="2.98711781" y="12.0871746">a</tspan>
                        </text>
                        <text id="Advice" font-family="AvenirNext-Medium, Avenir Next" font-size="8.667648" font-weight="400" letter-spacing="0.180575997" fill="#323C5A">
                            <tspan x="16.2647383" y="13.694976">Advice</tspan>
                        </text>
                    </g>
                    <g id="Group-22" transform="translate(45.486000, 58.482000)">
                        <g id="user-8" transform="translate(3.420000, 2.394000)">
                            <path d="M16.7753165,19.7831134 L16.7753165,20.8761031 L14.1778481,20.8761031 L14.1778481,16.7227423 L14.1908354,16.6921386 C16.7666582,18.021214 16.7753165,19.7831134 16.7753165,19.7831134 L16.7753165,19.7831134 Z" id="Shape" fill="#E7ECED"></path>
                            <path d="M2.9221519,16.6965105 L2.9221519,20.8761031 L0.324683544,20.8761031 L0.324683544,19.7831134 C0.324683544,19.7831134 0.354987342,18.0299579 2.9221519,16.6965105 L2.9221519,16.6965105 Z" id="Shape" fill="#E7ECED"></path>
                            <path d="M14.1908354,16.6921386 L14.1778481,16.7227423 L14.1778481,20.8761031 L8.55,20.8761031 L8.55,19.3459175 L11.8487848,15.5991489 C12.2816962,15.8658384 12.6626582,16.0669485 12.6626582,16.0669485 C13.2514177,16.2549427 13.7579241,16.4691687 14.1908354,16.6921386 L14.1908354,16.6921386 Z" id="Shape" fill="#787E82"></path>
                            <path d="M8.55,19.3459175 L8.55,20.8761031 L2.9221519,20.8761031 L2.9221519,16.6965105 C3.35073418,16.4691687 3.85291139,16.2593146 4.43734177,16.0669485 C4.43734177,16.0669485 4.8183038,15.8658384 5.25121519,15.5991489 L8.55,19.3459175 L8.55,19.3459175 Z" id="Shape" fill="#787E82"></path>
                            <path d="M8.55,17.3785361 L10.714557,14.7553608 C10.944,15.0176784 11.4245316,15.3412033 11.8487848,15.5991489 L8.55,19.3459175 L5.25121519,15.5991489 C5.67546835,15.3412033 6.156,15.0176784 6.38544304,14.7553608 L8.55,17.3785361 L8.55,17.3785361 Z" id="Shape" fill="#51565A"></path>
                            <path d="M10.714557,14.5367629 L10.714557,14.7553608 L8.55,17.3785361 L6.38544304,14.7553608 L6.38544304,14.5367629 L6.38544304,13.3650779 C7.01749367,13.6973468 7.74478481,13.8809691 8.55,13.8809691 C9.35521519,13.8809691 10.0825063,13.6973468 10.714557,13.3650779 L10.714557,14.5367629 L10.714557,14.5367629 Z" id="Shape" fill="#FFD7A3"></path>
                            <path d="M3.78797468,8.63461856 C3.78797468,8.92753979 3.80529114,9.21608907 3.84425316,9.49589443 C3.17324051,9.4040833 2.48924051,8.7570334 2.48924051,8.19742268 C2.48924051,7.59409237 3.06934177,7.32303093 3.78797468,7.32303093 L3.78797468,8.63461856 L3.78797468,8.63461856 Z" id="Shape" fill="#FFD7A3"></path>
                            <path d="M13.3120253,7.32303093 C14.0306582,7.32303093 14.6107595,7.59409237 14.6107595,8.19742268 C14.6107595,8.7570334 13.9267595,9.4040833 13.2557468,9.49589443 C13.2947089,9.21608907 13.3120253,8.92753979 13.3120253,8.63461856 L13.3120253,7.32303093 L13.3120253,7.32303093 Z" id="Shape" fill="#FFD7A3"></path>
                            <path d="M3.84425316,9.49589443 C3.80529114,9.21608907 3.78797468,8.92753979 3.78797468,8.63461856 L3.78797468,7.32303093 L3.78797468,6.66723711 L3.78797468,5.35564948 L3.78797468,5.13705155 C3.78797468,5.13705155 3.82693671,4.69985567 5.30316456,4.69985567 C6.77939241,4.69985567 8.55,5.57424742 8.55,5.57424742 C8.55,5.57424742 10.3206076,4.69985567 11.7968354,4.69985567 C13.2730633,4.69985567 13.3120253,5.13705155 13.3120253,5.13705155 L13.3120253,6.66723711 L13.3120253,7.32303093 L13.3120253,8.63461856 C13.3120253,8.92753979 13.2947089,9.21608907 13.2557468,9.49589443 C13.0912405,10.711299 12.5804051,11.7868008 11.7968354,12.5693814 L10.714557,11.9135876 L10.2816456,10.602 L8.55,10.602 L6.81835443,10.602 L6.38544304,11.9135876 L5.30316456,12.5693814 C4.51959494,11.7868008 4.00875949,10.711299 3.84425316,9.49589443 L3.84425316,9.49589443 Z" id="Shape" fill="#FFE1B2"></path>
                            <path d="M13.3120253,1.85808247 L13.3120253,5.13705155 C13.3120253,5.13705155 13.2730633,4.69985567 11.7968354,4.69985567 C10.3206076,4.69985567 8.55,5.57424742 8.55,5.57424742 C8.55,5.57424742 6.77939241,4.69985567 5.30316456,4.69985567 C3.82693671,4.69985567 3.78797468,5.13705155 3.78797468,5.13705155 L3.78797468,1.85808247 C3.78797468,1.85808247 3.80096203,0.327896907 8.55,0.327896907 C13.299038,0.327896907 13.3120253,1.85808247 13.3120253,1.85808247 L13.3120253,1.85808247 Z" id="Shape" fill="#A97C50"></path>
                            <path d="M10.714557,13.3650779 C10.0825063,13.6973468 9.35521519,13.8809691 8.55,13.8809691 C7.74478481,13.8809691 7.01749367,13.6973468 6.38544304,13.3650779 C5.98283544,13.1552239 5.62351899,12.8885344 5.30316456,12.5693814 L6.38544304,11.9135876 L6.81835443,10.602 L8.55,10.602 L10.2816456,10.602 L10.714557,11.9135876 L11.7968354,12.5693814 C11.476481,12.8885344 11.1171646,13.1552239 10.714557,13.3650779 L10.714557,13.3650779 Z" id="Shape" fill="#A97C50"></path>
                            <path d="M14.3383284,16.400048 C13.8650696,16.1563113 13.3438443,15.9421728 12.7886787,15.7633596 C12.6988929,15.7151807 12.3742959,15.5388158 12.0162782,15.3182505 C11.5707691,15.0474077 11.2304142,14.8045891 11.0392838,14.6223658 L11.0392838,13.5595427 C11.3956565,13.3537108 11.7266605,13.0999624 12.0251962,12.802538 C12.8158223,12.0129185 13.3375671,10.9673646 13.5423342,9.7687921 C14.2872015,9.55303593 14.935443,8.84696459 14.935443,8.19742268 C14.935443,7.53974892 14.4459068,7.10329628 13.6367089,7.01288417 L13.6367089,1.85528442 C13.6363625,1.81405685 13.6270982,1.66405494 13.5225934,1.46526198 C13.3957937,1.22406101 13.1815891,1.00568167 12.8859106,0.816157262 C12.0409109,0.27460273 10.5821294,0 8.55,0 C6.51787063,0 5.05908911,0.27460273 4.21413266,0.816113542 C3.91845418,1.00559424 3.70424962,1.22401729 3.57744987,1.46521826 C3.47290177,1.66401122 3.46368076,1.81405685 3.46329114,1.85808247 L3.46329114,7.01288417 C2.65409316,7.10329628 2.16455696,7.53974892 2.16455696,8.19742268 C2.16455696,8.84696459 2.81284177,9.55307965 3.55775241,9.7687921 C3.76277924,10.9679767 4.28448076,12.0131808 5.07515013,12.802844 C5.37359924,13.100181 5.70477646,13.3540169 6.06075949,13.5596301 L6.06075949,14.6224096 C5.86958582,14.8046328 5.52901443,15.0475388 5.08212,15.3192561 C4.72384253,15.5399963 4.39807671,15.716842 4.31010911,15.7640154 C3.72953165,15.9564691 3.21194278,16.1724438 2.77366329,16.4049446 C0.0648934177,17.8119284 0.00142860759,19.6978165 4.32911392e-05,19.7774299 L0,21.204 L17.1,21.204 L17.1,19.7814958 C17.0996104,19.7014015 17.0590899,17.803884 14.3383284,16.400048 L14.3383284,16.400048 Z M12.564777,16.3795872 C13.0226673,16.5257855 13.4549727,16.6971226 13.8531646,16.8895762 L13.8531646,20.5482062 L8.87468354,20.5482062 L8.87468354,19.4706058 L11.9129423,16.019775 C12.2439463,16.2155513 12.564777,16.3795872 12.564777,16.3795872 L12.564777,16.3795872 Z M6.71012658,13.8721377 C7.28079038,14.0954574 7.89734278,14.208866 8.55,14.208866 C9.20283038,14.208866 9.81951266,14.0954136 10.3898734,13.8721814 L10.3898734,14.6366621 L8.55,16.8663611 L6.71012658,14.6366621 L6.71012658,13.8721377 L6.71012658,13.8721377 Z M8.55,10.9298969 L10.0476137,10.9298969 L10.4445068,12.1323604 L11.2513238,12.6212329 C11.036643,12.7958489 10.8071567,12.9478182 10.5646397,13.0742115 C9.96020886,13.3919655 9.2823562,13.5530722 8.55,13.5530722 C7.8176438,13.5530722 7.13979114,13.3919655 6.53436456,13.0737306 C6.29249696,12.9476433 6.0631838,12.7957615 5.84863291,12.6212766 L6.65544987,12.1324042 L7.05238633,10.9298969 L8.55,10.9298969 L8.55,10.9298969 Z M14.2860759,8.19742268 C14.2860759,8.46524887 13.9991856,8.82991395 13.6251934,9.03115522 C13.6323365,8.90157036 13.6367089,7.67200068 13.6367089,7.67200068 C14.2153815,7.75393118 14.2860759,8.05612097 14.2860759,8.19742268 L14.2860759,8.19742268 Z M12.987493,1.85825735 L12.987493,1.88285735 C12.986893,1.87045735 12.987493,1.86275735 12.987493,1.85825735 L12.987493,1.85825735 Z M8.55,0.655793814 C10.799018,0.655793814 11.8987428,1.00738674 12.4252063,1.3023628 C12.9125347,1.57539162 12.9801122,1.8367036 12.9873418,1.87347177 L12.9873418,4.51605852 C12.7166856,4.43036813 12.3352041,4.37200248 11.7968354,4.37200248 C10.4934691,4.37200248 9.01178658,5.00073387 8.55,5.2123804 C8.08821342,5.00073387 6.60653089,4.37200248 5.30316456,4.37200248 C4.76479595,4.37200248 4.38331443,4.43036813 4.11265823,4.51605852 L4.11265823,1.86092425 C4.11274481,1.84885764 4.3829681,0.655793814 8.55,0.655793814 L8.55,0.655793814 Z M2.81392405,8.19742268 C2.81392405,8.05612097 2.88461848,7.75393118 3.46329114,7.67200068 C3.46329114,7.67200068 3.46766354,8.9016578 3.47480658,9.03115522 C3.10081443,8.82987024 2.81392405,8.46524887 2.81392405,8.19742268 L2.81392405,8.19742268 Z M4.16577646,9.45025118 C4.13053747,9.19711477 4.11265823,8.92273064 4.11265823,8.63461856 L4.11265823,5.22864408 C4.18975975,5.17228953 4.46890101,5.02775258 5.30316456,5.02775258 C6.68501772,5.02775258 8.39038557,5.86043584 8.4073557,5.86883 L8.54995671,5.9391311 L8.69247114,5.86887372 C8.70961443,5.86043584 10.4149823,5.02775258 11.7968354,5.02775258 C12.6307527,5.02775258 12.9101104,5.17220209 12.9873418,5.22860036 L12.9873418,8.63461856 C12.9873418,8.92273064 12.9694625,9.19711477 12.9340937,9.45151905 C12.7908433,10.5096642 12.3793177,11.4377874 11.7406868,12.1529524 L10.9846504,11.6948148 L10.5156775,10.2741031 L8.87468354,10.2741031 L8.87468354,8.85321649 L8.22531646,8.85321649 L8.22531646,10.2741031 L6.58432253,10.2741031 L6.11539291,11.6948148 L5.35935646,12.1529087 C4.72063899,11.4375688 4.30915671,10.5094456 4.16577646,9.45025118 L4.16577646,9.45025118 Z M6.35622152,15.2321229 L8.55,17.8907111 L10.7437785,15.2321229 C10.9040423,15.3659486 11.1066015,15.5128027 11.3503306,15.6718108 L8.55,18.8524108 L5.74966937,15.6717671 C5.99348506,15.5126715 6.1960443,15.3658611 6.35622152,15.2321229 L6.35622152,15.2321229 Z M4.53795038,16.3787128 C4.53795038,16.3787128 4.85652987,16.2153327 5.18705772,16.019775 L8.22531646,19.4706058 L8.22531646,20.5482062 L3.24683544,20.5482062 L3.24683544,16.8980141 C3.62368481,16.7114189 4.05681266,16.5370652 4.53795038,16.3787128 L4.53795038,16.3787128 Z M0.649367089,19.7887969 C0.653393165,19.698516 0.744131392,18.4025363 2.59746835,17.256471 L2.59746835,20.5482062 L0.649367089,20.5482062 L0.649367089,19.7887969 L0.649367089,19.7887969 Z M16.4506329,20.5482062 L14.5025316,20.5482062 L14.5025316,17.242437 C16.3832286,18.3933114 16.4485116,19.7098831 16.4506329,19.7862175 L16.4506329,20.5482062 L16.4506329,20.5482062 Z" id="Shape" fill="#231F20"></path>
                        </g>
                        <rect id="Rectangle-10" fill-opacity="0.66" fill="#FFFFFF" x="0" y="0" width="22.572" height="27.018"></rect>
                    </g>
                </g>
                <g id="Group-26" transform="translate(200.070000, 0.000000)">
                    <rect id="shadow" fill="#323C5A" opacity="0.244696553" filter="url(#filter-6)" x="5.472" y="10.26" width="60.534" height="90.288" rx="9.5344128"></rect>
                    <rect id="bg" fill="#FFFFFF" x="0" y="0" width="71.136" height="90.288" rx="4.3699392"></rect>
                    <g id="Group-4" transform="translate(7.998000, 32.088000)" fill="#323C5A">
                        <text id="30%" font-family="AvenirNext-DemiBold, Avenir Next" font-size="8.55" font-weight="500">
                            <tspan x="0" y="16.866">30%</tspan>
                        </text>
                        <text id="Return" font-family="AvenirNext-Medium, Avenir Next" font-size="5.472" font-weight="400">
                            <tspan x="0" y="5">Return</tspan>
                        </text>
                    </g>
                    <g id="Group-5-Copy-3" transform="translate(8.208000, 55.806000)" fill="#323C5A">
                        <text id="High" font-family="AvenirNext-DemiBold, Avenir Next" font-size="8.55" font-weight="500">
                            <tspan x="0" y="16.866">High</tspan>
                        </text>
                        <text id="Risk" font-family="AvenirNext-Medium, Avenir Next" font-size="5.472" font-weight="400">
                            <tspan x="0" y="5">Risk</tspan>
                        </text>
                    </g>
                    <g id="logo" transform="translate(7.998000, 9.576000)">
                        <rect id="Rectangle-3" fill="url(#linearGradient-2)" x="0" y="2.16068524" width="13.0700904" height="13.0700904" rx="4.06296"></rect>
                        <text id="a" font-family=".SFNSDisplay, .SF NS Display" font-size="12.18888" font-weight="normal" fill="#FFFFFF">
                            <tspan x="2.98711781" y="12.0871746">a</tspan>
                        </text>
                        <text id="Advice" font-family="AvenirNext-Medium, Avenir Next" font-size="8.667648" font-weight="400" letter-spacing="0.180575997" fill="#323C5A">
                            <tspan x="16.2647383" y="13.694976">Advice</tspan>
                        </text>
                    </g>
                    <g id="Group-20" transform="translate(42.066000, 53.352000)">
                        <g id="user-7" transform="translate(6.840000, 6.840000)">
                            <path d="M11.8747595,15.6166367 C12.2990127,15.8789542 12.6626582,16.0669485 12.6626582,16.0669485 C16.7623291,17.3785361 16.7753165,19.7831134 16.7753165,19.7831134 L16.7753165,20.8761031 L0.324683544,20.8761031 L0.324683544,19.7831134 C0.324683544,19.7831134 0.36364557,17.391652 4.43734177,16.0669485 C4.43734177,16.0669485 4.80964557,15.8702103 5.24255696,15.6078928 C5.66681013,15.3455753 6.15167089,15.0220503 6.38544304,14.7553608 C6.38544304,14.7553608 7.27724051,17.1599381 8.55,17.1599381 C9.82275949,17.1599381 10.714557,14.7553608 10.714557,14.7553608 C10.9526582,15.0220503 11.4461772,15.3543192 11.8747595,15.6166367 L11.8747595,15.6166367 Z" id="Shape" fill="#AFB6BB"></path>
                            <path d="M6.38544304,13.3650779 C7.01749367,13.6973468 7.74478481,13.8809691 8.55,13.8809691 C9.35521519,13.8809691 10.0825063,13.6973468 10.714557,13.3650779 L10.714557,14.7553608 C10.714557,14.7553608 9.82275949,17.1599381 8.55,17.1599381 C7.27724051,17.1599381 6.38544304,14.7553608 6.38544304,14.7553608 L6.38544304,13.3650779 L6.38544304,13.3650779 Z" id="Shape" fill="#FFE1B2"></path>
                            <path d="M10.714557,13.3650779 C10.0825063,13.6973468 9.35521519,13.8809691 8.55,13.8809691 C7.74478481,13.8809691 7.01749367,13.6973468 6.38544304,13.3650779 C4.76635443,12.5212899 3.78797468,10.7200429 3.78797468,8.63461856 L3.78797468,5.35564948 C3.78797468,5.35564948 5.93521519,5.15453938 7.03481013,4.48125773 L8.55,4.48125773 L10.0651899,4.48125773 C10.8963797,5.13705155 13.3120253,5.35564948 13.3120253,5.35564948 L13.3120253,8.63461856 C13.3120253,10.7200429 12.3336456,12.5212899 10.714557,13.3650779 L10.714557,13.3650779 Z" id="Shape" fill="#FFE1B2"></path>
                            <path d="M14.3943038,5.57424742 L14.3943038,9.72760825 C14.3943038,12.0797221 13.9743797,14.9433551 11.8747595,15.6166367 C11.4461772,15.3543192 10.9526582,15.0220503 10.714557,14.7553608 L10.714557,13.3650779 C12.3336456,12.5212899 13.3120253,10.7200429 13.3120253,8.63461856 L13.3120253,5.35564948 C13.3120253,5.35564948 10.8963797,5.13705155 10.0651899,4.48125773 L8.55,4.48125773 L7.03481013,4.48125773 C5.93521519,5.15453938 3.78797468,5.35564948 3.78797468,5.35564948 L3.78797468,8.63461856 C3.78797468,10.7200429 4.76635443,12.5212899 6.38544304,13.3650779 L6.38544304,14.7553608 C6.15167089,15.0220503 5.66681013,15.3455753 5.24255696,15.6078928 C3.16458228,14.9171233 2.7056962,12.0709781 2.7056962,9.72760825 L2.7056962,5.57424742 C2.7056962,2.67563876 5.03043038,0.327896907 7.90063291,0.327896907 L9.19936709,0.327896907 C12.0695696,0.327896907 14.3943038,2.67563876 14.3943038,5.57424742 L14.3943038,5.57424742 Z" id="Shape" fill="#FFD248"></path>
                            <path d="M12.7875099,15.7629662 C12.7532666,15.74491 12.6823124,15.7070488 12.5875481,15.6545853 C14.0024324,14.8246564 14.7189873,12.8362895 14.7189873,9.72760825 L14.7189873,5.57424742 C14.7189873,2.50058553 12.2429073,0 9.19936709,0 L7.90063291,0 C4.85709266,0 2.38101266,2.50058553 2.38101266,5.57424742 L2.38101266,9.72760825 C2.38101266,12.7689614 3.1229362,14.7923039 4.53526633,15.6405513 C4.42825063,15.7002723 4.34816203,15.7435984 4.31058532,15.7637094 C0.0911711392,17.1464288 0.00173164557,19.6707103 0,19.7777359 L0,21.204 L17.1,21.204 L17.1,19.7813209 C17.0993939,19.6736396 17.0370547,17.1329632 12.7875099,15.7629662 L12.7875099,15.7629662 Z M3.03037975,9.72760825 L3.03037975,5.57424742 C3.03037975,2.86219024 5.21515367,0.655793814 7.90063291,0.655793814 L9.19936709,0.655793814 C11.8848463,0.655793814 14.0696203,2.86219024 14.0696203,5.57424742 L14.0696203,9.72760825 C14.0696203,11.1298703 13.9164562,12.2969647 13.6144139,13.196364 C13.2565694,14.2618978 12.6856025,14.9532794 11.9127691,15.255338 C11.519902,15.0086284 11.2175567,14.7888937 11.0392405,14.6206171 L11.0392405,13.5595427 C11.8107319,13.1141275 12.4531291,12.4488028 12.9045691,11.6240765 C13.3835423,10.7492476 13.6367089,9.71549792 13.6367089,8.63461856 L13.6366656,5.05590799 L13.3410304,5.02906416 C12.6953863,4.9704362 10.8841284,4.71126648 10.2650651,4.22287497 L10.1770109,4.15336082 L6.9440719,4.15336082 L6.86649418,4.20088402 C5.84439038,4.82668619 3.77866709,5.02718422 3.75793063,5.0291516 L3.46329114,5.05691354 L3.46329114,8.63461856 C3.46329114,9.71549792 3.71645772,10.7492476 4.19543089,11.6241202 C4.64691418,12.4488028 5.28931139,13.1141712 6.06075949,13.5595864 L6.06075949,14.6221472 C5.89075519,14.7844781 5.60369165,14.9936326 5.20549975,15.24537 C4.18162101,14.8316515 3.03037975,13.5223373 3.03037975,9.72760825 L3.03037975,9.72760825 Z M10.5646397,13.0742115 C9.96020886,13.3919655 9.2823562,13.5530722 8.55,13.5530722 C7.8176438,13.5530722 7.13979114,13.3919655 6.53536025,13.0742115 L6.53436456,13.0736869 C5.79902127,12.690441 5.18675468,12.0794597 4.76371367,11.3068035 C4.33777215,10.5288134 4.11265823,9.60479993 4.11265823,8.63461856 L4.11265823,5.64843956 C4.73752253,5.568389 6.20383671,5.33383341 7.12277772,4.80915464 L9.96020886,4.80915464 C10.7320466,5.33562591 12.3107878,5.57118705 12.9873418,5.65093158 L12.9873418,8.63461856 C12.9873418,9.60479993 12.7622278,10.5288134 12.3362863,11.3068035 C11.9132886,12.0794597 11.301022,12.6904847 10.5646397,13.0742115 L10.5646397,13.0742115 Z M6.71012658,13.872094 C7.28079038,14.0954136 7.89734278,14.208866 8.55,14.208866 C9.20283038,14.208866 9.81955595,14.0954136 10.3898734,13.8721814 L10.3898734,14.6933227 C10.3284866,14.8473906 10.1320747,15.3151901 9.83630962,15.7805414 C9.53145342,16.2602328 9.06083544,16.8320412 8.55,16.8320412 C8.04150228,16.8320412 7.57278911,16.2649107 7.26914506,15.7891542 C6.97164835,15.323016 6.77211949,14.8483961 6.71012658,14.6931916 L6.71012658,13.872094 L6.71012658,13.872094 Z M16.4506329,20.5482062 L0.649367089,20.5482062 L0.649367089,19.7870919 C0.651791392,19.7208567 0.769413418,17.6041729 4.5368681,16.3790626 C4.5368681,16.3790626 4.97358911,16.1532509 5.41208506,15.8875233 C5.77144481,15.6653403 6.05253418,15.4740234 6.26665215,15.3051346 C6.37431722,15.5365861 6.52648557,15.83471 6.71718304,16.1347575 C7.28780354,17.032583 7.90444253,17.4878351 8.55,17.4878351 C9.19555747,17.4878351 9.81219646,17.032583 10.382817,16.1347575 C10.5739473,15.8340105 10.7264187,15.5351871 10.8341271,15.3034733 C11.0576392,15.4799256 11.348902,15.6781502 11.7052314,15.8962672 C12.1351124,16.1620823 12.5646038,16.3794998 12.5646038,16.3794998 C13.6666663,16.7320545 15.1499939,17.3962425 15.9584559,18.5582654 C16.4224504,19.225164 16.4495506,19.7587179 16.4506329,19.786611 L16.4506329,20.5482062 L16.4506329,20.5482062 Z" id="Shape" fill="#231F20"></path>
                            <path d="M8.87468354,8.19742268 L8.22531646,8.19742268 L8.22531646,9.94620619 C8.22531646,10.1272927 8.3706881,10.2741031 8.55,10.2741031 L9.41582278,10.2741031 L9.41582278,9.61830928 L8.87468354,9.61830928 L8.87468354,8.19742268 L8.87468354,8.19742268 Z" id="Shape" fill="#231F20"></path>
                        </g>
                        <rect id="Rectangle-12" fill-opacity="0.66" fill="#FFFFFF" x="0" y="0" width="26.676" height="35.226"></rect>
                    </g>
                </g>
                <g id="Group-28" transform="translate(97.042500, 117.135000)">
                    <g id="Group-8" transform="translate(0.342000, 0.171000)">
                        <rect id="Rectangle-9-Copy" fill="#323C5A" opacity="0.154501812" filter="url(#filter-7)" x="5.92658954" y="11.24838" width="65.9826969" height="98.20701" rx="10.38312"></rect>
                        <mask id="mask-9" fill="white">
                            <use xlink:href="#path-8"></use>
                        </mask>
                        <use id="bg" fill="#FFFFFF" xlink:href="#path-8"></use>
                        <g id="logo" mask="url(#mask-9)">
                            <g transform="translate(6.906629, 10.856790)">
                                <rect id="Rectangle-3" fill="url(#linearGradient-10)" fill-rule="evenodd" x="0" y="2.58832086" width="15.6568791" height="15.6568791" rx="4.8670875"></rect>
                                <text id="p" fill="none" font-family="AvenirNext-Medium, Avenir Next" font-size="14.6012625" font-weight="400">
                                    <tspan x="3.93590015" y="15.1044279" fill="#FFFFFF">p</tspan>
                                </text>
                                <text id="Portfolio" fill="none" font-family="AvenirNext-Medium, Avenir Next" font-size="10.38312" font-weight="400" letter-spacing="0.216315001">
                                    <tspan x="18.9275625" y="15.19156" fill="#323C5A">Portfolio</tspan>
                                </text>
                            </g>
                        </g>
                        <g id="Group-5-Copy" mask="url(#mask-9)">
                            <g transform="translate(7.182000, 62.146000)">
                                <text id="Low" font-family="AvenirNext-DemiBold, Avenir Next" font-size="8.55" font-weight="500">
                                    <tspan x="0" y="16.866" fill="#323C5A">Low</tspan>
                                </text>
                                <text id="Risk" font-family="AvenirNext-Medium, Avenir Next" font-size="5.472" font-weight="400">
                                    <tspan x="0" y="5" fill="#323C5A">Risk</tspan>
                                </text>
                            </g>
                        </g>
                        <g id="Group-4-Copy-3" mask="url(#mask-9)">
                            <g transform="translate(7.182000, 38.586000)">
                                <text id="26.5%" font-family="AvenirNext-DemiBold, Avenir Next" font-size="8.55" font-weight="500">
                                    <tspan x="0" y="16.866" fill="#323C5A">26.5%</tspan>
                                </text>
                                <text id="Return" font-family="AvenirNext-Medium, Avenir Next" font-size="5.472" font-weight="400">
                                    <tspan x="0" y="5" fill="#323C5A">Return</tspan>
                                </text>
                            </g>
                        </g>
                    </g>
                    <g id="Group-23" transform="translate(48.564000, 64.125000)">
                        <g id="user-19" transform="translate(5.814000, 3.420000)">
                            <path d="M18.422115,21.0216625 L18.422115,22.2022064 L9.397115,22.2022064 L9.397115,16.2994868 C10.793615,16.2994868 11.772115,15.5911604 11.772115,15.5911604 C12.289865,16.1672658 13.909615,17.0078131 13.909615,17.0078131 C18.407865,18.4244658 18.422115,21.0216625 18.422115,21.0216625 L18.422115,21.0216625 Z" id="Shape" fill="#6D6E71"></path>
                            <path d="M9.397115,16.2994868 L9.397115,22.2022064 L0.372115,22.2022064 L0.372115,21.0216625 C0.372115,21.0216625 0.414865,18.4386324 4.884615,17.0078131 C4.884615,17.0078131 6.504365,16.1672658 7.022115,15.5911604 C7.022115,15.5911604 8.000615,16.2994868 9.397115,16.2994868 L9.397115,16.2994868 Z" id="Shape" fill="#58595B"></path>
                            <path d="M7.022115,15.5911604 L7.022115,14.0895085 C7.715615,14.4483939 8.513615,14.6467252 9.397115,14.6467252 C10.280615,14.6467252 11.078615,14.4483939 11.772115,14.0895085 L11.772115,15.5911604 C11.772115,15.5911604 10.793615,16.2994868 9.397115,16.2994868 C8.000615,16.2994868 7.022115,15.5911604 7.022115,15.5911604 L7.022115,15.5911604 Z" id="Shape" fill="#FFD7A3"></path>
                            <path d="M14.622115,6.38291772 C14.622115,6.38291772 12.484615,6.79846918 9.397115,4.73015621 C9.050365,4.4987696 4.172115,6.38291772 4.172115,6.38291772 L4.172115,4.25793864 C4.172115,4.25793864 3.972615,0.716306837 9.397115,0.716306837 C9.397115,0.716306837 12.190115,-0.346182703 14.859615,1.18852441 C17.529115,2.72323152 15.277615,3.92266416 17.709615,5.20237378 C17.709615,5.20237378 17.609865,6.38291772 14.622115,6.38291772 L14.622115,6.38291772 Z" id="Shape" fill="#A18369"></path>
                            <path d="M4.172115,8.98011437 C4.172115,9.29650014 4.191115,9.60816374 4.233865,9.91038299 C3.497615,9.8112173 2.747115,9.11233529 2.747115,8.50789679 C2.747115,7.85623654 3.383615,7.56346165 4.172115,7.56346165 L4.172115,8.98011437 L4.172115,8.98011437 Z" id="Shape" fill="#FFD7A3"></path>
                            <path d="M14.622115,7.56346165 C15.410615,7.56346165 16.047115,7.85623654 16.047115,8.50789679 C16.047115,9.11233529 15.296615,9.8112173 14.560365,9.91038299 C14.603115,9.60816374 14.622115,9.29650014 14.622115,8.98011437 L14.622115,7.56346165 L14.622115,7.56346165 Z" id="Shape" fill="#FFD7A3"></path>
                            <path d="M14.622115,7.56346165 L14.622115,8.98011437 C14.622115,9.29650014 14.603115,9.60816374 14.560365,9.91038299 C14.303865,11.7567537 13.296865,13.3056273 11.772115,14.0895085 C11.078615,14.4483939 10.280615,14.6467252 9.397115,14.6467252 C8.513615,14.6467252 7.715615,14.4483939 7.022115,14.0895085 C5.497365,13.3056273 4.490365,11.7567537 4.233865,9.91038299 C4.191115,9.60816374 4.172115,9.29650014 4.172115,8.98011437 L4.172115,7.56346165 L4.172115,6.38291772 C4.172115,6.38291772 9.050365,4.4987696 9.397115,4.73015621 C12.484615,6.79846918 14.622115,6.38291772 14.622115,6.38291772 L14.622115,7.56346165 L14.622115,7.56346165 Z" id="Shape" fill="#FFE1B2"></path>
                            <path d="M14.0474125,16.6797636 C13.623095,16.457538 12.57838,15.8690132 12.128365,15.4467563 L12.128365,14.2992676 C13.5717,13.478884 14.558655,12.0069818 14.874055,10.2052829 C15.6916725,9.97252682 16.403365,9.20961211 16.403365,8.50784957 C16.403365,7.79744546 15.866235,7.32607787 14.978365,7.22842328 L14.978365,6.73103651 C17.8594775,6.63517634 18.05209,5.38011648 18.06463,5.23198182 L18.0843425,4.99880079 L17.8762925,4.88934075 C16.853,4.35091828 16.8025075,3.90750597 16.73254,3.29381202 C16.65445,2.60838821 16.557265,1.75537438 15.0379775,0.881960762 C12.4481825,-0.60703569 9.79051,0.204611874 9.334415,0.362285322 C7.2684025,0.372438 5.73895,0.884274628 4.788,1.88405367 C3.7971025,2.92586008 3.810545,4.12354551 3.815865,4.26549412 L3.815865,7.22842328 C2.927995,7.32607787 2.390865,7.79749268 2.390865,8.50784957 C2.390865,9.20961211 3.1025575,9.97252682 3.920175,10.2052829 C4.2359075,12.0076429 5.223005,13.4794506 6.665865,14.2992676 L6.665865,15.446709 C6.215565,15.8692021 5.1699475,16.4581991 4.746105,16.6800941 C0.1156625,18.1735294 0.0178125,20.9002081 0.0159125,21.015807 L0.015865,22.5563224 L18.778365,22.5563224 L18.778365,21.0196792 C18.7777475,20.9034192 18.7092525,18.1595046 14.0474125,16.6797636 L14.0474125,16.6797636 Z M9.397115,15.9453236 C8.4361425,15.9453236 7.6826025,15.5734522 7.378365,15.3964651 L7.378365,14.6371392 C8.00451,14.878348 8.681005,15.0008884 9.397115,15.0008884 C10.1133675,15.0008884 10.790005,14.878348 11.415865,14.6372337 L11.415865,15.3973623 C11.1133375,15.57468 10.3653075,15.9453236 9.397115,15.9453236 L9.397115,15.9453236 Z M15.690865,8.50789679 C15.690865,8.79717728 15.3760825,9.19100674 14.96573,9.40841571 C14.9735675,9.26849764 14.978365,7.94038572 14.978365,7.94038572 C15.613345,8.02887929 15.690865,8.35527608 15.690865,8.50789679 L15.690865,8.50789679 Z M5.30575,2.3707211 C6.12636,1.50793238 7.50291,1.07047002 9.3971625,1.07047002 L9.46295,1.07028113 L9.52394,1.04728413 C9.5503975,1.03736756 12.19781,0.0674326695 14.6813475,1.49508806 C15.8897475,2.18986177 15.9522575,2.73834249 16.0246,3.37352234 C16.0949,3.99061627 16.173845,4.68359556 17.24706,5.34687236 C17.0464675,5.58572001 16.4897675,5.97024678 14.9768925,6.02256849 L14.5555675,6.03494059 C14.550485,6.03588502 14.0419025,6.12574803 13.1825325,5.97529951 C12.38629,5.83585366 11.117755,5.45562407 9.5957125,4.4360591 C9.421815,4.31998803 9.1890175,4.30747426 8.3363925,4.55024131 C7.881865,4.67962893 7.27624,4.87659088 6.5363325,5.13560222 C5.764315,5.40585233 5.0028425,5.68908844 4.52846,5.86801167 L4.52846,4.25793864 L4.52789,4.23815272 C4.5272725,4.22823615 4.48153,3.23724035 5.30575,2.3707211 L5.30575,2.3707211 Z M3.103365,8.50789679 C3.103365,8.35527608 3.1809325,8.02887929 3.815865,7.94038572 C3.815865,7.94038572 3.8206625,9.26849764 3.8285,9.40841571 C3.4181475,9.19095951 3.103365,8.79717728 3.103365,8.50789679 L3.103365,8.50789679 Z M4.5866475,9.86108347 C4.5479825,9.5876695 4.528365,9.29130575 4.528365,8.98011437 L4.528365,6.62568477 C6.5596075,5.84798965 8.78389,5.08701103 9.2592225,5.06462792 C11.63636,6.63895408 13.472805,6.79421922 14.265865,6.76966391 L14.265865,8.98011437 C14.265865,9.29130575 14.2462475,9.5876695 14.2074875,9.86193346 C13.9624825,11.6255244 13.01519,13.0517632 11.60767,13.7753894 C10.944475,14.1185971 10.20072,14.2925621 9.3971625,14.2925621 C8.593605,14.2925621 7.84985,14.1185499 7.1858,13.7749172 C5.7790875,13.0517159 4.831795,11.6254772 4.5866475,9.86108347 L4.5866475,9.86108347 Z M0.728365,21.0259597 C0.731025,20.9544187 0.8600825,18.6681773 4.9938175,17.3449292 C4.9938175,17.3449292 6.4170125,16.6047754 7.069805,16.0381143 C7.427385,16.2400818 8.1329975,16.567423 9.0409125,16.638964 L9.0409125,21.8480432 L0.7284125,21.8480432 L0.728365,21.0259597 L0.728365,21.0259597 L0.728365,21.0259597 Z M18.065865,21.8480432 L9.753365,21.8480432 L9.753365,16.638964 C10.6612325,16.567423 11.3668925,16.2400818 11.7244725,16.0381143 C12.377265,16.6047754 13.8020275,17.3454487 13.8020275,17.3454487 C15.011235,17.7262449 16.638775,18.4436851 17.5258375,19.6987922 C18.0349425,20.4191129 18.0646775,20.9954072 18.065865,21.0255347 L18.065865,21.8480432 L18.065865,21.8480432 Z" id="Shape" fill="#231F20"></path>
                            <path d="M9.397115,11.2231478 L10.347115,11.2231478 L10.347115,10.5148215 L9.753365,10.5148215 L9.753365,8.98011437 L9.040865,8.98011437 L9.040865,10.8689847 C9.040865,11.0645772 9.20037,11.2231478 9.397115,11.2231478 L9.397115,11.2231478 Z" id="Shape" fill="#231F20"></path>
                            <rect id="Rectangle-path" fill="#231F20" x="10.347115" y="17.5980851" width="1" height="1"></rect>
                            <rect id="Rectangle-path" fill="#231F20" x="10.347115" y="19.0147378" width="1" height="1"></rect>
                            <rect id="Rectangle-path" fill="#231F20" x="10.347115" y="20.4313905" width="1" height="1"></rect>
                            <rect id="Rectangle-path" fill="#231F20" x="7.497115" y="17.5980851" width="1" height="1"></rect>
                            <rect id="Rectangle-path" fill="#231F20" x="7.497115" y="19.0147378" width="1" height="1"></rect>
                            <rect id="Rectangle-path" fill="#231F20" x="7.497115" y="20.4313905" width="1" height="1"></rect>
                        </g>
                        <rect id="Rectangle-13" fill-opacity="0.66" fill="#FFFFFF" x="0" y="0" width="28.728" height="30.438"></rect>
                    </g>
                </g>
            </g>
        </g>
    </g>
</svg>