<?xml version="1.0" encoding="UTF-8"?>
<?xml-stylesheet href="../css/home.css" type="text/css"?>
<svg width="635px" height="544px" viewBox="0 0 635 544" version="1.1" xmlns="http://www.w3.org/2000/svg" xmlns:xlink="http://www.w3.org/1999/xlink">
    <!-- Generator: Sketch 50.2 (55047) - http://www.bohemiancoding.com/sketch -->
    <title>Group 29</title>
    <desc>Created with Sketch.</desc>
    <style>
        @import url('https://fonts.googleapis.com/css?family=Lato:400,700|Montserrat:400,500,600');
        .advice {
            font-family: 'Montserrat', sans-serif;
            font-weight: 500;
        }
        .return {
            font-family: 'Lato', sans-serif;
            font-weight: 400;
        }
        .return-value {
            font-family: 'Lato', sans-serif;
            font-weight: 700;
        }
    </style>
    <defs>
        <filter x="-52.1%" y="-34.9%" width="204.1%" height="169.8%" filterUnits="objectBoundingBox" id="filter-1">
            <feGaussianBlur stdDeviation="21.0072767" in="SourceGraphic"></feGaussianBlur>
        </filter>
        <linearGradient x1="3.175543%" y1="52.1069434%" x2="107.779472%" y2="52.1069407%" id="linearGradient-2">
            <stop stop-color="#00A2A2" offset="0%"></stop>
            <stop stop-color="#5EEDFD" offset="100%"></stop>
        </linearGradient>
        <filter x="-52.1%" y="-34.9%" width="204.1%" height="169.8%" filterUnits="objectBoundingBox" id="filter-3">
            <feGaussianBlur stdDeviation="21.0072767" in="SourceGraphic"></feGaussianBlur>
        </filter>
        <rect id="path-4" x="0" y="0" width="142.272" height="180.576" rx="8.7398784"></rect>
        <filter x="-52.1%" y="-34.9%" width="204.1%" height="169.8%" filterUnits="objectBoundingBox" id="filter-6">
            <feGaussianBlur stdDeviation="21.0072767" in="SourceGraphic"></feGaussianBlur>
        </filter>
        <filter x="-52.0%" y="-34.9%" width="204.0%" height="169.9%" filterUnits="objectBoundingBox" id="filter-7">
            <feGaussianBlur stdDeviation="22.8772426" in="SourceGraphic"></feGaussianBlur>
        </filter>
        <rect id="path-8" x="0" y="0" width="154.88154" height="196.41402" rx="9.51786"></rect>
        <linearGradient x1="50%" y1="0%" x2="50%" y2="100%" id="linearGradient-10">
            <stop stop-color="#FBD249" offset="0%"></stop>
            <stop stop-color="#F5A623" offset="100%"></stop>
        </linearGradient>
    </defs>
    <g id="Page-1" stroke="none" stroke-width="1" fill="none" fill-rule="evenodd">
        <g id="Group-29" transform="translate(49.000000, 33.000000)">
            <path d="M70.794,151.677 L70.794,206.897796 L250.5721,206.897796 L250.5721,235.67854" id="Path-3" stroke="#00A2A2" stroke-width="2.052" stroke-linecap="round" stroke-linejoin="round" stroke-dasharray="6.839999818801879"></path>
            <path d="M272.574,157.32 L272.574,238.800255" id="Path-4" stroke="#00A2A2" stroke-width="2.052" stroke-linecap="round" stroke-linejoin="round" stroke-dasharray="6.839999818801879"></path>
            <path d="M473.666273,153.9 L473.666273,207.022244 L292.41,207.022244 L292.41,239.919378" id="Path-5" stroke="#00A2A2" stroke-width="2.052" stroke-linecap="round" stroke-linejoin="round" stroke-dasharray="6.839999818801879"></path>
            <g id="Group-25" transform="translate(200.925000, 0.000000)">
                <g id="Group-19">
                    <rect id="shadow" fill="#323C5A" opacity="0.244696553" filter="url(#filter-1)" x="10.944" y="20.52" width="121.068" height="180.576" rx="19.0688256"></rect>
                    <rect id="bg" fill="#FFFFFF" x="0" y="0" width="142.272" height="180.576" rx="8.7398784"></rect>
                    <g id="Group-5-Copy-2" transform="translate(17.784000, 111.612000)" fill="#323C5A">
                        <text class="return-value" id="Medium" font-family="AvenirNext-DemiBold, Avenir Next" font-size="17.1" font-weight="500">
                            <tspan x="0" y="32.732">Medium</tspan>
                        </text>
                        <text class="return" id="Risk" font-family="AvenirNext-Medium, Avenir Next" font-size="10.944" font-weight="400">
                            <tspan x="0" y="11">Risk</tspan>
                        </text>
                    </g>
                    <g id="Group-4" transform="translate(19.836000, 64.176000)" fill="#323C5A">
                        <text class="return-value" id="26%" font-family="AvenirNext-DemiBold, Avenir Next" font-size="17.1" font-weight="500">
                            <tspan x="0" y="32.732">26%</tspan>
                        </text>
                        <text class="return" id="Return" font-family="AvenirNext-Medium, Avenir Next" font-size="10.944" font-weight="400">
                            <tspan x="0" y="11">Return</tspan>
                        </text>
                    </g>
                    <g id="logo" transform="translate(19.836000, 19.152000)">
                        <rect id="Rectangle-3" fill="url(#linearGradient-2)" x="0" y="4.32137048" width="26.1401808" height="26.1401808" rx="8.12592"></rect>
                        <text  class="return" id="a" font-family=".SFNSDisplay, .SF NS Display" font-size="24.37776" font-weight="normal" fill="#FFFFFF">
                            <tspan x="5.97423563" y="24.1743492">a</tspan>
                        </text>
                        <text class="advice" id="Advice" font-family="AvenirNext-Medium, Avenir Next" font-size="17.335296" font-weight="400" letter-spacing="0.361152004" fill="#323C5A">
                            <tspan x="32.5294766" y="26.389952">Advice</tspan>
                        </text>
                    </g>
                    <g id="Group-21" transform="translate(88.236000, 116.280000)">
                        <g id="user-4" transform="translate(9.576000, 4.104000)">
                            <path d="M26.6240506,0.655793814 L26.6240506,12.4600825 L18.8316456,8.96251546 C13.6713418,13.6230235 7.57594937,12.4600825 7.57594937,12.4600825 L7.57594937,7.65092784 C7.57594937,7.65092784 8.92663291,0.655793814 17.1,0.655793814 L26.6240506,0.655793814 L26.6240506,0.655793814 Z" id="Shape" fill="#846954"></path>
                            <path d="M18.3987342,31.696701 L20.5632911,36.9430515 L17.9658228,41.7522062 L16.2341772,41.7522062 L13.6367089,36.9430515 L15.8012658,31.696701 L15.844557,31.5130788 C16.2341772,31.6267497 16.6584304,31.696701 17.1,31.696701 C17.5415696,31.696701 17.9658228,31.6267497 18.355443,31.5130788 L18.3987342,31.696701 L18.3987342,31.696701 Z" id="Shape" fill="#F4661E"></path>
                            <path d="M25.3253165,32.1338969 C25.3253165,32.1338969 25.2733671,39.0503357 18.8316456,41.7522062 L17.9658228,41.7522062 L20.5632911,36.9430515 L18.3987342,31.696701 L18.355443,31.5130788 C20.216962,30.9971876 21.4291139,29.5107216 21.4291139,29.5107216 C22.3728608,30.5774796 25.3253165,32.1338969 25.3253165,32.1338969 L25.3253165,32.1338969 Z" id="Shape" fill="#E7ECED"></path>
                            <path d="M13.6367089,36.9430515 L16.2341772,41.7522062 L15.3683544,41.7522062 C8.92663291,39.0503357 8.87468354,32.1338969 8.87468354,32.1338969 C8.87468354,32.1338969 11.8271392,30.5774796 12.7708861,29.5107216 C12.7708861,29.5107216 13.983038,30.9971876 15.844557,31.5130788 L15.8012658,31.696701 L13.6367089,36.9430515 L13.6367089,36.9430515 Z" id="Shape" fill="#E7ECED"></path>
                            <path d="M25.3253165,32.1338969 L29.221519,37.3802474 L25.7582278,39.1290309 L27.9227848,41.7522062 L18.8316456,41.7522062 C25.2733671,39.0503357 25.3253165,32.1338969 25.3253165,32.1338969 L25.3253165,32.1338969 Z" id="Shape" fill="#545253"></path>
                            <path d="M15.3683544,41.7522062 L6.27721519,41.7522062 L8.44177215,39.1290309 L4.97848101,37.3802474 L8.87468354,32.1338969 C8.87468354,32.1338969 8.92663291,39.0503357 15.3683544,41.7522062 L15.3683544,41.7522062 Z" id="Shape" fill="#545253"></path>
                            <path d="M33.5506329,39.5662268 L33.5506329,41.7522062 L27.9227848,41.7522062 L25.7582278,39.1290309 L29.221519,37.3802474 L25.3253165,32.1338969 C33.5246582,34.7570722 33.5506329,39.5662268 33.5506329,39.5662268 L33.5506329,39.5662268 Z" id="Shape" fill="#373738"></path>
                            <path d="M26.6240506,14.6460619 C28.0613165,14.6460619 29.221519,15.1881847 29.221519,16.3948454 C29.221519,17.5140668 27.853519,18.8081666 26.5114937,18.9917889 C26.5894177,18.4321781 26.6240506,17.8550796 26.6240506,17.2692371 L26.6240506,14.6460619 L26.6240506,14.6460619 Z" id="Shape" fill="#FFD7A3"></path>
                            <path d="M26.5114937,18.9917889 C26.0439494,22.4106606 24.2084051,25.2786656 21.4291139,26.7301559 C20.1650127,27.3946936 18.7104304,27.7619381 17.1,27.7619381 C15.4895696,27.7619381 14.0349873,27.3946936 12.7708861,26.7301559 C9.99159494,25.2786656 8.15605063,22.4106606 7.68850633,18.9917889 C7.61058228,18.4321781 7.57594937,17.8550796 7.57594937,17.2692371 L7.57594937,14.6460619 L7.57594937,12.4600825 C7.57594937,12.4600825 13.6713418,13.6230235 18.8316456,8.96251546 L26.6240506,12.4600825 L26.6240506,14.6460619 L26.6240506,17.2692371 C26.6240506,17.8550796 26.5894177,18.4321781 26.5114937,18.9917889 L26.5114937,18.9917889 Z" id="Shape" fill="#FFE1B2"></path>
                            <path d="M21.4291139,26.7301559 L21.4291139,29.5107216 C21.4291139,29.5107216 20.216962,30.9971876 18.355443,31.5130788 C17.9658228,31.6267497 17.5415696,31.696701 17.1,31.696701 C16.6584304,31.696701 16.2341772,31.6267497 15.844557,31.5130788 C13.983038,30.9971876 12.7708861,29.5107216 12.7708861,29.5107216 L12.7708861,26.7301559 C14.0349873,27.3946936 15.4895696,27.7619381 17.1,27.7619381 C18.7104304,27.7619381 20.1650127,27.3946936 21.4291139,26.7301559 L21.4291139,26.7301559 Z" id="Shape" fill="#FFD7A3"></path>
                            <path d="M8.87468354,32.1338969 L4.97848101,37.3802474 L8.44177215,39.1290309 L6.27721519,41.7522062 L0.649367089,41.7522062 L0.649367089,39.5662268 C0.649367089,39.5662268 0.727291139,34.7833039 8.87468354,32.1338969 L8.87468354,32.1338969 Z" id="Shape" fill="#373738"></path>
                            <path d="M7.57594937,17.2692371 C7.57594937,17.8550796 7.61058228,18.4321781 7.68850633,18.9917889 C6.34648101,18.8081666 4.97848101,17.5140668 4.97848101,16.3948454 C4.97848101,15.1881847 6.13868354,14.6460619 7.57594937,14.6460619 L7.57594937,17.2692371 L7.57594937,17.2692371 Z" id="Shape" fill="#FFD7A3"></path>
                            <path d="M25.7216035,31.5745485 L24.6841747,31.0282285 C23.7996501,30.515048 22.6636041,29.8011072 22.0783944,29.2433327 L22.0783944,27.1186481 C24.7092835,25.5995673 26.5082901,22.8740882 27.0831965,19.5380214 C28.5737104,19.1069463 29.8708861,17.6942789 29.8708861,16.3948454 C29.8708861,15.0794978 28.8918137,14.2065926 27.2734177,14.0257683 L27.2734177,0 L17.1,0 C12.6169428,0 10.0914243,2.03846949 8.76221316,3.74843 C7.32278278,5.60021686 6.95359595,7.44763175 6.93861722,7.52536518 L6.92658228,7.58753443 L6.92658228,14.0256809 C5.30818633,14.2065051 4.32911392,15.0794104 4.32911392,16.3947579 C4.32911392,17.6941915 5.6263762,19.1068588 7.11671696,19.5378465 C7.69222937,22.875225 9.4914957,25.6006166 12.121519,27.1185607 L12.121519,29.2432452 C11.5363959,29.8010197 10.4003499,30.515048 9.51573873,31.0281411 L8.47735747,31.5757727 C0.181216709,34.3511795 0.00354987342,39.3425574 8.65822785e-05,39.5552969 L0,42.408 L34.2,42.408 L34.2,39.5626418 C34.1987878,39.3485033 34.0740228,34.3254724 25.7216035,31.5745485 L25.7216035,31.5745485 Z M17.1,28.417732 C18.4055742,28.417732 19.6389387,28.1908273 20.7797468,27.7443629 L20.7797468,29.2582848 C20.4290886,29.6281525 19.4786749,30.5217808 18.1836638,30.8806312 L18.1751787,30.8829921 C17.4574116,31.0924963 16.7427615,31.0924963 16.0248213,30.8829921 L16.0164228,30.8806312 C14.7311089,30.524404 13.7729028,29.6265786 13.4202532,29.2569732 L13.4202532,27.7442754 C14.5615808,28.1909147 15.7946856,28.417732 17.1,28.417732 L17.1,28.417732 Z M21.4504132,30.4317185 C22.4134678,31.2466516 23.9339392,32.1192071 24.6521392,32.513995 C24.5289327,33.8892384 23.772723,38.5951273 19.1805722,40.8726555 L21.2824435,36.9810876 L19.1927803,31.9162608 C20.2047539,31.5016242 20.9860724,30.8718873 21.4504132,30.4317185 L21.4504132,30.4317185 Z M15.0072197,31.9161734 L12.9175565,36.9810001 L15.0183889,40.8706444 C12.8421433,39.7954049 11.2642678,38.0703174 10.3264952,35.7306199 C9.77340759,34.3505674 9.60128203,33.1147896 9.54794734,32.513995 C10.2661473,32.1192071 11.7866187,31.2466516 12.7496734,30.4317185 C13.2139276,30.8718873 13.9952461,31.5016242 15.0072197,31.9161734 L15.0072197,31.9161734 Z M9.10291443,36.1733245 C9.90977468,38.2114442 11.1922314,39.8796088 12.8689838,41.0964124 L7.66365722,41.0964124 L9.46552101,38.9127938 L5.96482633,37.1451235 L8.42358987,33.8343265 C8.55086582,34.4973778 8.75987544,35.3067148 9.10291443,36.1733245 L9.10291443,36.1733245 Z M14.3558613,36.9050155 L16.2638749,32.2803575 C16.8203392,32.3743546 17.3795742,32.3743546 17.9360385,32.2803575 L19.8441387,36.9050155 L17.5803585,41.0964124 L16.6196415,41.0964124 L14.3558613,36.9050155 L14.3558613,36.9050155 Z M25.0970856,36.1733245 C25.4401246,35.3067148 25.6491342,34.4973778 25.7764101,33.8343265 L28.2351737,37.1451235 L24.7343924,38.9127938 L26.5363428,41.0964124 L21.3311028,41.0964124 C23.0078552,39.8796088 24.2903119,38.2113568 25.0970856,36.1733245 L25.0970856,36.1733245 Z M28.5721519,16.3948454 C28.5721519,16.9304977 27.9983711,17.6598279 27.2503868,18.0623104 C27.2646729,17.8031407 27.2734177,15.3440014 27.2734177,15.3440014 C28.430763,15.5078624 28.5721519,16.1122419 28.5721519,16.3948454 L28.5721519,16.3948454 Z M9.8178243,4.51483438 C11.4923256,2.3893629 13.9424309,1.31158763 17.1,1.31158763 L25.9746835,1.31158763 L25.9746835,11.450947 L18.7117291,8.19103962 L18.3987342,8.47373047 C16.3703711,10.3056686 13.9590547,11.4255022 11.2318861,11.8022776 C9.91020759,11.9848506 8.83044,11.9387701 8.22531646,11.882197 L8.22531646,7.72289028 C8.29562127,7.42314878 8.68333671,5.95478271 9.8178243,4.51483438 L9.8178243,4.51483438 Z M5.6278481,16.3948454 C5.6278481,16.1122419 5.76923696,15.5078624 6.92658228,15.3440014 C6.92658228,15.3440014 6.93532709,17.8032282 6.94961316,18.0623104 C6.20162886,17.6597405 5.6278481,16.9304977 5.6278481,16.3948454 L5.6278481,16.3948454 Z M8.33155291,18.9005024 C8.26107494,18.3942295 8.22531646,17.8454613 8.22531646,17.2692371 L8.22531646,13.1999053 C8.91329924,13.2575278 10.0167904,13.2889184 11.3544866,13.1089686 C13.3451863,12.8411424 16.2451732,12.0346909 18.9456744,9.73128069 L25.9746835,12.886261 L25.9746835,17.2692371 C25.9746835,17.8451115 25.9389251,18.3939672 25.8682739,18.9020763 C25.4216825,22.1676672 23.6948856,24.8085051 21.1293661,26.1485105 C19.9204177,26.783931 18.564799,27.1061443 17.1,27.1061443 C15.6352876,27.1061443 14.2795823,26.783931 13.069162,26.1476361 C10.5051144,24.8085926 8.77840405,22.1676672 8.33155291,18.9005024 L8.33155291,18.9005024 Z M1.29873418,39.5741838 C1.30306329,39.4550916 1.4950162,36.0194315 7.01377063,33.5466517 L3.9921357,37.6153714 L7.41802329,39.345268 L5.97305165,41.0964124 L1.29873418,41.0964124 L1.29873418,39.5741838 L1.29873418,39.5741838 Z M32.9012658,41.0964124 L28.2269484,41.0964124 L26.7819767,39.345268 L30.2077777,37.6153714 L27.1772248,33.5345851 C28.9332,34.3141927 30.7665797,35.4632309 31.9169985,37.1166183 C32.8449873,38.4504155 32.8991878,39.5175232 32.9012658,39.5733094 L32.9012658,41.0964124 L32.9012658,41.0964124 Z" id="Shape" fill="#231F20"></path>
                            <path d="M17.1,20.5482062 L18.8316456,20.5482062 L18.8316456,19.2366186 L17.7493671,19.2366186 L17.7493671,16.3948454 L16.4506329,16.3948454 L16.4506329,19.8924124 C16.4506329,20.2545854 16.7413762,20.5482062 17.1,20.5482062 L17.1,20.5482062 Z" id="Shape" fill="#231F20"></path>
                        </g>
                        <rect id="Rectangle-11" fill-opacity="0.66" fill="#FFFFFF" x="0" y="0" width="51.3" height="54.72"></rect>
                    </g>
                </g>
            </g>
            <g id="Group-24">
                <rect id="shadow" fill="#323C5A" opacity="0.244696553" filter="url(#filter-3)" x="4.104" y="20.52" width="121.068" height="180.576" rx="19.0688256"></rect>
                <mask id="mask-5" fill="white">
                    <use xlink:href="#path-4"></use>
                </mask>
                <use id="bg" fill="#FFFFFF" xlink:href="#path-4"></use>
                <g id="Group-5" mask="url(#mask-5)">
                    <g transform="translate(12.996000, 111.296000)">
                        <text class="return-value" id="Low" font-family="AvenirNext-DemiBold, Avenir Next" font-size="17.1" font-weight="500">
                            <tspan x="0" y="32.732" fill="#323C5A">Low</tspan>
                        </text>
                        <text class="return" id="Risk" font-family="AvenirNext-Medium, Avenir Next" font-size="10.944" font-weight="400">
                            <tspan x="0" y="11" fill="#323C5A">Risk</tspan>
                        </text>
                    </g>
                </g>
                <g id="Group-4" mask="url(#mask-5)">
                    <g transform="translate(12.996000, 64.176000)">
                        <text class="return-value" id="20.5%" font-family="AvenirNext-DemiBold, Avenir Next" font-size="17.1" font-weight="500">
                            <tspan x="0" y="32.732" fill="#323C5A">20.5%</tspan>
                        </text>
                        <text class="return" id="Return" font-family="AvenirNext-Medium, Avenir Next" font-size="10.944" font-weight="400">
                            <tspan x="0" y="11" fill="#323C5A">Return</tspan>
                        </text>
                    </g>
                </g>
                <g id="logo" transform="translate(12.996000, 19.152000)">
                    <rect id="Rectangle-3" fill="url(#linearGradient-2)" x="0" y="4.32137048" width="26.1401808" height="26.1401808" rx="8.12592"></rect>
                    <text class="return" id="a" font-family=".SFNSDisplay, .SF NS Display" font-size="24.37776" font-weight="normal" fill="#FFFFFF">
                        <tspan x="5.97423563" y="24.1743492">a</tspan>
                    </text>
                    <text id="Advice" class="advice" font-family="AvenirNext-Medium, Avenir Next" font-size="17.335296" font-weight="400" letter-spacing="0.361152004" fill="#323C5A">
                        <tspan x="32.5294766" y="26.389952">Advice</tspan>
                    </text>
                </g>
                <g id="Group-22" transform="translate(90.972000, 116.964000)">
                    <g id="user-8" transform="translate(6.840000, 4.788000)">
                        <path d="M33.5506329,39.5662268 L33.5506329,41.7522062 L28.3556962,41.7522062 L28.3556962,33.4454845 L28.3816709,33.3842771 C33.5333165,36.042428 33.5506329,39.5662268 33.5506329,39.5662268 L33.5506329,39.5662268 Z" id="Shape" fill="#E7ECED"></path>
                        <path d="M5.8443038,33.393021 L5.8443038,41.7522062 L0.649367089,41.7522062 L0.649367089,39.5662268 C0.649367089,39.5662268 0.709974684,36.0599159 5.8443038,33.393021 L5.8443038,33.393021 Z" id="Shape" fill="#E7ECED"></path>
                        <path d="M28.3816709,33.3842771 L28.3556962,33.4454845 L28.3556962,41.7522062 L17.1,41.7522062 L17.1,38.6918351 L23.6975696,31.1982977 C24.5633924,31.7316767 25.3253165,32.1338969 25.3253165,32.1338969 C26.5028354,32.5098854 27.5158481,32.9383373 28.3816709,33.3842771 L28.3816709,33.3842771 Z" id="Shape" fill="#787E82"></path>
                        <path d="M17.1,38.6918351 L17.1,41.7522062 L5.8443038,41.7522062 L5.8443038,33.393021 C6.70146835,32.9383373 7.70582278,32.5186293 8.87468354,32.1338969 C8.87468354,32.1338969 9.63660759,31.7316767 10.5024304,31.1982977 L17.1,38.6918351 L17.1,38.6918351 Z" id="Shape" fill="#787E82"></path>
                        <path d="M17.1,34.7570722 L21.4291139,29.5107216 C21.888,30.0353567 22.8490633,30.6824066 23.6975696,31.1982977 L17.1,38.6918351 L10.5024304,31.1982977 C11.3509367,30.6824066 12.312,30.0353567 12.7708861,29.5107216 L17.1,34.7570722 L17.1,34.7570722 Z" id="Shape" fill="#51565A"></path>
                        <path d="M21.4291139,29.0735258 L21.4291139,29.5107216 L17.1,34.7570722 L12.7708861,29.5107216 L12.7708861,29.0735258 L12.7708861,26.7301559 C14.0349873,27.3946936 15.4895696,27.7619381 17.1,27.7619381 C18.7104304,27.7619381 20.1650127,27.3946936 21.4291139,26.7301559 L21.4291139,29.0735258 L21.4291139,29.0735258 Z" id="Shape" fill="#FFD7A3"></path>
                        <path d="M7.57594937,17.2692371 C7.57594937,17.8550796 7.61058228,18.4321781 7.68850633,18.9917889 C6.34648101,18.8081666 4.97848101,17.5140668 4.97848101,16.3948454 C4.97848101,15.1881847 6.13868354,14.6460619 7.57594937,14.6460619 L7.57594937,17.2692371 L7.57594937,17.2692371 Z" id="Shape" fill="#FFD7A3"></path>
                        <path d="M26.6240506,14.6460619 C28.0613165,14.6460619 29.221519,15.1881847 29.221519,16.3948454 C29.221519,17.5140668 27.853519,18.8081666 26.5114937,18.9917889 C26.5894177,18.4321781 26.6240506,17.8550796 26.6240506,17.2692371 L26.6240506,14.6460619 L26.6240506,14.6460619 Z" id="Shape" fill="#FFD7A3"></path>
                        <path d="M7.68850633,18.9917889 C7.61058228,18.4321781 7.57594937,17.8550796 7.57594937,17.2692371 L7.57594937,14.6460619 L7.57594937,13.3344742 L7.57594937,10.711299 L7.57594937,10.2741031 C7.57594937,10.2741031 7.65387342,9.39971134 10.6063291,9.39971134 C13.5587848,9.39971134 17.1,11.1484948 17.1,11.1484948 C17.1,11.1484948 20.6412152,9.39971134 23.5936709,9.39971134 C26.5461266,9.39971134 26.6240506,10.2741031 26.6240506,10.2741031 L26.6240506,13.3344742 L26.6240506,14.6460619 L26.6240506,17.2692371 C26.6240506,17.8550796 26.5894177,18.4321781 26.5114937,18.9917889 C26.182481,21.4225979 25.1608101,23.5736016 23.5936709,25.1387629 L21.4291139,23.8271753 L20.5632911,21.204 L17.1,21.204 L13.6367089,21.204 L12.7708861,23.8271753 L10.6063291,25.1387629 C9.03918987,23.5736016 8.01751899,21.4225979 7.68850633,18.9917889 L7.68850633,18.9917889 Z" id="Shape" fill="#FFE1B2"></path>
                        <path d="M26.6240506,3.71616495 L26.6240506,10.2741031 C26.6240506,10.2741031 26.5461266,9.39971134 23.5936709,9.39971134 C20.6412152,9.39971134 17.1,11.1484948 17.1,11.1484948 C17.1,11.1484948 13.5587848,9.39971134 10.6063291,9.39971134 C7.65387342,9.39971134 7.57594937,10.2741031 7.57594937,10.2741031 L7.57594937,3.71616495 C7.57594937,3.71616495 7.60192405,0.655793814 17.1,0.655793814 C26.5980759,0.655793814 26.6240506,3.71616495 26.6240506,3.71616495 L26.6240506,3.71616495 Z" id="Shape" fill="#A97C50"></path>
                        <path d="M21.4291139,26.7301559 C20.1650127,27.3946936 18.7104304,27.7619381 17.1,27.7619381 C15.4895696,27.7619381 14.0349873,27.3946936 12.7708861,26.7301559 C11.9656709,26.3104478 11.247038,25.7770689 10.6063291,25.1387629 L12.7708861,23.8271753 L13.6367089,21.204 L17.1,21.204 L20.5632911,21.204 L21.4291139,23.8271753 L23.5936709,25.1387629 C22.952962,25.7770689 22.2343291,26.3104478 21.4291139,26.7301559 L21.4291139,26.7301559 Z" id="Shape" fill="#A97C50"></path>
                        <path d="M28.6766567,32.800096 C27.7301392,32.3126226 26.6876886,31.8843455 25.5773575,31.5267193 C25.3977858,31.4303613 24.7485919,31.0776317 24.0325565,30.636501 C23.1415382,30.0948153 22.4608284,29.6091782 22.0785676,29.2447317 L22.0785676,27.1190853 C22.7913129,26.7074217 23.453321,26.1999247 24.0503924,25.605076 C25.6316446,24.0258371 26.6751342,21.9347292 27.0846684,19.5375842 C28.574403,19.1060719 29.8708861,17.6939292 29.8708861,16.3948454 C29.8708861,15.0794978 28.8918137,14.2065926 27.2734177,14.0257683 L27.2734177,3.71056884 C27.2727251,3.6281137 27.2541965,3.32810989 27.0451868,2.93052396 C26.7915873,2.44812203 26.3631782,2.01136335 25.7718213,1.63231452 C24.0818218,0.54920546 21.1642587,0 17.1,0 C13.0357413,0 10.1181782,0.54920546 8.42826532,1.63222708 C7.83690835,2.01118847 7.40849924,2.44803459 7.15489975,2.93043652 C6.94580354,3.32802245 6.92736152,3.6281137 6.92658228,3.71616495 L6.92658228,14.0257683 C5.30818633,14.2065926 4.32911392,15.0794978 4.32911392,16.3948454 C4.32911392,17.6939292 5.62568354,19.1061593 7.11550481,19.5375842 C7.52555848,21.9359533 8.56896152,24.0263617 10.1503003,25.6056881 C10.7471985,26.2003619 11.4095529,26.7080338 12.121519,27.1192602 L12.121519,29.2448191 C11.7391716,29.6092656 11.0580289,30.0950777 10.16424,30.6385121 C9.44768506,31.0799925 8.79615342,31.433684 8.62021823,31.5280309 C7.45906329,31.9129381 6.42388557,32.3448876 5.54732658,32.8098892 C0.129786835,35.6238567 0.00285721519,39.395633 8.65822785e-05,39.5548597 L0,42.408 L34.2,42.408 L34.2,39.5629916 C34.1992208,39.402803 34.1181797,35.6077679 28.6766567,32.800096 L28.6766567,32.800096 Z M25.1295539,32.7591744 C26.0453347,33.0515711 26.9099453,33.3942452 27.7063291,33.7791524 L27.7063291,41.0964124 L17.7493671,41.0964124 L17.7493671,38.9412116 L23.8258846,32.03955 C24.4878927,32.4311027 25.1295539,32.7591744 25.1295539,32.7591744 L25.1295539,32.7591744 Z M13.4202532,27.7442754 C14.5615808,28.1909147 15.7946856,28.417732 17.1,28.417732 C18.4056608,28.417732 19.6390253,28.1908273 20.7797468,27.7443629 L20.7797468,29.2733243 L17.1,33.7327222 L13.4202532,29.2733243 L13.4202532,27.7442754 L13.4202532,27.7442754 Z M17.1,21.8597938 L20.0952273,21.8597938 L20.8890137,24.2647209 L22.5026476,25.2424657 C22.0732861,25.5916978 21.6143134,25.8956364 21.1292795,26.148423 C19.9204177,26.783931 18.5647124,27.1061443 17.1,27.1061443 C15.6352876,27.1061443 14.2795823,26.783931 13.0687291,26.1474612 C12.5849939,25.8952866 12.1263676,25.5915229 11.6972658,25.2425532 L13.3108997,24.2648083 L14.1047727,21.8597938 L17.1,21.8597938 L17.1,21.8597938 Z M28.5721519,16.3948454 C28.5721519,16.9304977 27.9983711,17.6598279 27.2503868,18.0623104 C27.2646729,17.8031407 27.2734177,15.3440014 27.2734177,15.3440014 C28.430763,15.5078624 28.5721519,16.1122419 28.5721519,16.3948454 L28.5721519,16.3948454 Z M25.9747193,3.71651471 L25.9747193,3.74111471 C25.9741193,3.72871471 25.9747193,3.72101471 25.9747193,3.71651471 L25.9747193,3.71651471 Z M17.1,1.31158763 C21.5980359,1.31158763 23.7974856,2.01477348 24.8504127,2.60472559 C25.8250694,3.15078324 25.9602243,3.67340719 25.9746835,3.74694354 L25.9746835,9.03211705 C25.4333711,8.86073626 24.6704081,8.74400496 23.5936709,8.74400496 C20.9869382,8.74400496 18.0235732,10.0014677 17.1,10.4247608 C16.1764268,10.0014677 13.2130618,8.74400496 10.6063291,8.74400496 C9.5295919,8.74400496 8.76662886,8.86073626 8.22531646,9.03211705 L8.22531646,3.72184849 C8.22548962,3.69771528 8.7659362,1.31158763 17.1,1.31158763 L17.1,1.31158763 Z M5.6278481,16.3948454 C5.6278481,16.1122419 5.76923696,15.5078624 6.92658228,15.3440014 C6.92658228,15.3440014 6.93532709,17.8033156 6.94961316,18.0623104 C6.20162886,17.6597405 5.6278481,16.9304977 5.6278481,16.3948454 L5.6278481,16.3948454 Z M8.33155291,18.9005024 C8.26107494,18.3942295 8.22531646,17.8454613 8.22531646,17.2692371 L8.22531646,10.4572882 C8.37951949,10.3445791 8.93780203,10.0555052 10.6063291,10.0555052 C13.3700354,10.0555052 16.7807711,11.7208717 16.8147114,11.73766 L17.0999134,11.8782622 L17.3849423,11.7377474 C17.4192289,11.7208717 20.8299646,10.0555052 23.5936709,10.0555052 C25.2615053,10.0555052 25.8202208,10.3444042 25.9746835,10.4572007 L25.9746835,17.2692371 C25.9746835,17.8454613 25.9389251,18.3942295 25.8681873,18.9030381 C25.5816866,21.0193285 24.7586354,22.8755747 23.4813737,24.3059047 L21.9693008,23.3896296 L21.0313549,20.5482062 L17.7493671,20.5482062 L17.7493671,17.706433 L16.4506329,17.706433 L16.4506329,20.5482062 L13.1686451,20.5482062 L12.2307858,23.3896296 L10.7187129,24.3058173 C9.44127797,22.8751375 8.61831342,21.0188913 8.33155291,18.9005024 L8.33155291,18.9005024 Z M12.712443,30.4642459 L17.1,35.7814221 L21.487557,30.4642459 C21.8080846,30.7318972 22.213203,31.0256054 22.7006613,31.3436216 L17.1,37.7048216 L11.4993387,31.3435342 C11.9869701,31.025343 12.3920886,30.7317223 12.712443,30.4642459 L12.712443,30.4642459 Z M9.07590076,32.7574257 C9.07590076,32.7574257 9.71305975,32.4306655 10.3741154,32.03955 L16.4506329,38.9412116 L16.4506329,41.0964124 L6.49367089,41.0964124 L6.49367089,33.7960282 C7.24736962,33.4228378 8.11362532,33.0741304 9.07590076,32.7574257 L9.07590076,32.7574257 Z M1.29873418,39.5775939 C1.30678633,39.397032 1.48826278,36.8050725 5.19493671,34.512942 L5.19493671,41.0964124 L1.29873418,41.0964124 L1.29873418,39.5775939 L1.29873418,39.5775939 Z M32.9012658,41.0964124 L29.0050633,41.0964124 L29.0050633,34.484874 C32.7664572,36.7866229 32.8970233,39.4197662 32.9012658,39.572435 L32.9012658,41.0964124 L32.9012658,41.0964124 Z" id="Shape" fill="#231F20"></path>
                    </g>
                    <rect id="Rectangle-10" fill-opacity="0.66" fill="#FFFFFF" x="0" y="0" width="45.144" height="54.036"></rect>
                </g>
            </g>
            <g id="Group-26" transform="translate(400.140000, 0.000000)">
                <rect id="shadow" fill="#323C5A" opacity="0.244696553" filter="url(#filter-6)" x="10.944" y="20.52" width="121.068" height="180.576" rx="19.0688256"></rect>
                <rect id="bg" fill="#FFFFFF" x="0" y="0" width="142.272" height="180.576" rx="8.7398784"></rect>
                <g id="Group-4" transform="translate(15.996000, 64.176000)" fill="#323C5A">
                    <text class="return-value" id="30%" font-family="AvenirNext-DemiBold, Avenir Next" font-size="17.1" font-weight="500">
                        <tspan x="0" y="32.732">30%</tspan>
                    </text>
                    <text class="return" id="Return" font-family="AvenirNext-Medium, Avenir Next" font-size="10.944" font-weight="400">
                        <tspan x="0" y="11">Return</tspan>
                    </text>
                </g>
                <g id="Group-5-Copy-3" transform="translate(16.416000, 111.612000)" fill="#323C5A">
                    <text id="High" font-family="AvenirNext-DemiBold, Avenir Next" font-size="17.1" font-weight="500">
                        <tspan x="0" y="32.732">High</tspan>
                    </text>
                    <text class="return" id="Risk" font-family="AvenirNext-Medium, Avenir Next" font-size="10.944" font-weight="400">
                        <tspan x="0" y="11">Risk</tspan>
                    </text>
                </g>
                <g id="logo" transform="translate(15.996000, 19.152000)">
                    <rect id="Rectangle-3" fill="url(#linearGradient-2)" x="0" y="4.32137048" width="26.1401808" height="26.1401808" rx="8.12592"></rect>
                    <text class="return" id="a" font-family=".SFNSDisplay, .SF NS Display" font-size="24.37776" font-weight="normal" fill="#FFFFFF">
                        <tspan x="5.97423563" y="24.1743492">a</tspan>
                    </text>
                    <text id="Advice" class="advice" font-family="AvenirNext-Medium, Avenir Next" font-size="17.335296" font-weight="400" letter-spacing="0.361152004" fill="#323C5A">
                        <tspan x="32.5294766" y="26.389952">Advice</tspan>
                    </text>
                </g>
                <g id="Group-20" transform="translate(84.132000, 106.704000)">
                    <g id="user-7" transform="translate(13.680000, 13.680000)">
                        <path d="M23.749519,31.2332734 C24.5980253,31.7579085 25.3253165,32.1338969 25.3253165,32.1338969 C33.5246582,34.7570722 33.5506329,39.5662268 33.5506329,39.5662268 L33.5506329,41.7522062 L0.649367089,41.7522062 L0.649367089,39.5662268 C0.649367089,39.5662268 0.727291139,34.7833039 8.87468354,32.1338969 C8.87468354,32.1338969 9.61929114,31.7404206 10.4851139,31.2157856 C11.3336203,30.6911505 12.3033418,30.0441006 12.7708861,29.5107216 C12.7708861,29.5107216 14.554481,34.3198763 17.1,34.3198763 C19.645519,34.3198763 21.4291139,29.5107216 21.4291139,29.5107216 C21.9053165,30.0441006 22.8923544,30.7086384 23.749519,31.2332734 L23.749519,31.2332734 Z" id="Shape" fill="#AFB6BB"></path>
                        <path d="M12.7708861,26.7301559 C14.0349873,27.3946936 15.4895696,27.7619381 17.1,27.7619381 C18.7104304,27.7619381 20.1650127,27.3946936 21.4291139,26.7301559 L21.4291139,29.5107216 C21.4291139,29.5107216 19.645519,34.3198763 17.1,34.3198763 C14.554481,34.3198763 12.7708861,29.5107216 12.7708861,29.5107216 L12.7708861,26.7301559 L12.7708861,26.7301559 Z" id="Shape" fill="#FFE1B2"></path>
                        <path d="M21.4291139,26.7301559 C20.1650127,27.3946936 18.7104304,27.7619381 17.1,27.7619381 C15.4895696,27.7619381 14.0349873,27.3946936 12.7708861,26.7301559 C9.53270886,25.0425798 7.57594937,21.4400858 7.57594937,17.2692371 L7.57594937,10.711299 C7.57594937,10.711299 11.8704304,10.3090788 14.0696203,8.96251546 L17.1,8.96251546 L20.1303797,8.96251546 C21.7927595,10.2741031 26.6240506,10.711299 26.6240506,10.711299 L26.6240506,17.2692371 C26.6240506,21.4400858 24.6672911,25.0425798 21.4291139,26.7301559 L21.4291139,26.7301559 Z" id="Shape" fill="#FFE1B2"></path>
                        <path d="M28.7886076,11.1484948 L28.7886076,19.4552165 C28.7886076,24.1594441 27.9487595,29.8867101 23.749519,31.2332734 C22.8923544,30.7086384 21.9053165,30.0441006 21.4291139,29.5107216 L21.4291139,26.7301559 C24.6672911,25.0425798 26.6240506,21.4400858 26.6240506,17.2692371 L26.6240506,10.711299 C26.6240506,10.711299 21.7927595,10.2741031 20.1303797,8.96251546 L17.1,8.96251546 L14.0696203,8.96251546 C11.8704304,10.3090788 7.57594937,10.711299 7.57594937,10.711299 L7.57594937,17.2692371 C7.57594937,21.4400858 9.53270886,25.0425798 12.7708861,26.7301559 L12.7708861,29.5107216 C12.3033418,30.0441006 11.3336203,30.6911505 10.4851139,31.2157856 C6.32916456,29.8342466 5.41139241,24.1419563 5.41139241,19.4552165 L5.41139241,11.1484948 C5.41139241,5.35127753 10.0608608,0.655793814 15.8012658,0.655793814 L18.3987342,0.655793814 C24.1391392,0.655793814 28.7886076,5.35127753 28.7886076,11.1484948 L28.7886076,11.1484948 Z" id="Shape" fill="#FFD248"></path>
                        <path d="M25.5750197,31.5259323 C25.5065332,31.4898199 25.3646248,31.4140976 25.1750962,31.3091706 C28.0048648,29.6493127 29.4379747,25.6725791 29.4379747,19.4552165 L29.4379747,11.1484948 C29.4379747,5.00117107 24.4858147,0 18.3987342,0 L15.8012658,0 C9.71418532,0 4.76202532,5.00117107 4.76202532,11.1484948 L4.76202532,19.4552165 C4.76202532,25.5379227 6.24587241,29.5846078 9.07053266,31.2811026 C8.85650127,31.4005445 8.69632405,31.4871968 8.62117063,31.5274188 C0.182342278,34.2928576 0.00346329114,39.3414207 0,39.5554718 L0,42.408 L34.2,42.408 L34.2,39.5626418 C34.1987878,39.3472791 34.0741094,34.2659263 25.5750197,31.5259323 L25.5750197,31.5259323 Z M6.06075949,19.4552165 L6.06075949,11.1484948 C6.06075949,5.72438049 10.4303073,1.31158763 15.8012658,1.31158763 L18.3987342,1.31158763 C23.7696927,1.31158763 28.1392405,5.72438049 28.1392405,11.1484948 L28.1392405,19.4552165 C28.1392405,22.2597406 27.8329124,24.5939294 27.2288278,26.3927281 C26.5131387,28.5237957 25.3712051,29.9065588 23.8255382,30.5106761 C23.0398041,30.0172568 22.4351134,29.5777875 22.078481,29.2412341 L22.078481,27.1190853 C23.6214638,26.228255 24.9062582,24.8976056 25.8091382,23.248153 C26.7670846,21.4984951 27.2734177,19.4309958 27.2734177,17.2692371 L27.2733311,10.111816 L26.6820608,10.0581283 C25.3907727,9.9408724 21.7682567,9.42253296 20.5301301,8.44574994 L20.3540218,8.30672165 L13.8881438,8.30672165 L13.7329884,8.40176803 C11.6887808,9.65337239 7.55733418,10.0543684 7.51586127,10.0583032 L6.92658228,10.1138271 L6.92658228,17.2692371 C6.92658228,19.4309958 7.43291544,21.4984951 8.39086177,23.2482405 C9.29382835,24.8976056 10.5786228,26.2283424 12.121519,27.1191728 L12.121519,29.2442945 C11.7815104,29.5689561 11.2073833,29.9872652 10.4109995,30.4907399 C8.36324203,29.663303 6.06075949,27.0446746 6.06075949,19.4552165 L6.06075949,19.4552165 Z M21.1292795,26.148423 C19.9204177,26.783931 18.5647124,27.1061443 17.1,27.1061443 C15.6352876,27.1061443 14.2795823,26.783931 13.0707205,26.148423 L13.0687291,26.1473738 C11.5980425,25.380882 10.3735094,24.1589195 9.52742734,22.6136069 C8.6755443,21.0576268 8.22531646,19.2095999 8.22531646,17.2692371 L8.22531646,11.2968791 C9.47504506,11.136778 12.4076734,10.6676668 14.2455554,9.61830928 L19.9204177,9.61830928 C21.4640932,10.6712518 24.6215757,11.1423741 25.9746835,11.3018632 L25.9746835,17.2692371 C25.9746835,19.2095999 25.5244557,21.0576268 24.6725727,22.6136069 C23.8265772,24.1589195 22.6020441,25.3809694 21.1292795,26.148423 L21.1292795,26.148423 Z M13.4202532,27.744188 C14.5615808,28.1908273 15.7946856,28.417732 17.1,28.417732 C18.4056608,28.417732 19.6391119,28.1908273 20.7797468,27.7443629 L20.7797468,29.3866455 C20.6569732,29.6947811 20.2641494,30.6303803 19.6726192,31.5610829 C19.0629068,32.5204655 18.1216709,33.6640825 17.1,33.6640825 C16.0830046,33.6640825 15.1455782,32.5298215 14.5382901,31.5783084 C13.9432967,30.6460319 13.544239,29.6967922 13.4202532,29.3863831 L13.4202532,27.744188 L13.4202532,27.744188 Z M32.9012658,41.0964124 L1.29873418,41.0964124 L1.29873418,39.5741838 C1.30358278,39.4417134 1.53882684,35.2083457 9.0737362,32.7581252 C9.0737362,32.7581252 9.94717823,32.3065018 10.8241701,31.7750465 C11.5428896,31.3306806 12.1050684,30.9480468 12.5333043,30.6102693 C12.7486344,31.0731723 13.0529711,31.66942 13.4343661,32.2695151 C14.5756071,34.065166 15.8088851,34.9756701 17.1,34.9756701 C18.3911149,34.9756701 19.6243929,34.065166 20.7656339,32.2695151 C21.1478947,31.668021 21.4528375,31.0703742 21.6682542,30.6069466 C22.1152785,30.9598511 22.6978041,31.3563003 23.4104628,31.7925344 C24.2702248,32.3241646 25.1292076,32.7589996 25.1292076,32.7589996 C27.3333327,33.4641091 30.2999878,34.792485 31.9169119,37.1165309 C32.8449008,38.450328 32.8991013,39.5174357 32.9012658,39.5732219 L32.9012658,41.0964124 L32.9012658,41.0964124 Z" id="Shape" fill="#231F20"></path>
                        <path d="M17.7493671,16.3948454 L16.4506329,16.3948454 L16.4506329,19.8924124 C16.4506329,20.2545854 16.7413762,20.5482062 17.1,20.5482062 L18.8316456,20.5482062 L18.8316456,19.2366186 L17.7493671,19.2366186 L17.7493671,16.3948454 L17.7493671,16.3948454 Z" id="Shape" fill="#231F20"></path>
                    </g>
                    <rect id="Rectangle-12" fill-opacity="0.66" fill="#FFFFFF" x="0" y="0" width="53.352" height="70.452"></rect>
                </g>
            </g>
            <g id="Group-28" transform="translate(194.085000, 234.270000)">
                <g id="Group-8" transform="translate(0.684000, 0.342000)">
                    <rect id="Rectangle-9-Copy" fill="#323C5A" opacity="0.154501812" filter="url(#filter-7)" x="11.8531791" y="22.49676" width="131.965394" height="196.41402" rx="20.76624"></rect>
                    <mask id="mask-9" fill="white">
                        <use xlink:href="#path-8"></use>
                    </mask>
                    <use id="bg" fill="#FFFFFF" xlink:href="#path-8"></use>
                    <g id="logo" mask="url(#mask-9)">
                        <g transform="translate(13.813258, 21.713580)">
                            <rect id="Rectangle-3" fill="url(#linearGradient-10)" fill-rule="evenodd" x="0" y="5.17664172" width="31.3137582" height="31.3137582" rx="9.734175"></rect>
                            <text class="return" id="p" fill="none" font-family="AvenirNext-Medium, Avenir Next" font-size="29.202525" font-weight="400">
                                <tspan x="7.8718003" y="29.2088559" fill="#FFFFFF">p</tspan>
                            </text>
                            <text id="Portfolio" fill="none" font-family="AvenirNext-Medium, Avenir Next" font-size="20.76624" font-weight="400" letter-spacing="0.432629991">
                                <tspan x="37.855125" y="31.38312" fill="#323C5A">Portfolio</tspan>
                            </text>
                        </g>
                    </g>
                    <g id="Group-5-Copy" mask="url(#mask-9)">
                        <g transform="translate(14.364000, 124.292000)">
                            <text id="Low" font-family="AvenirNext-DemiBold, Avenir Next" font-size="17.1" font-weight="500">
                                <tspan x="0" y="32.732" fill="#323C5A">Low</tspan>
                            </text>
                            <text class="return" id="Risk" font-family="AvenirNext-Medium, Avenir Next" font-size="10.944" font-weight="400">
                                <tspan x="0" y="11" fill="#323C5A">Risk</tspan>
                            </text>
                        </g>
                    </g>
                    <g id="Group-4-Copy-3" mask="url(#mask-9)">
                        <g transform="translate(14.364000, 77.172000)">
                            <text class="return-value" id="26.5%" font-family="AvenirNext-DemiBold, Avenir Next" font-size="17.1" font-weight="500">
                                <tspan x="0" y="32.732" fill="#323C5A">26.5%</tspan>
                            </text>
                            <text class="return" id="Return" font-family="AvenirNext-Medium, Avenir Next" font-size="10.944" font-weight="400">
                                <tspan x="0" y="11" fill="#323C5A">Return</tspan>
                            </text>
                        </g>
                    </g>
                </g>
                <g id="Group-23" transform="translate(97.128000, 128.250000)">
                    <g id="user-19" transform="translate(11.628000, 6.840000)">
                        <path d="M36.84423,42.043325 L36.84423,44.4044128 L18.79423,44.4044128 L18.79423,32.5989735 C21.58723,32.5989735 23.54423,31.1823208 23.54423,31.1823208 C24.57973,32.3345317 27.81923,34.0156262 27.81923,34.0156262 C36.81573,36.8489317 36.84423,42.043325 36.84423,42.043325 L36.84423,42.043325 Z" id="Shape" fill="#6D6E71"></path>
                        <path d="M18.79423,32.5989735 L18.79423,44.4044128 L0.74423,44.4044128 L0.74423,42.043325 C0.74423,42.043325 0.82973,36.8772647 9.76923,34.0156262 C9.76923,34.0156262 13.00873,32.3345317 14.04423,31.1823208 C14.04423,31.1823208 16.00123,32.5989735 18.79423,32.5989735 L18.79423,32.5989735 Z" id="Shape" fill="#58595B"></path>
                        <path d="M14.04423,31.1823208 L14.04423,28.179017 C15.43123,28.8967877 17.02723,29.2934505 18.79423,29.2934505 C20.56123,29.2934505 22.15723,28.8967877 23.54423,28.179017 L23.54423,31.1823208 C23.54423,31.1823208 21.58723,32.5989735 18.79423,32.5989735 C16.00123,32.5989735 14.04423,31.1823208 14.04423,31.1823208 L14.04423,31.1823208 Z" id="Shape" fill="#FFD7A3"></path>
                        <path d="M29.24423,12.7658354 C29.24423,12.7658354 24.96923,13.5969384 18.79423,9.46031242 C18.10073,8.9975392 8.34423,12.7658354 8.34423,12.7658354 L8.34423,8.51587727 C8.34423,8.51587727 7.94523,1.43261367 18.79423,1.43261367 C18.79423,1.43261367 24.38023,-0.692365406 29.71923,2.37704882 C35.05823,5.44646305 30.55523,7.84532832 35.41923,10.4047476 C35.41923,10.4047476 35.21973,12.7658354 29.24423,12.7658354 L29.24423,12.7658354 Z" id="Shape" fill="#A18369"></path>
                        <path d="M8.34423,17.9602287 C8.34423,18.5930003 8.38223,19.2163275 8.46773,19.820766 C6.99523,19.6224346 5.49423,18.2246706 5.49423,17.0157936 C5.49423,15.7124731 6.76723,15.1269233 8.34423,15.1269233 L8.34423,17.9602287 L8.34423,17.9602287 Z" id="Shape" fill="#FFD7A3"></path>
                        <path d="M29.24423,15.1269233 C30.82123,15.1269233 32.09423,15.7124731 32.09423,17.0157936 C32.09423,18.2246706 30.59323,19.6224346 29.12073,19.820766 C29.20623,19.2163275 29.24423,18.5930003 29.24423,17.9602287 L29.24423,15.1269233 L29.24423,15.1269233 Z" id="Shape" fill="#FFD7A3"></path>
                        <path d="M29.24423,15.1269233 L29.24423,17.9602287 C29.24423,18.5930003 29.20623,19.2163275 29.12073,19.820766 C28.60773,23.5135074 26.59373,26.6112547 23.54423,28.179017 C22.15723,28.8967877 20.56123,29.2934505 18.79423,29.2934505 C17.02723,29.2934505 15.43123,28.8967877 14.04423,28.179017 C10.99473,26.6112547 8.98073,23.5135074 8.46773,19.820766 C8.38223,19.2163275 8.34423,18.5930003 8.34423,17.9602287 L8.34423,15.1269233 L8.34423,12.7658354 C8.34423,12.7658354 18.10073,8.9975392 18.79423,9.46031242 C24.96923,13.5969384 29.24423,12.7658354 29.24423,12.7658354 L29.24423,15.1269233 L29.24423,15.1269233 Z" id="Shape" fill="#FFE1B2"></path>
                        <path d="M28.094825,33.3595271 C27.24619,32.9150759 25.15676,31.7380264 24.25673,30.8935125 L24.25673,28.5985351 C27.1434,26.9577679 29.11731,24.0139636 29.74811,20.4105657 C31.383345,19.9450536 32.80673,18.4192242 32.80673,17.0156991 C32.80673,15.5948909 31.73247,14.6521557 29.95673,14.4568466 L29.95673,13.462073 C35.718955,13.2703527 36.10418,10.760233 36.12926,10.4639636 L36.168685,9.99760157 L35.752585,9.77868151 C33.706,8.70183655 33.605015,7.81501195 33.46508,6.58762403 C33.3089,5.21677642 33.11453,3.51074877 30.075955,1.76392152 C24.896365,-1.21407138 19.58102,0.409223749 18.66883,0.724570644 C14.536805,0.744876 11.4779,1.76854926 9.576,3.76810735 C7.594205,5.85172017 7.62109,8.24709103 7.63173,8.53098823 L7.63173,14.4568466 C5.85599,14.6521557 4.78173,15.5949854 4.78173,17.0156991 C4.78173,18.4192242 6.205115,19.9450536 7.84035,20.4105657 C8.471815,24.0152858 10.44601,26.9589013 13.33173,28.5985351 L13.33173,30.8934181 C12.43113,31.7384042 10.339895,32.9163982 9.49221,33.3601882 C0.231325,36.3470588 0.035625,41.8004163 0.031825,42.031614 L0.03173,45.1126448 L37.55673,45.1126448 L37.55673,42.0393583 C37.555495,41.8068384 37.418505,36.3190091 28.094825,33.3595271 L28.094825,33.3595271 Z M18.79423,31.8906471 C16.872285,31.8906471 15.365205,31.1469045 14.75673,30.7929302 L14.75673,29.2742785 C16.00902,29.7566959 17.36201,30.0017769 18.79423,30.0017769 C20.226735,30.0017769 21.58001,29.7566959 22.83173,29.2744673 L22.83173,30.7947246 C22.226675,31.14936 20.730615,31.8906471 18.79423,31.8906471 L18.79423,31.8906471 Z M31.38173,17.0157936 C31.38173,17.5943546 30.752165,18.3820135 29.93146,18.8168314 C29.947135,18.5369953 29.95673,15.8807714 29.95673,15.8807714 C31.22669,16.0577586 31.38173,16.7105522 31.38173,17.0157936 L31.38173,17.0157936 Z M10.6115,4.74144221 C12.25272,3.01586475 15.00582,2.14094003 18.794325,2.14094003 L18.9259,2.14056226 L19.04788,2.09456827 C19.100795,2.07473513 24.39562,0.134865339 29.362695,2.99017612 C31.779495,4.37972355 31.904515,5.47668497 32.0492,6.74704469 C32.1898,7.98123254 32.34769,9.36719111 34.49412,10.6937447 C34.092935,11.17144 32.979535,11.9404936 29.953785,12.045137 L29.111135,12.0698812 C29.10097,12.07177 28.083805,12.2514961 26.365065,11.950599 C24.77258,11.6717073 22.23551,10.9112481 19.191425,8.87211821 C18.84363,8.63997605 18.378035,8.61494852 16.672785,9.10048263 C15.76373,9.35925786 14.55248,9.75318176 13.072665,10.2712044 C11.52863,10.8117047 10.005685,11.3781769 9.05692,11.7360233 L9.05692,8.51587727 L9.05578,8.47630544 C9.054545,8.4564723 8.96306,6.4744807 10.6115,4.74144221 L10.6115,4.74144221 Z M6.20673,17.0157936 C6.20673,16.7105522 6.361865,16.0577586 7.63173,15.8807714 C7.63173,15.8807714 7.641325,18.5369953 7.657,18.8168314 C6.836295,18.381919 6.20673,17.5943546 6.20673,17.0157936 L6.20673,17.0157936 Z M9.173295,19.7221669 C9.095965,19.175339 9.05673,18.5826115 9.05673,17.9602287 L9.05673,13.2513695 C13.119215,11.6959793 17.56778,10.1740221 18.518445,10.1292558 C23.27272,13.2779082 26.94561,13.5884384 28.53173,13.5393278 L28.53173,17.9602287 C28.53173,18.5826115 28.492495,19.175339 28.414975,19.7238669 C27.924965,23.2510489 26.03038,26.1035263 23.21534,27.5507788 C21.88895,28.2371942 20.40144,28.5851241 18.794325,28.5851241 C17.18721,28.5851241 15.6997,28.2370998 14.3716,27.5498343 C11.558175,26.1034319 9.66359,23.2509544 9.173295,19.7221669 L9.173295,19.7221669 Z M1.45673,42.0519193 C1.46205,41.9088374 1.720165,37.3363546 9.987635,34.6898585 C9.987635,34.6898585 12.834025,33.2095508 14.13961,32.0762287 C14.85477,32.4801636 16.265995,33.134846 18.081825,33.2779279 L18.081825,43.6960865 L1.456825,43.6960865 L1.45673,42.0519193 L1.45673,42.0519193 L1.45673,42.0519193 Z M36.13173,43.6960865 L19.50673,43.6960865 L19.50673,33.2779279 C21.322465,33.134846 22.733785,32.4801636 23.448945,32.0762287 C24.75453,33.2095508 27.604055,34.6908974 27.604055,34.6908974 C30.02247,35.4524899 33.27755,36.8873702 35.051675,39.3975844 C36.069885,40.8382257 36.129355,41.9908144 36.13173,42.0510693 L36.13173,43.6960865 L36.13173,43.6960865 Z" id="Shape" fill="#231F20"></path>
                        <path d="M18.79423,22.4462957 L20.69423,22.4462957 L20.69423,21.029643 L19.50673,21.029643 L19.50673,17.9602287 L18.08173,17.9602287 L18.08173,21.7379693 C18.08173,22.1291544 18.40074,22.4462957 18.79423,22.4462957 L18.79423,22.4462957 Z" id="Shape" fill="#231F20"></path>
                        <rect id="Rectangle-path" fill="#231F20" x="20.69423" y="35.1961702" width="1.9" height="1.41665272"></rect>
                        <rect id="Rectangle-path" fill="#231F20" x="20.69423" y="38.0294756" width="1.9" height="1.41665272"></rect>
                        <rect id="Rectangle-path" fill="#231F20" x="20.69423" y="40.862781" width="1.9" height="1.41665272"></rect>
                        <rect id="Rectangle-path" fill="#231F20" x="14.99423" y="35.1961702" width="1.9" height="1.41665272"></rect>
                        <rect id="Rectangle-path" fill="#231F20" x="14.99423" y="38.0294756" width="1.9" height="1.41665272"></rect>
                        <rect id="Rectangle-path" fill="#231F20" x="14.99423" y="40.862781" width="1.9" height="1.41665272"></rect>
                    </g>
                    <rect id="Rectangle-13" fill-opacity="0.66" fill="#FFFFFF" x="0" y="0" width="57.456" height="60.876"></rect>
                </g>
            </g>
        </g>
    </g>
</svg>