<?xml version="1.0" encoding="UTF-8"?>
<svg width="107px" height="126px" viewBox="0 0 107 126" version="1.1" xmlns="http://www.w3.org/2000/svg" xmlns:xlink="http://www.w3.org/1999/xlink">
    <!-- Generator: Sketch 52.1 (67048) - http://www.bohemiancoding.com/sketch -->
    <title>Group_45</title>
    <desc>Created with Sketch.</desc>
    <g id="Page-1" stroke="none" stroke-width="1" fill="none" fill-rule="evenodd">
        <g id="Contest-Home" transform="translate(-1290.000000, -35.000000)" fill-rule="nonzero">
            <g id="Group_45" transform="translate(1217.000000, -28.000000)">
                <g id="Group" fill="#FFFFFF" fill-opacity="0">
                    <rect id="Rectangle_44-2" x="0" y="0" width="252" height="252" rx="31.5"></rect>
                </g>
                <g id="Group_145" transform="translate(74.253060, 63.864360)" fill="#F4F4F4">
                    <path d="M105.11298,42.42042 C103.639309,29.7179188 97.0106623,18.1790615 86.77998,10.50714 C74.1258,0.75348 59.98986,-2.20878 44.74386,1.61784 C22.2188527,7.16976589 6.77570089,27.8905292 7.89264,51.06276 C8.102448,54.384199 7.44277817,57.7029593 5.9787,60.69168 C3.8178,65.25918 2.0286,69.51924 0.42336,73.65456 C-0.306342155,75.6167352 -0.0779854644,77.8070953 1.04076,79.57656 C2.27821572,81.410329 4.32306427,82.5359337 6.53436,82.60056 L9.25092,82.60056 L9.25092,97.3539 C9.1686782,100.335898 10.3214275,103.219512 12.4366567,105.323052 C14.551886,107.426592 17.4418435,108.563345 20.42334,108.46458 L33.07752,108.46458 L33.07752,121.42746 C33.07752,124.14402 34.06536,125.1306 36.71892,125.1306 L86.90346,125.1306 C89.62002,125.1306 90.6066,124.14276 90.6066,121.4892 L90.6066,85.74804 C90.5659172,84.8880773 90.9044312,84.0535365 91.5327,83.46492 C102.58164,71.74062 107.14914,57.97512 105.11298,42.42042 Z M86.28606,80.32122 C85.2615862,81.2185433 84.7137535,82.5420065 84.8043,83.90088 C84.86604,92.48148 84.8043,101.24604 84.8043,109.70316 L84.8043,119.08638 L38.9403,119.08638 L38.9403,106.00002 C39.0806462,105.06371 38.7684768,104.116338 38.0990092,103.446871 C37.4295417,102.777403 36.48217,102.465234 35.54586,102.60558 L20.97774,102.60558 C17.02764,102.60558 15.1137,100.69164 15.1137,96.80958 L15.1137,80.38926 C15.1137,77.79618 14.06412,76.74786 11.47104,76.74786 L7.64442,76.74786 C6.78006,76.74786 6.28614,76.62186 6.03918,76.31568 C5.85396,76.00698 5.91318,75.51306 6.2244,74.71044 C6.96528,72.98172 7.70616,71.31474 8.44704,69.64902 C10.11402,65.8224 11.84148,61.8093 13.50846,57.8592 C13.882122,57.0054391 14.0309088,56.070208 13.94064,55.14264 C13.0986749,48.6329782 13.6886632,42.0179704 15.66936,35.76006 C20.7471312,20.106087 34.2974061,8.7110734 50.5903335,6.39349946 C66.8832609,4.07592552 83.0735318,11.2405198 92.3149499,24.8576716 C101.556368,38.4748234 102.235062,56.1665067 94.06404,70.45164 C92.0460467,74.155588 89.4172973,77.4923234 86.28858,80.32122 L86.28606,80.32122 Z" id="Path_580"></path>
                    <path d="M72.76752,49.95144 C72.4066421,44.8061936 69.6893667,40.1161229 65.405188,37.2439102 C61.1210092,34.3716974 55.7503371,33.6394206 50.8536,35.25984 C44.7500523,37.1041895 40.3165359,42.3858353 39.5577,48.71664 C38.4975054,54.6533793 40.8888934,60.678701 45.7317,64.2726 C46.7464362,65.006709 47.3624125,66.1706853 47.39868,67.4226 C47.5839,69.70698 47.83086,71.9901 48.13956,74.21274 L48.26556,75.20058 C48.2658423,76.0369291 48.6246509,76.8330303 49.2510735,77.3871734 C49.8774962,77.9413165 50.7114231,78.2003274 51.54156,78.09858 L60.43086,78.09858 C62.77698,78.09858 63.70686,77.29596 64.01052,75.01284 C64.19574,73.65456 64.38096,72.24084 64.50444,70.87752 C64.68966,69.33402 64.87488,67.66704 65.0601,66.1248 C65.1425662,65.6173954 65.4056989,65.1569132 65.80098,64.82826 C70.6086757,61.4653934 73.2628019,55.797593 72.76752,49.95144 Z M66.96522,51.55668 C66.90559,55.0930652 65.0736856,58.3630383 62.08902,60.26076 C61.96302,60.3225 61.83702,60.44598 61.71858,60.51276 L60.79248,61.06842 C59.8817535,61.5562418 59.3125738,62.5048745 59.31072,63.53802 C59.1255,65.57544 58.87854,67.61286 58.69332,69.64902 C58.63158,70.26642 58.56732,70.82208 58.5081,71.43822 C58.4901801,71.6482092 58.447896,71.8554014 58.3821,72.05562 C58.3821,72.11736 58.32036,72.24084 58.32036,72.30762 L53.8146,72.30762 C53.75286,71.56674 53.62938,70.82586 53.5626,70.08498 C53.3106,68.29452 53.13042,66.44358 53.00694,64.65312 C53.0092964,62.9408957 52.0574381,61.3700137 50.5386,60.57954 C47.9596338,59.0541924 46.1273718,56.5290736 45.47718,53.60418 C44.7963809,50.7531376 45.3573766,47.7471166 47.02068,45.33354 C49.6529862,41.222281 54.7109762,39.3810253 59.3702576,40.8379341 C64.0295391,42.2948428 67.1376112,46.6895411 66.95892,51.56802 L66.96522,51.55668 Z" id="Path_581"></path>
                    <path d="M36.90288,36.12294 C37.45854,36.6786 38.07594,37.23426 38.6316,37.85166 C39.1363015,38.4089826 39.8554326,38.7236024 40.60728,38.71602 C41.0749045,38.6955235 41.5350121,38.5909536 41.96556,38.40732 C43.32384,37.85166 43.5708,36.61686 43.63254,35.32032 C43.5708,35.25858 43.5708,35.1351 43.50654,35.01162 C43.3736676,34.6051212 43.1640838,34.2278703 42.88914,33.9003 C41.71608,32.60376 40.4208,31.30848 38.93904,29.9502 C38.4005257,29.3673599 37.6465684,29.030839 36.8531176,29.0191706 C36.0596669,29.0075022 35.2961401,29.3217071 34.74072,29.88846 C34.1764421,30.4537113 33.8752335,31.2297962 33.9104465,32.0277177 C33.9456595,32.8256392 34.3140626,33.5721734 34.92594,34.08552 C35.5446,34.76466 36.22374,35.4438 36.90288,36.12294 Z" id="Path_582"></path>
                    <path d="M70.4214,38.22336 C70.8090459,38.4054761 71.2284579,38.5103291 71.6562,38.53206 C72.3740432,38.5224552 73.0601636,38.2347273 73.57014,37.72944 C74.61972,36.7416 75.6693,35.69202 76.65588,34.70544 L77.1498,34.21152 C77.7965609,33.7111893 78.1954184,32.9556638 78.2437185,32.1393933 C78.2920185,31.3231228 77.9850436,30.525832 77.4018,29.95272 C76.8282791,29.3648617 76.0348222,29.0439876 75.2138895,29.0679285 C74.3929569,29.0918693 73.6195479,29.458438 73.08126,30.07872 C71.9082,31.19004 70.73514,32.3631 69.62382,33.5349 C69.3182003,33.9308121 69.0688727,34.3671353 68.88294,34.83144 C68.75694,35.01666 68.69772,35.26362 68.57424,35.44884 L68.57424,35.57484 C68.6768118,36.7257513 69.3816926,37.7360804 70.42644,38.22966 L70.4214,38.22336 Z" id="Path_583"></path>
                    <path d="M53.13672,26.43228 L53.13672,29.14884 C53.1156714,29.9236985 53.4142312,30.6731091 53.9623411,31.2212189 C54.5104509,31.7693288 55.2598615,32.0678886 56.03472,32.04684 C56.8033174,32.04684 57.540435,31.7415159 58.0839155,31.1980355 C58.6273959,30.654555 58.93272,29.9174374 58.93272,29.14884 C58.99446,27.42012 58.99446,25.63092 58.93272,23.9022 C58.9428402,23.1013296 58.6049616,22.3354714 58.00662,21.80304 C57.4441277,21.2627986 56.6868965,20.973269 55.90746,21.00042 C54.3452941,21.0677067 53.1031373,22.3352136 53.06742,23.89842 L53.06742,25.68888 C53.1213331,25.9328358 53.1446127,26.1825627 53.13672,26.43228 Z" id="Path_584"></path>
                    <path d="M36.84114,50.93802 C36.8065428,49.4522719 35.6103281,48.2560572 34.12458,48.22146 C33.50802,48.19038 32.89062,48.19038 32.27238,48.22146 L28.6965,48.22146 C27.5742566,48.2576485 26.5754367,48.9429572 26.1378414,49.9770028 C25.7002461,51.0110483 25.9037212,52.2051535 26.65908,53.03592 C27.1006856,53.5721302 27.7549997,53.888006 28.44954,53.90028 C29.43738,53.96202 30.42522,54.02628 31.41306,54.02628 C32.4009,54.02628 33.38874,54.02628 34.37658,53.96454 C35.1103333,53.9034816 35.7876244,53.5463851 36.2525492,52.9754499 C36.717474,52.4045147 36.929976,51.6689306 36.84114,50.93802 Z" id="Path_585"></path>
                    <path d="M83.1978,48.22398 C81.53082,48.16224 79.80336,48.16224 78.19812,48.22398 C77.4200049,48.1752352 76.656996,48.4543347 76.0939853,48.9936473 C75.5309746,49.5329598 75.2193412,50.283269 75.2346,51.06276 C75.2170382,51.8326958 75.5066633,52.5779572 76.0395246,53.1339864 C76.5723859,53.6900156 77.304654,54.0110775 78.07464,54.02628 C78.6710553,54.057364 79.2686847,54.057364 79.8651,54.02628 L83.32254,54.02628 C84.9276177,53.9769364 86.2070873,52.6685397 86.22054,51.06276 C86.1576611,49.448931 84.8111369,48.1843204 83.19654,48.22272 L83.1978,48.22398 Z" id="Path_586"></path>
                    <path d="M38.81682,64.45656 C37.33506,65.75268 35.91546,67.11096 34.55802,68.5314 C33.772514,69.3385728 33.5978787,70.5605108 34.12584,71.5554 C34.5649565,72.6085542 35.5785022,73.3083834 36.71892,73.34586 C36.8872617,73.2944813 37.0522239,73.2326204 37.21284,73.16064 C37.6085467,73.0600324 37.9843179,72.8930229 38.32416,72.66672 C39.68244,71.43192 41.22216,69.95142 42.7077,68.34618 C43.6096104,67.2713453 43.5287964,65.6825526 42.52248,64.70478 C41.5367514,63.6795087 39.9335774,63.5704493 38.81808,64.45278 L38.81682,64.45656 Z" id="Path_587"></path>
                    <path d="M73.8171,64.95048 C73.4364059,64.6226947 72.9962351,64.3711685 72.52056,64.2096 L72.15012,64.02438 C70.9029552,63.9456494 69.7319571,64.6287317 69.1866,65.7531 C68.6777278,66.8032849 68.8746348,68.0590691 69.68052,68.9031 C70.91532,70.19964 72.08838,71.3727 73.26018,72.42102 C73.8309961,73.0013943 74.6071426,73.3340285 75.42108,73.34712 C76.2167319,73.3326504 76.9731648,72.99893 77.52024,72.42102 C78.0567909,71.8539605 78.340067,71.0933253 78.3051467,70.3134382 C78.2702264,69.5335511 77.9201036,68.8012771 77.33502,68.28444 C76.16196,67.17438 75.05064,66.00006 73.8171,64.95048 Z" id="Path_588"></path>
                </g>
                <path d="M161.15526,174.12318 L161.15526,183.5064 L115.29126,183.5064 L115.29126,170.4213 C115.431707,169.484738 115.119385,168.537096 114.449607,167.867566 C113.779828,167.198036 112.83207,166.886066 111.89556,167.02686 L97.3287,167.02686 C93.3786,167.02686 91.46466,165.11292 91.46466,161.22456 L91.46466,144.8055 C91.46466,142.21242 90.41508,141.16284 87.822,141.16284 L83.99538,141.16284 C83.13102,141.16284 82.6371,141.03684 82.39014,140.73066 C82.20492,140.42196 82.26414,139.92804 82.57536,139.12542 C83.31624,137.3967 84.05712,135.73098 84.798,134.064 C86.46498,130.23738 88.19244,126.22428 89.85942,122.27418 C90.2330309,121.420849 90.38182,120.486037 90.2916,119.55888 C89.4497981,113.049215 90.0397833,106.434242 92.02032,100.1763 C97.0971639,84.5213993 110.647403,73.125217 126.940845,70.8070275 C143.234288,68.4888381 159.425318,75.6535082 168.666993,89.2712065 C177.908667,102.888905 178.586948,120.58133 170.415,134.86662 C168.354742,138.562026 165.706903,141.89757 162.57528,144.7425 C161.550603,145.640215 161.002769,146.964148 161.09352,148.32342 C161.15526,156.96324 161.15526,165.66606 161.15526,174.12318 Z" id="Path_589" fill="#F7F8FB"></path>
                <path d="M132.94638,133.75278 C132.88464,134.37018 132.82038,134.92584 132.76116,135.54324 C132.743263,135.753232 132.700978,135.960427 132.63516,136.16064 C132.63516,136.22238 132.57342,136.34586 132.57342,136.41264 L128.06766,136.41264 C128.00592,135.67176 127.88244,134.93088 127.81566,134.19 C127.56366,132.4008 127.38348,130.5486 127.26,128.75814 C127.262112,127.045641 126.309726,125.47469 124.7904,124.68456 C122.211434,123.159212 120.379172,120.634094 119.72898,117.7092 C119.047806,114.857762 119.608817,111.851202 121.27248,109.4373 C122.933072,106.926186 125.55221,105.207392 128.516761,104.683283 C131.481313,104.159174 134.531008,104.875764 136.95192,106.6653 C139.820042,108.775297 141.441857,112.180684 141.27246,115.7373 C141.21283,119.273685 139.380926,122.543658 136.39626,124.44138 C136.27026,124.50312 136.14426,124.6266 136.02582,124.69338 L135.09972,125.24904 C134.189391,125.736648 133.620277,126.684687 133.61796,127.71738 C133.37856,129.68046 133.13538,131.77836 132.94638,133.75278 Z" id="Path_590" fill="#FBC316"></path>
                <g id="Group_146" transform="translate(73.080000, 63.000000)">
                    <path d="M105.11172,42.42042 C103.637905,29.7179663 97.0092887,18.1791621 86.77872,10.50714 C74.12454,0.75474 59.9886,-2.20878 44.74134,1.61784 C22.2163327,7.16976589 6.77318089,27.8905292 7.89012,51.06276 C8.09998647,54.3842029 7.44031368,57.702978 5.97618,60.69168 C3.81528,65.25918 2.02608,69.51924 0.42084,73.65456 C-0.308862155,75.6167352 -0.0805054644,77.8070953 1.03824,79.57656 C2.27555126,81.4104871 4.32048793,82.5361403 6.53184,82.60056 L9.2484,82.60056 L9.2484,97.3539 C9.1661582,100.335898 10.3189075,103.219512 12.4341367,105.323052 C14.549366,107.426592 17.4393235,108.563345 20.42082,108.46458 L33.075,108.46458 L33.075,121.42746 C33.075,124.14276 34.06284,125.1306 36.7164,125.1306 L86.90094,125.1306 C89.6175,125.1306 90.60408,124.14276 90.60408,121.48794 L90.60408,85.74804 C90.5631945,84.8876744 90.9017115,84.0526658 91.53018,83.46366 C102.58164,71.67888 107.14914,57.91338 105.11172,42.42042 Z M84.80304,109.70442 L84.80304,119.08764 L38.93904,119.08764 L38.93904,106.00128 C39.0798343,105.06477 38.7678643,104.117012 38.0983344,103.447233 C37.4288045,102.777455 36.4811619,102.465133 35.5446,102.60558 L20.97648,102.60558 C17.02638,102.60558 15.11244,100.69164 15.11244,96.80958 L15.11244,80.38926 C15.11244,77.79744 14.06286,76.74786 11.47104,76.74786 L7.64442,76.74786 C6.78006,76.74786 6.28614,76.62186 6.03918,76.31568 C5.85396,76.00698 5.91318,75.51306 6.2244,74.71044 C6.96528,72.98172 7.70616,71.31474 8.44704,69.64902 C10.11402,65.8224 11.84148,61.8093 13.50846,57.8592 C13.8822848,57.0054869 14.0310783,56.0702132 13.94064,55.14264 C13.0987973,48.6329758 13.6887833,42.0179944 15.66936,35.76006 C20.7471312,20.106087 34.2974061,8.7110734 50.5903335,6.39349946 C66.8832609,4.07592552 83.0735318,11.2405198 92.3149499,24.8576716 C101.556368,38.4748234 102.235062,56.1665067 94.06404,70.45164 C92.003931,74.1471459 89.3560745,77.4827131 86.22432,80.32752 C85.199643,81.2252355 84.6518088,82.5491681 84.74256,83.90844 C84.8043,92.48148 84.8043,101.2473 84.8043,109.70316 L84.80304,109.70442 Z" id="Path_591" fill="#000078"></path>
                    <path d="M72.70578,49.95018 C72.3447972,44.8052412 69.6276992,40.1154649 65.3438456,37.243305 C61.059992,34.3711452 55.6896986,33.6386349 50.79312,35.25858 C44.6895723,37.1029295 40.2560559,42.3845753 39.49722,48.71538 C38.4370254,54.6521193 40.8284134,60.677441 45.67122,64.27134 C46.6859562,65.005449 47.3019325,66.1694253 47.3382,67.42134 C47.52342,69.70572 47.77038,71.98884 48.07908,74.21148 L48.20508,75.19932 C48.2053623,76.0356691 48.5641709,76.8317703 49.1905935,77.3859134 C49.8170162,77.9400565 50.6509431,78.1990674 51.48108,78.09732 L60.37038,78.09732 C62.7165,78.09732 63.64638,77.2947 63.95004,75.01032 C64.13526,73.65204 64.32048,72.23832 64.44396,70.875 C64.62918,69.3315 64.8144,67.66578 64.99962,66.12228 C65.0824124,65.6149909 65.345484,65.1546156 65.7405,64.82574 C70.5917859,61.5003878 73.2582211,55.8057544 72.70578,49.95018 Z M58.63158,69.57972 C58.56984,70.19712 58.50558,70.75278 58.44636,71.37018 C58.4284854,71.5801757 58.3862002,71.7873732 58.32036,71.98758 C58.32036,72.04932 58.25862,72.1728 58.25862,72.23958 L53.75286,72.23958 C53.69112,71.4987 53.56764,70.75782 53.50086,70.01694 C53.24886,68.22648 53.06868,66.37428 52.9452,64.58508 C52.9473121,62.8725806 51.9949264,61.3016302 50.4756,60.5115 C47.8966338,58.9861524 46.0643718,56.4610336 45.41418,53.53614 C44.7331685,50.6846975 45.2941668,47.6782046 46.95768,45.26424 C48.6185114,42.7534235 51.237623,41.0348735 54.2020607,40.5107846 C57.1664985,39.9866956 60.2160844,40.703065 62.63712,42.49224 C65.5052417,44.6022371 67.1270574,48.0076244 66.95766,51.56424 C66.89803,55.1006252 65.0661256,58.3705983 62.08146,60.26832 C61.95546,60.33006 61.82946,60.45354 61.71102,60.52032 L60.78492,61.07598 C59.8745896,61.5642176 59.3055671,62.5125884 59.30316,63.54558 C59.12172,65.50614 58.87854,67.60404 58.63158,69.57972 Z" id="Path_592" fill="#000078"></path>
                    <path d="M36.90288,36.1242 C37.45854,36.67986 38.07594,37.23552 38.6316,37.85292 C39.1362047,38.4103771 39.8553995,38.7250248 40.60728,38.71728 C41.0749045,38.6967835 41.5350121,38.5922136 41.96556,38.40858 C43.32384,37.85292 43.5708,36.61812 43.63254,35.32158 C43.5708,35.25984 43.5708,35.13636 43.50654,35.01288 C43.3736102,34.6064062 43.1640322,34.2291657 42.88914,33.90156 C41.71608,32.60502 40.41954,31.30974 38.93904,29.95146 C38.40056,29.3690204 37.6468753,29.0327596 36.8537419,29.0210924 C36.0606085,29.0094252 35.297359,29.3233713 34.74198,29.88972 C34.1772808,30.4550088 33.8758034,31.2313799 33.9110201,32.0296257 C33.9462369,32.8278715 34.3149132,33.5746771 34.9272,34.08804 C35.5446,34.76592 36.22374,35.44506 36.90288,36.1242 Z" id="Path_593" fill="#37BEB7"></path>
                    <path d="M70.4214,38.16036 C70.8090133,38.3425676 71.2284436,38.4474252 71.6562,38.46906 C72.3740432,38.4594552 73.0601636,38.1717273 73.57014,37.66644 C74.61972,36.6786 75.6693,35.62902 76.65588,34.64244 L77.1498,34.14852 C77.7965609,33.6481893 78.1954184,32.8926638 78.2437185,32.0763933 C78.2920185,31.2601228 77.9850436,30.462832 77.4018,29.88972 C76.8282791,29.3018617 76.0348222,28.9809876 75.2138895,29.0049285 C74.3929569,29.0288693 73.6195479,29.395438 73.08126,30.01572 C71.9082,31.12704 70.73514,32.3001 69.62508,33.47316 C69.3194603,33.8690721 69.0701327,34.3053953 68.8842,34.7697 C68.7582,34.95492 68.69898,35.20188 68.5755,35.3871 L68.5755,35.5131 C68.6433513,36.6763461 69.35939,37.7026683 70.4277,38.16792 L70.4214,38.16036 Z" id="Path_594" fill="#37BEB7"></path>
                    <path d="M53.13798,26.43354 L53.13798,29.1501 C53.1165627,29.9250648 53.4150039,30.6746919 53.963196,31.222884 C54.5113881,31.7710761 55.2610152,32.0695173 56.03598,32.0481 C57.6365012,32.0481 58.93398,30.7506212 58.93398,29.1501 C58.99572,27.42138 58.99572,25.63218 58.93398,23.90346 C58.9437663,23.1026578 58.6059461,22.336932 58.00788,21.8043 C57.4450737,21.2645539 56.6880599,20.9751075 55.90872,21.00168 C54.3468259,21.0695764 53.1050123,22.3367331 53.06868,23.89968 L53.06868,25.69014 C53.1253215,25.9336611 53.1486345,26.1837456 53.13798,26.43354 Z" id="Path_595" fill="#37BEB7"></path>
                    <path d="M36.84114,50.93928 C36.8065428,49.4535319 35.6103281,48.2573172 34.12458,48.22272 C33.5075711,48.1916402 32.8893889,48.1916402 32.27238,48.22272 L28.6965,48.22272 C27.5742566,48.2589085 26.5754367,48.9442172 26.1378414,49.9782628 C25.7002461,51.0123083 25.9037212,52.2064135 26.65908,53.03718 C27.1006856,53.5733902 27.7549997,53.889266 28.44954,53.90154 C29.43738,53.96328 30.42522,54.02754 31.41306,54.02754 C32.4009,54.02754 33.38874,54.02754 34.37658,53.9658 C35.8870172,53.7997622 36.9844976,52.4520383 36.84114,50.93928 Z" id="Path_596" fill="#37BEB7"></path>
                    <path d="M83.19906,48.22272 C81.53208,48.16098 79.80462,48.16098 78.19938,48.22272 C77.4210419,48.1739542 76.6578266,48.4532213 76.0947738,48.9928135 C75.531721,49.5324058 75.2202441,50.2830521 75.23586,51.06276 C75.2182982,51.8326958 75.5079233,52.5779572 76.0407846,53.1339864 C76.5736459,53.6900156 77.305914,54.0110775 78.0759,54.02628 C78.6723154,54.0573595 79.2699446,54.0573595 79.86636,54.02628 L83.32254,54.02628 C84.9276177,53.9769364 86.2070873,52.6685397 86.22054,51.06276 C86.2008767,50.2835355 85.8700199,49.5446286 85.3018384,49.0110114 C84.7336569,48.4773943 83.9754648,48.1935028 83.19654,48.22272 L83.19906,48.22272 Z" id="Path_597" fill="#37BEB7"></path>
                    <path d="M38.81682,64.45656 C37.33506,65.75268 35.91546,67.11054 34.55802,68.53014 C33.7721373,69.3371276 33.5974652,70.5593231 34.12584,71.55414 C34.5649565,72.6072942 35.5785022,73.3071234 36.71892,73.3446 C36.8872511,73.2931902 37.0522115,73.2313301 37.21284,73.15938 C37.6086269,73.0590042 37.9844362,72.8919778 38.32416,72.66546 C39.68244,71.43066 41.22216,69.9489 42.70644,68.34492 C43.5591464,67.2413513 43.4591958,65.6760984 42.4730487,64.6899513 C41.4869016,63.7038042 39.9216487,63.6038536 38.81808,64.45656 L38.81682,64.45656 Z" id="Path_598" fill="#37BEB7"></path>
                    <path d="M73.81584,64.95048 C73.4350915,64.6227718 72.9949363,64.3712546 72.5193,64.2096 L72.14886,64.02438 C70.9016952,63.9456494 69.7306971,64.6287317 69.18534,65.7531 C68.6764678,66.8032849 68.8733748,68.0590691 69.67926,68.9031 C70.91406,70.19964 72.08712,71.3727 73.25892,72.42102 C73.8297361,73.0013943 74.6058826,73.3340285 75.41982,73.34712 C76.2155342,73.3329334 76.9720718,72.9991668 77.51898,72.42102 C78.0551288,71.8540129 78.3381526,71.093658 78.3032358,70.3140854 C78.2683189,69.5345128 77.9184525,68.8025049 77.33376,68.2857 C76.16196,67.17438 75.05064,66.00006 73.81584,64.95048 Z" id="Path_599" fill="#37BEB7"></path>
                </g>
            </g>
        </g>
    </g>
</svg>