<?xml version="1.0" encoding="UTF-8"?>
<svg width="87px" height="67px" viewBox="0 0 87 67" version="1.1" xmlns="http://www.w3.org/2000/svg" xmlns:xlink="http://www.w3.org/1999/xlink">
    <!-- Generator: Sketch 49.3 (51167) - http://www.bohemiancoding.com/sketch -->
    <title>Launch</title>
    <desc>Created with Sketch.</desc>
    <defs></defs>
    <g id="Page-1" stroke="none" stroke-width="1" fill="none" fill-rule="evenodd">
        <g id="Desktop-HD-Copy-4" transform="translate(-837.000000, -1958.000000)">
            <g id="Group-14" transform="translate(83.000000, 1913.000000)">
                <g id="Group-12" transform="translate(654.000000, 0.000000)">
                    <g id="Launch" transform="translate(96.000000, 31.000000)">
                        <rect id="Rectangle-path" x="0" y="0" width="95" height="95"></rect>
                        <path d="M83.2516667,72.2316667 L11.7483333,72.2316667 L11.7483333,29.9725 C11.7483178,29.3986466 11.9773584,28.8485246 12.3846177,28.444238 C12.7918769,28.0399514 13.3436621,27.8149472 13.9175,27.8191667 L81.0825,27.8191667 C81.6563379,27.8149472 82.2081231,28.0399514 82.6153823,28.444238 C83.0226416,28.8485246 83.2516822,29.3986466 83.2516667,29.9725 L83.2516667,72.2316667 Z" id="Shape" fill="#D8E3F0" fill-rule="nonzero"></path>
                        <path d="M47.5,64.1408333 C35.1804754,64.170107 22.9949364,61.5851321 11.7483333,56.5566667 L11.7483333,72.2316667 L83.2516667,72.2316667 L83.2516667,56.5566667 C72.0050636,61.5851321 59.8195246,64.170107 47.5,64.1408333 Z" id="Shape" fill="#C3CFDE" fill-rule="nonzero"></path>
                        <rect id="Rectangle-path" fill="#96DDFF" fill-rule="nonzero" x="18.2558333" y="35.4033333" width="58.5041667" height="36.8283333"></rect>
                        <path d="M32.7591667,68.0833333 C27.8948439,68.0866495 23.0403343,67.6467759 18.2558333,66.7691667 L18.2558333,72.2316667 L76.7441667,72.2316667 L76.7441667,53.8333333 C65.7875,62.5891667 50.1283333,68.0833333 32.7591667,68.0833333 Z" id="Shape" fill="#69BAF9" fill-rule="nonzero"></path>
                        <polygon id="Shape" fill="#D8E3F0" fill-rule="nonzero" points="18.2558333 56.4775 18.2558333 59.85 30.6216667 72.2316667 39.0291667 72.2316667 53.6433333 46.1858333 47.5158333 40.0583333"></polygon>
                        <polygon id="Shape" fill="#FFC670" fill-rule="nonzero" points="56.7625 59.2008333 57.2533333 47.12 66.0566667 38.3166667 69.9675 49.78"></polygon>
                        <polygon id="Shape" fill="#FFC670" fill-rule="nonzero" points="34.5008333 36.9233333 46.5816667 36.4325 55.3691667 27.645 43.9216667 23.7341667"></polygon>
                        <path d="M74.8283333,16.2766667 C62.6506946,15.9310447 51.4667912,22.9639632 46.5025,34.0891667 L44.0325,39.5833333 C44.7804599,44.7950009 48.8749991,48.8895401 54.0866667,49.6375 L59.6125,47.1675 C70.7206296,42.202818 77.744526,31.0358226 77.4091667,18.8733333 C77.3682807,17.4626144 76.2387758,16.32618 74.8283333,16.2766667 Z" id="Shape" fill="#F6716F" fill-rule="nonzero"></path>
                        <path d="M47.7216667,38.4275 C52.977766,26.6678922 64.2230351,18.7057805 77.0608333,17.6541667 C76.6105677,16.8344664 75.7629124,16.3114451 74.8283333,16.2766667 C62.6506946,15.9310447 51.4667912,22.9639632 46.5025,34.0891667 L44.0325,39.5833333 C44.2432733,40.9892743 44.7044612,42.3460248 45.3941667,43.5891667 L47.7216667,38.4275 Z" id="Shape" fill="#F6A2A2" fill-rule="nonzero"></path>
                        <path d="M75.6041667,16.435 C70.4568471,27.8455009 61.7596495,37.2869032 50.8091667,43.3516667 L48.8616667,44.4125 C48.1478408,44.8004777 47.4006868,45.1237146 46.6291667,45.3783333 C48.4962314,47.6763712 51.1573257,49.1905395 54.0866667,49.6216667 L59.6125,47.1516667 C70.7151968,42.1892055 77.7380408,31.0301314 77.4091667,18.8733333 C77.3799671,17.7619064 76.6586285,16.7874665 75.6041667,16.435 Z" id="Shape" fill="#F0504D" fill-rule="nonzero"></path>
                        <circle id="Oval" fill="#EDF4FF" fill-rule="nonzero" cx="65.55" cy="28.1516667" r="4.44916667"></circle>
                        <path d="M6.3332968,72.2316667 L88.6666667,72.2316667 L88.6666667,75.3033333 C88.6666667,77.2008917 87.1283917,78.7391667 85.2308333,78.7391667 L9.76916667,78.7391667 C8.85517706,78.7391764 7.97885133,78.3750152 7.33405051,77.7272429 C6.68924969,77.0794707 6.3291214,76.2014799 6.33333333,75.2875 L6.3332968,72.2316667 Z" id="Shape" fill="#C3CFDE" fill-rule="nonzero"></path>
                        <path d="M34.5008333,72.2316667 L60.4991667,72.2316667 L60.4991667,75.3983333 C60.4991667,77.2171911 59.0246911,78.6916667 57.2058333,78.6916667 L37.7941667,78.6916667 C36.9207204,78.6916667 36.0830481,78.3446915 35.4654283,77.7270717 C34.8478085,77.1094519 34.5008333,76.2717796 34.5008333,75.3983333 L34.5008333,72.2316667 Z" id="Shape" fill="#D8E3F0" fill-rule="nonzero"></path>
                        <path d="M40.8183333,61.75 C38.7255467,61.7466218 36.7058725,62.5195139 35.15,63.9191667 C34.1665798,62.2220373 32.3613609,61.1689929 30.4,61.1483333 C29.4615692,61.1513506 28.539837,61.3967823 27.7241667,61.8608333 C28.2710648,60.9553604 28.5407785,59.9095317 28.5,58.8525 C28.5299375,56.9385428 27.5727901,55.1438914 25.9666667,54.1025 C26.0660413,53.5804253 26.1190257,53.0505814 26.125,52.5191667 C26.1250088,48.2055552 22.6327693,44.706232 18.3191667,44.6975 L18.3191667,72.2316667 L49.0833333,72.2316667 C49.6891374,69.7006234 49.1023972,67.0315297 47.4909538,64.9878985 C45.8795104,62.9442672 43.4208662,61.7512066 40.8183333,61.75 Z" id="Shape" fill="#EDF4FF" fill-rule="nonzero"></path>
                        <path d="M65.55,34.1841667 C68.8816578,34.1841667 71.5825,31.4833244 71.5825,28.1516667 C71.5825,24.8200089 68.8816578,22.1191667 65.55,22.1191667 C62.2183422,22.1191667 59.5175,24.8200089 59.5175,28.1516667 C59.5262008,31.4797138 62.2219529,34.1754658 65.55,34.1841667 Z M65.55,25.2858333 C66.7091214,25.2858333 67.7541082,25.9840712 68.1976848,27.0549597 C68.6412613,28.1258483 68.3960728,29.3584943 67.5764502,30.1781169 C66.7568276,30.9977394 65.5241816,31.242928 64.4532931,30.7993514 C63.3824045,30.3557749 62.6841667,29.310788 62.6841667,28.1516667 C62.7100958,26.5874914 63.9856098,25.3331184 65.55,25.3333333 L65.55,25.2858333 Z" id="Shape" fill="#3D3D63" fill-rule="nonzero"></path>
                        <path d="M88.6666667,70.6483333 L84.835,70.6483333 L84.835,29.9725 C84.8262815,27.9062375 83.1487809,26.2358149 81.0825,26.2358333 L78.3275,26.2358333 C78.8446003,23.8013 79.0678611,21.3135363 78.9925,18.8258333 C78.881357,16.5911716 77.0946617,14.8044764 74.86,14.6933333 C65.9141153,14.457647 57.2861727,18.0181113 51.11,24.4941667 L44.4283333,22.1666667 C43.7680066,21.9476707 43.0420865,22.1853613 42.6391667,22.7525 L40.185,26.1725 L13.9175,26.1725 C11.8512191,26.1724816 10.1737185,27.8429041 10.165,29.9091667 L10.165,70.6483333 L6.33333333,70.6483333 C5.45888248,70.6483333 4.75,71.3572158 4.75,72.2316667 L4.75,75.2875 C4.75,78.0595092 6.99715746,80.3066667 9.76916667,80.3066667 L85.2308333,80.3066667 C88.0028425,80.3066667 90.25,78.0595092 90.25,75.2875 L90.25,72.2316667 C90.25,71.3572158 89.5411175,70.6483333 88.6666667,70.6483333 Z M81.0825,29.4816667 C81.399963,29.4815507 81.6597533,29.7343196 81.6683333,30.0516667 L81.6683333,70.6483333 L78.3275,70.6483333 L78.3275,35.4033333 C78.3275,34.5288825 77.6186175,33.82 76.7441667,33.82 L75.6991667,33.82 C76.4064497,32.3948823 77.0045562,30.9181416 77.4883333,29.4025 L81.0825,29.4816667 Z M50.9041667,70.6483333 C50.9041667,70.49 50.9041667,70.3475 50.9041667,70.205 C50.9056738,66.9079084 49.2905249,63.8196017 46.5816667,61.94 L52.725,50.9833333 C53.105,50.9833333 53.4533333,51.1733333 53.8333333,51.2366667 C54.1297485,51.2775797 54.4316895,51.233661 54.7041667,51.11 L55.4958333,50.7616667 L55.1475,59.1375 C55.1250727,59.7437206 55.4509895,60.3094628 55.9866667,60.5941667 C56.4933995,60.8482059 57.0972779,60.8119732 57.57,60.4991667 L70.775,50.9991667 C71.3491478,50.5941363 71.5876889,49.8591719 71.3608333,49.1941667 L69.0966667,42.56 C70.8925655,40.8710422 72.4865454,38.9795194 73.8466667,36.9233333 L75.1133333,36.9233333 L75.1133333,70.6483333 L50.9041667,70.6483333 Z M19.8391667,70.6483333 L19.8391667,46.5658333 C22.5668623,47.2835151 24.470691,49.7461468 24.4783333,52.5666667 C24.4753785,52.9971385 24.4329789,53.4264338 24.3516667,53.8491667 C24.2463168,54.4650497 24.5130215,55.0852932 25.0325,55.4325 C26.2135676,56.166318 26.9274313,57.4620707 26.9166667,58.8525 C26.9101737,59.5375113 26.724585,60.2089057 26.3783333,60.8 C26.2041667,60.9266667 26.03,61.0216667 25.8716667,61.1483333 C25.2125158,61.6895622 25.1005064,62.6556433 25.6183333,63.3333333 C25.9197311,63.6951885 26.3665656,63.9040981 26.8375,63.9033333 C27.2094262,63.8996208 27.5681739,63.7650905 27.8508333,63.5233333 C28.0408333,63.3808333 28.2308333,63.2383333 28.4366667,63.1116667 C29.9408968,62.2658762 31.8223427,62.5107219 33.06,63.7133333 C32.5824522,64.2728822 32.1682667,64.8835402 31.825,65.5341667 C31.6310328,65.907755 31.5938137,66.3432042 31.7215673,66.7442909 C31.8493208,67.1453776 32.1315299,67.4790831 32.5058333,67.6716667 C32.73258,67.7833244 32.9814366,67.8428336 33.2341667,67.8458333 C33.8268982,67.8470662 34.3706775,67.5171327 34.6433333,66.9908333 C35.0402112,66.2271112 35.5773468,65.544949 36.2266667,64.98 C38.2662275,63.1557576 41.1878026,62.7013693 43.6850652,63.8200061 C46.1823278,64.9386429 47.7883384,67.4211415 47.785,70.1575 C47.785,70.3 47.785,70.4425 47.785,70.6008333 L19.8391667,70.6483333 Z M32.9333333,36.9866667 C32.928773,37.2302032 32.9888708,37.4705942 33.1075,37.6833333 C33.3860039,38.192344 33.9206146,38.5082504 34.5008333,38.5066667 L42.8766667,38.1741667 L42.5283333,38.9658333 C42.3992992,39.2367078 42.3551466,39.540257 42.4016667,39.8366667 C42.4617477,40.2060567 42.5463797,40.5710321 42.655,40.9291667 L27.1225,49.6533333 C26.0170672,46.3569008 23.1991625,43.9276726 19.7758333,43.32 L19.7758333,36.9866667 L32.9333333,36.9866667 Z M40.85,60.0875 C38.9478068,60.1018363 37.0879308,60.6504723 35.4825,61.6708333 C34.0518577,60.2088421 32.0629379,59.4305691 30.02,59.5333333 C30.0354222,59.3172192 30.0354222,59.1002808 30.02,58.8841667 C30.0242449,56.8293889 29.141191,54.8728185 27.5975,53.5166667 C27.5975,53.3741667 27.5975,53.2158333 27.5975,53.0733333 L43.7316667,44.0008333 C43.9878592,44.5009037 44.2788527,44.9823657 44.6025,45.4416667 L37.5883333,50.35 C37.0218905,50.7453754 36.7771497,51.4623436 36.983605,52.1215518 C37.1900603,52.78076 37.8000536,53.2300367 38.4908333,53.2316667 C38.8190869,53.2341599 39.1400004,53.134566 39.4091667,52.9466667 L46.6925,47.8483333 C47.5919017,48.6846366 48.5981602,49.3980685 49.685,49.97 L43.7475,60.5625 C42.795659,60.2883215 41.808807,60.1549631 40.8183333,60.1666667 L40.85,60.0875 Z M66.6425,44.8558333 L68.0833333,49.1783333 L58.4883333,56.0341667 L58.7575,49.3208333 L60.3408333,48.64 C62.5679215,47.6211213 64.6715191,46.3515258 66.6108333,44.8558333 L66.6425,44.8558333 Z M74.8125,17.9391667 C75.3818799,17.9712684 75.8339635,18.4302018 75.8575,19 C76.1739982,30.5163396 69.4992845,41.0820299 58.9633333,45.7425 L53.8333333,48.0225 C49.6896599,47.2039113 46.4502554,43.9645068 45.6316667,39.8208333 L47.8958333,34.7383333 C52.6048041,24.180156 63.225366,17.5125947 74.7808333,17.86 L74.8125,17.9391667 Z M44.5233333,25.6025 L48.8458333,27.0908333 C47.345997,29.0500133 46.0762786,31.1750651 45.0616667,33.4241667 L44.3808333,34.9283333 L37.6675,35.1975 L44.5233333,25.6025 Z M13.3316667,29.9725 C13.3402467,29.6551529 13.600037,29.402384 13.9175,29.4025 L38,29.4025 L34.8333333,33.82 L18.2558333,33.82 C17.3813825,33.82 16.6725,34.5288825 16.6725,35.4033333 L16.6725,70.6483333 L13.3316667,70.6483333 L13.3316667,29.9725 Z M7.91666667,75.2875 L7.91666667,73.815 L32.9175,73.815 L32.9175,75.3983333 C32.918033,75.9946126 33.0308312,76.5854603 33.25,77.14 L9.76916667,77.14 C8.74605917,77.14 7.91666667,76.3106075 7.91666667,75.2875 Z M37.7941667,77.14 C37.3406465,77.14 36.9057013,76.9598398 36.5850141,76.6391526 C36.2643269,76.3184654 36.0841667,75.8835202 36.0841667,75.43 L36.0841667,73.8466667 L58.9158333,73.8466667 L58.9158333,75.43 C58.9158333,76.3744069 58.1502403,77.14 57.2058333,77.14 L37.7941667,77.14 Z M87.0833333,75.2875 C87.0833333,76.3106075 86.2539408,77.14 85.2308333,77.14 L61.75,77.14 C61.965301,76.5953713 62.0780297,76.0156236 62.0825,75.43 L62.0825,73.8466667 L87.0833333,73.8466667 L87.0833333,75.2875 Z" id="Shape" fill="#3D3D63" fill-rule="nonzero"></path>
                        <path d="M44.4283333,53.8333333 C43.810774,53.2194376 42.8133926,53.2194376 42.1958333,53.8333333 L39.5833333,56.2558333 C38.947002,56.8513794 38.911618,57.84921 39.5041667,58.4883333 C39.8025803,58.8101033 40.2211553,58.9935883 40.66,58.995 C41.0676601,58.9933766 41.4589856,58.8345778 41.7525,58.5516667 L44.3333333,56.0341667 C44.9537807,55.446422 44.9958267,54.472356 44.4283333,53.8333333 Z" id="Shape" fill="#3D3D63" fill-rule="nonzero"></path>
                    </g>
                </g>
            </g>
        </g>
    </g>
</svg>