<?xml version="1.0" encoding="UTF-8"?>
<svg width="317px" height="294px" viewBox="0 0 317 294" version="1.1" xmlns="http://www.w3.org/2000/svg" xmlns:xlink="http://www.w3.org/1999/xlink">
    <!-- Generator: Sketch 50 (54983) - http://www.bohemiancoding.com/sketch -->
    <title>Logo Design4.pptx</title>
    <desc>Created with Sketch.</desc>
    <defs></defs>
    <g id="Page-1" stroke="none" stroke-width="1" fill="none" fill-rule="evenodd">
        <g id="Desktop-HD-Copy-6" transform="translate(-143.000000, -196.000000)">
            <g id="Logo-Design4.pptx" transform="translate(143.000000, 196.000000)">
                <path d="M6.916,36.25565 C6.56516992,34.6935925 14.5261685,31.3455395 29.047683,26.948033 C43.569228,22.5505263 63.461715,17.46378 84.349073,12.806836 C127.84477,3.109235 163.697248,-2.115283 164.427808,1.13754 C165.158399,4.3903705 130.49043,14.888768 86.994764,24.586354 C43.499067,34.283955 7.646589,39.508473 6.915998,36.25565 L6.916,36.25565 Z" id="Shape" fill="#008080"></path>
                <path d="M7.375325,35.62993 C9.1169632,35.62993 10.7873123,47.473024 12.018849,68.553895 C13.2503859,89.634751 13.9422499,118.226533 13.9422499,148.039365 C13.9422499,210.121395 11.0021254,260.448819 7.3753249,260.448819 C5.6336562,260.448819 3.9633376,248.60571 2.7318009,227.524839 C1.500264,206.443998 0.8084,177.852201 0.8084,148.039369 C0.8084,85.957354 3.748494,35.62993 7.375325,35.62993 Z" id="Shape" fill="#008080"></path>
                <path d="M31.8318119,260.038332 C47.0035317,261.97275 67.4013535,265.47867 88.5379617,269.784792 C132.55267,278.751802 165.323646,290.893315 166.042034,292.972809 C166.760422,295.052304 130.143915,290.594301 86.1291738,281.62729 C42.1144655,272.660279 6.20960073,263.062235 6.87477441,259.792003 C7.19419013,258.221599 16.6601233,258.103914 31.8318119,260.038332 Z" id="Shape" fill="#008080"></path>
                <path d="M31.631896,37.4505465 C46.555053,39.5119631 66.607512,43.1877595 87.377929,47.6692965 C130.630096,57.0016025 165.128845,66.9806496 164.433044,70.2421696 L164.433044,70.4724425 C163.737274,73.7339629 128.110414,68.8126219 84.858244,59.4803165 C41.606077,50.1480105 7.107328,39.9386905 7.803129,36.6771705 C8.13726696,35.1109316 16.708739,35.3891146 31.631896,37.4505465 Z" id="Shape" fill="#008080"></path>
                <path d="M181.183771,3.45956994 C195.51833,5.62435724 214.744078,9.43565194 234.631485,14.0550139 C276.04494,23.6743379 311.981945,33.0097725 311.180821,36.2538985 L306.977539,35.6541059 C306.612497,37.1324432 302.491462,36.9059451 290.728245,35.2653526 C276.677766,33.3057601 254.272026,31.0388751 231.730547,25.8030459 C190.317061,16.1837219 157.394222,5.75583594 158.195315,2.51170994 C158.580025,0.953825044 166.849211,1.29477504 181.183771,3.45956994 Z" id="Shape" fill="#008080" transform="translate(234.687482, 19.094262) rotate(1.000000) translate(-234.687482, -19.094262) "></path>
                <path d="M163.372782,69.76616 C163.019516,68.2041025 170.443757,64.9871225 184.01216,60.822923 C197.580595,56.6587384 216.181802,51.888429 235.723681,47.561433 C276.417585,38.550935 310.002845,33.883409 310.738443,37.136247 C311.474043,40.3890699 279.081417,50.330461 238.38751,59.340974 C197.693606,68.351472 164.108347,73.018983 163.372778,69.76616 L163.372782,69.76616 Z" id="Shape" fill="#E06666"></path>
                <path d="M300.8084,149.129925 L303.8084,149.129925 C303.8084,86.9978971 306.541473,36.655177 310.168243,36.655177 C311.909942,36.655177 313.787282,48.4825646 315.018849,69.5804181 C316.250356,90.6782565 316.94225,119.293072 316.94225,149.12992 C316.94225,211.261963 314.002126,261.62993 310.375295,261.62993 C308.633656,261.62993 306.963307,249.77728 305.731801,228.679427 C304.500233,207.581603 303.8084,178.966773 303.8084,149.129924 L300.8084,149.129925 Z" id="Shape" fill="#E06666"></path>
                <path d="M184.05362,227.448398 C198.335908,229.373966 217.519135,232.865482 237.38324,237.15491 C278.748047,246.08713 311.7168,255.97211 311.02106,259.233645 C310.325259,262.49515 276.228396,257.898166 234.86353,248.965914 C193.498723,240.033694 160.52997,230.148714 161.22574,226.887179 C161.559877,225.320957 169.771303,225.5228 184.05362,227.448398 Z" id="Shape" fill="#E06666"></path>
                <path d="M183.870363,283.887693 C197.47928,279.80618 216.127046,275.150388 235.711305,270.944517 C276.493409,262.186247 310.124879,257.730223 310.829405,260.991758 C311.533873,264.253294 279.044554,273.997251 238.262449,282.755521 C197.480375,291.513822 163.97717,296.206555 163.272675,292.94502 C162.393522,291.500049 170.261415,287.969175 183.870363,283.887693 Z" id="Shape" fill="#E06666"></path>
                <path d="M163.371147,69.4921737 C163.4785,69.2489624 163.705683,69.62993 163.875325,69.62993 C165.616963,69.62993 167.287312,81.4204045 168.518849,102.407612 C169.750386,123.394805 170.44225,151.859552 170.44225,181.539924 C170.44225,243.346121 167.502125,293.449937 163.875325,293.449937 C162.133656,293.449937 160.463338,281.659448 159.231801,260.67224 C158.000264,239.685062 157.3084,211.2203 157.3084,181.539928 C157.3084,122.624683 159.999759,77.1300905 163.371147,69.4921737 Z" id="Shape" fill="#E06666"></path>
            </g>
        </g>
    </g>
</svg>