<?xml version="1.0" encoding="UTF-8"?>
<svg width="145px" height="120px" viewBox="0 0 145 120" version="1.1" xmlns="http://www.w3.org/2000/svg" xmlns:xlink="http://www.w3.org/1999/xlink">
    <!-- Generator: Sketch 52.4 (67378) - http://www.bohemiancoding.com/sketch -->
    <title>:D</title>
    <desc>Created with Sketch.</desc>
    <g id="Page-1" stroke="none" stroke-width="1" fill="none" fill-rule="evenodd">
        <g id="iPhone-8" transform="translate(-112.000000, -263.000000)">
            <g id=":D" transform="translate(112.000000, 263.472527)">
                <ellipse id="shadow" fill="#ECF1EE" cx="67.0000613" cy="114.477016" rx="67.0000613" ry="5.05045659"></ellipse>
                <path d="M13.4000123,76.4548116 L13.4000123,106.062444 C13.4000123,107.917096 14.9023334,109.426559 16.7555405,109.426559 L117.244582,109.426559 C119.10516,109.426559 120.60011,107.920394 120.60011,106.062444 L120.60011,92.0305422 C120.60011,91.1007788 121.350034,90.3470567 122.275112,90.3470567 C123.20019,90.3470567 123.950113,91.1007788 123.950113,92.0305422 L123.950113,106.062444 C123.950113,109.783214 120.952037,112.79353 117.244582,112.79353 L16.7555405,112.79353 C13.0546764,112.79353 10.0500092,109.779134 10.0500092,106.062444 L10.0500092,72.3898777 C10.0495547,71.9582152 10.212759,71.5268945 10.5392493,71.1987506 C11.193378,70.5413086 12.2548754,70.5422584 12.9109885,71.2016948 L23.7873512,82.133147 L34.6637139,71.2016948 C35.0471198,70.8163469 35.5698152,70.6563132 36.0683294,70.7209936 C36.5682262,70.6545657 37.0927257,70.814793 37.4776777,71.2016948 L48.3540403,82.133147 L59.230403,71.2016948 C59.613809,70.8163469 60.1365043,70.6563132 60.6350185,70.7209936 C61.1349153,70.6545657 61.6594148,70.814793 62.0443668,71.2016948 L72.9207295,82.133147 L83.7970921,71.2016948 C84.1796916,70.8171574 84.7009951,70.6569875 85.1985614,70.7205884 C85.69847,70.6526012 86.2227606,70.8114327 86.6063254,71.1969403 L94.6386292,79.2699282 C95.2917632,79.9263704 95.2896258,80.9928218 94.636828,81.648926 C93.9826992,82.306368 92.9225144,82.3067374 92.2698193,81.6507363 L85.204074,74.5492026 L74.3277114,85.4806548 C73.9443054,85.8660027 73.4216101,86.0260364 72.9230959,85.9613559 C72.4231991,86.0277839 71.8986995,85.8675565 71.5137476,85.4806548 L60.6373849,74.5492026 L49.7610222,85.4806548 C49.3776163,85.8660027 48.8549209,86.0260364 48.3564067,85.9613559 C47.8565099,86.0277839 47.3320104,85.8675565 46.9470584,85.4806548 L36.0706958,74.5492026 L25.1943331,85.4806548 C24.8109271,85.8660027 24.2882318,86.0260364 23.7897176,85.9613559 C23.2898208,86.0277839 22.7653213,85.8675565 22.3803693,85.4806548 L13.4000123,76.4548116 Z M13.4000123,57.6641494 L23.7873512,68.1041009 L34.6637139,57.1726487 C35.0471198,56.7873008 35.5698152,56.6272671 36.0683294,56.6919475 C36.5682262,56.6255196 37.0927257,56.785747 37.4776777,57.1726487 L48.3540403,68.1041009 L59.230403,57.1726487 C59.613809,56.7873008 60.1365043,56.6272671 60.6350185,56.6919475 C61.1349153,56.6255196 61.6594148,56.785747 62.0443668,57.1726487 L72.9207295,68.1041009 L83.7970921,57.1726487 C84.1804981,56.7873008 84.7031935,56.6272671 85.2017076,56.6919475 C85.7016044,56.6255196 86.226104,56.785747 86.6110559,57.1726487 L97.4874186,68.1041009 L101.263492,64.3089016 C101.916023,63.6530651 102.976612,63.6557043 103.629409,64.3118086 C104.283538,64.9692506 104.279653,66.0390793 103.632302,66.6897096 L98.8885788,71.4574599 C98.5060351,71.8419412 97.9832488,72.0001149 97.4845994,71.9329907 C96.9862633,71.9976272 96.4640578,71.8371729 96.0804367,71.4516087 L85.204074,60.5201565 L74.3277114,71.4516087 C73.9443054,71.8369566 73.4216101,71.9969903 72.9230959,71.9323099 C72.4231991,71.9987378 71.8986995,71.8385105 71.5137476,71.4516087 L60.6373849,60.5201565 L49.7610222,71.4516087 C49.3776163,71.8369566 48.8549209,71.9969903 48.3564067,71.9323099 C47.8565099,71.9987378 47.3320104,71.8385105 46.9470584,71.4516087 L36.0706958,60.5201565 L25.1943331,71.4516087 C24.8109271,71.8369566 24.2882318,71.9969903 23.7897176,71.9323099 C23.2898208,71.9987378 22.7653213,71.8385105 22.3803693,71.4516087 L10.5421786,59.5534568 C9.886432,58.8943888 9.88645149,57.8258087 10.5392493,57.1697045 C11.193378,56.5122625 12.2548754,56.5132123 12.9109885,57.1726487 L13.4000123,57.6641494 L13.4000123,58.3608317 L10.0500092,58.3608317 L10.0500092,6.73108607 C10.0500092,3.01031619 13.0480858,0 16.7555405,0 L117.244582,0 C120.945446,0 123.950113,3.01439606 123.950113,6.73108607 L123.950113,41.5259764 C123.950113,42.4557398 123.20019,43.2094619 122.275112,43.2094619 C121.350034,43.2094619 120.60011,42.4557398 120.60011,41.5259764 L120.60011,6.73108607 C120.60011,4.87643476 119.097789,3.36697106 117.244582,3.36697106 L16.7555405,3.36697106 C14.8949626,3.36697106 13.4000123,4.87313665 13.4000123,6.73108607 L13.4000123,57.6641494 Z M21.2166861,13.4678842 C19.983249,13.4678842 18.9833507,12.4629214 18.9833507,11.2232369 C18.9833507,9.98355235 19.983249,8.97858949 21.2166861,8.97858949 C22.4501231,8.97858949 23.4500215,9.98355235 23.4500215,11.2232369 C23.4500215,12.4629214 22.4501231,13.4678842 21.2166861,13.4678842 Z M30.1500276,13.4678842 C28.9165905,13.4678842 27.9166922,12.4629214 27.9166922,11.2232369 C27.9166922,9.98355235 28.9165905,8.97858949 30.1500276,8.97858949 C31.3834646,8.97858949 32.383363,9.98355235 32.383363,11.2232369 C32.383363,12.4629214 31.3834646,13.4678842 30.1500276,13.4678842 Z M39.0833691,13.4678842 C37.849932,13.4678842 36.8500337,12.4629214 36.8500337,11.2232369 C36.8500337,9.98355235 37.849932,8.97858949 39.0833691,8.97858949 C40.3168062,8.97858949 41.3167045,9.98355235 41.3167045,11.2232369 C41.3167045,12.4629214 40.3168062,13.4678842 39.0833691,13.4678842 Z M52.4833813,11.2232369 C52.4833813,10.2934735 53.2377579,9.53975133 54.1579826,9.53975133 L112.225503,9.53975133 C113.15036,9.53975133 113.900104,10.2869913 113.900104,11.2232369 C113.900104,12.1530002 113.145728,12.9067224 112.225503,12.9067224 L54.1579826,12.9067224 C53.2331259,12.9067224 52.4833813,12.1594824 52.4833813,11.2232369 Z" id="Shape" fill="#8F8F8F" fill-rule="nonzero"></path>
                <g id="Triangle-1-+-Rectangle-270-+-Oval-106" transform="translate(99.941758, 48.821080)" fill="#F65C5C">
                    <path d="M18.4900537,2.81345555 C20.6126497,-0.599899811 24.0504098,-0.605766242 26.1766538,2.81345555 L43.6150767,30.856255 C45.7376727,34.2696104 44.2000489,37.0366816 40.1784402,37.0366816 L4.48826728,37.0366816 C0.467669369,37.0366816 -1.07461322,34.2754768 1.05163084,30.856255 L18.4900537,2.81345555 Z M20.1000184,11.7766506 L20.1000184,25.2600311 C20.1000184,26.1906736 20.8499421,26.9357685 21.7750199,26.9357685 C22.7065472,26.9357685 23.4500215,26.1855153 23.4500215,25.2600311 L23.4500215,11.7766506 C23.4500215,10.846008 22.7000977,10.1009132 21.7750199,10.1009132 C20.8434926,10.1009132 20.1000184,10.8511664 20.1000184,11.7766506 Z M21.7750199,32.5473869 C22.7000977,32.5473869 23.4500215,31.7936647 23.4500215,30.8639014 C23.4500215,29.934138 22.7000977,29.1804158 21.7750199,29.1804158 C20.8499421,29.1804158 20.1000184,29.934138 20.1000184,30.8639014 C20.1000184,31.7936647 20.8499421,32.5473869 21.7750199,32.5473869 Z" id="Triangle-1"></path>
                </g>
            </g>
        </g>
    </g>
</svg>