<?xml version="1.0" encoding="UTF-8"?>
<svg width="61px" height="76px" viewBox="0 0 61 76" version="1.1" xmlns="http://www.w3.org/2000/svg" xmlns:xlink="http://www.w3.org/1999/xlink">
    <!-- Generator: Sketch 49.3 (51167) - http://www.bohemiancoding.com/sketch -->
    <title>realtime</title>
    <desc>Created with Sketch.</desc>
    <defs></defs>
    <g id="Page-1" stroke="none" stroke-width="1" fill="none" fill-rule="evenodd">
        <g id="Desktop-HD-Copy-4" transform="translate(-1184.000000, -1957.000000)" fill-rule="nonzero">
            <g id="Group-14" transform="translate(83.000000, 1913.000000)">
                <g id="Group-13" transform="translate(989.000000, 2.000000)">
                    <g id="realtime" transform="translate(112.000000, 42.000000)">
                        <path d="M18.0391667,54.315 C6.26916085,48.5309558 0.0401792668,35.3962478 3.00929682,22.6223468 C5.97841436,9.84844592 17.3618227,0.807495599 30.47625,0.807495599 C43.5906773,0.807495599 54.9740856,9.84844592 57.9432032,22.6223468 C60.9123207,35.3962478 54.6833392,48.5309558 42.9133333,54.315" id="Shape" fill="#FFC670"></path>
                        <path d="M21.285,49.4383333 C12.5790701,45.1632939 7.970067,35.4502027 10.164492,26.0027863 C12.358917,16.5553699 20.7773234,9.86825658 30.47625,9.86825658 C40.1751766,9.86825658 48.593583,16.5553699 50.788008,26.0027863 C52.982433,35.4502027 48.3734299,45.1632939 39.6675,49.4383333 C39.4455717,49.5458789 39.2015897,49.6000972 38.955,49.5966667" id="Shape" fill="#FFA742"></path>
                        <path d="M22.2666667,45.2583333 C14.4780581,41.4358675 10.3536431,32.7477025 12.315707,24.2964319 C14.2777709,15.8451614 21.8081267,9.86279127 30.4841667,9.86279127 C39.1602066,9.86279127 46.6905624,15.8451614 48.6526263,24.2964319 C50.6146902,32.7477025 46.4902753,41.4358675 38.7016667,45.2583333" id="Shape" fill="#F6716F"></path>
                        <path d="M30.5,38.5766667 C22.6076887,38.5790316 15.4022923,34.0887121 11.9275,27.0025 C11.9275,27.5091667 11.8483333,28 11.8483333,28.5858333 C11.8687811,35.6721236 15.9064613,42.133639 22.2666667,45.2583333 L38.7016667,45.2583333 C45.0945295,42.124169 49.1479116,35.6264748 49.1516667,28.5066667 C49.1516667,27.9841667 49.1516667,27.4933333 49.0725,26.9233333 C45.6201422,34.0403466 38.4101515,38.5642623 30.5,38.5766667 Z" id="Shape" fill="#F0504D"></path>
                        <path d="M17.0575,73.22 C17.4099435,73.8304699 18.0626043,74.2051456 18.7675,74.2016667 L53.1258333,74.2016667 C53.6520356,74.2059276 54.1579239,73.9987774 54.5300173,73.626684 C54.9021108,73.2545906 55.109261,72.7487023 55.105,72.2225 L55.105,59.8883333 C55.1054164,57.6540653 53.317185,55.8306325 51.0833333,55.7875 C48.8221109,55.7961804 46.9911804,57.6271109 46.9825,59.8883333 L46.9825,55.1383333 C46.9825,52.8735056 45.1464944,51.0375 42.8816667,51.0375 C40.616839,51.0375 38.7808333,52.8735056 38.7808333,55.1383333 L38.7808333,29.2825 C38.7809892,28.0162272 38.1961483,26.8209017 37.1962799,26.0439141 C36.1964114,25.2669265 34.8936709,24.9954319 33.6666667,25.3083333 C31.775885,25.7981817 30.4668389,27.5195773 30.5,29.4725 L30.5,37.3891667 C30.5078615,36.2924407 30.0674709,35.2400787 29.2808333,34.4758333 C28.4475531,33.6393209 27.2920161,33.2059945 26.1141667,33.2883333 C23.9257245,33.5028349 22.2706129,35.3648354 22.3141667,37.5633333 L22.3141667,66.0633333 L19.6225,61.3133333 C18.5920414,59.4448468 16.32703,58.6422302 14.35,59.445 C13.3060513,59.9143901 12.5092277,60.8032848 12.1563282,61.8921456 C11.8034287,62.9810065 11.927355,64.168316 12.4975,65.1608333 L17.0575,73.22 Z" id="Shape" fill="#FFDEAD"></path>
                        <path d="M50.45,16.0933333 C51.3244509,16.0933333 52.0333333,15.3844509 52.0333333,14.51 L52.0333333,12.9266667 C59.7508392,23.5073169 58.6013497,38.1347389 49.3258333,47.38 C48.9270356,47.7816261 48.7727962,48.3654999 48.9212158,48.9116819 C49.0696353,49.4578639 49.4981652,49.883376 50.0453825,50.0279319 C50.5925997,50.1724879 51.175369,50.0141261 51.5741667,49.6125 C62.235094,38.9663374 63.2486118,22.0290259 53.9333333,10.1875 L56.3875,10.1875 C57.2619509,10.1875 57.9708333,9.47861752 57.9708333,8.60416667 C57.9708333,7.72971581 57.2619509,7.02083333 56.3875,7.02083333 L50.45,7.02083333 C49.5755491,7.02083333 48.8666667,7.72971581 48.8666667,8.60416667 L48.8666667,14.5416667 C48.8839113,15.4037263 49.5877679,16.0935058 50.45,16.0933333 Z" id="Shape" fill="#3D3D63"></path>
                        <path d="M12.1491667,48.4725 L12.1491667,42.535 C12.1491667,41.6605491 11.4402842,40.9516667 10.5658333,40.9516667 C9.69138248,40.9516667 8.9825,41.6605491 8.9825,42.535 L8.9825,44.1183333 C1.25168374,33.5384083 2.3947235,18.9007757 11.6741667,9.64916667 C12.2880624,9.03160736 12.2880624,8.03422597 11.6741667,7.41666667 C11.3768696,7.11692164 10.9721761,6.94831932 10.55,6.94831932 C10.1278239,6.94831932 9.72313045,7.11692164 9.42583333,7.41666667 C-1.25585912,18.0724454 -2.26978298,35.0369567 7.06666667,46.8891667 L4.62833333,46.8891667 C3.75388248,46.8891667 3.045,47.5980491 3.045,48.4725 C3.045,49.3469509 3.75388248,50.0558333 4.62833333,50.0558333 L10.5658333,50.0558333 C11.4402842,50.0558333 12.1491667,49.3469509 12.1491667,48.4725 Z" id="Shape" fill="#3D3D63"></path>
                        <path d="M51.0833333,54.125 C50.2099857,54.1214761 49.3478981,54.3220877 48.5658333,54.7108333 C48.4552236,51.6496017 45.944889,49.223178 42.8816667,49.2166667 C42.008319,49.2131428 41.1462315,49.4137544 40.3641667,49.8025 L40.3641667,46.2241667 C48.4393527,41.7582726 52.4702995,32.3948152 50.1641773,23.459792 C47.8580552,14.5247688 39.7990796,8.28171038 30.57125,8.28171038 C21.3434204,8.28171038 13.2844448,14.5247688 10.9783227,23.459792 C8.67220055,32.3948152 12.7031473,41.7582726 20.7783333,46.2241667 L20.7783333,60.2366667 C19.2366089,57.9002334 16.2482176,56.9950636 13.6691667,58.0833333 C12.2248914,58.7352531 11.122882,59.9665121 10.6344705,61.4739551 C10.146059,62.9813981 10.3166229,64.6249709 11.1041667,66 L15.68,73.9166667 C16.3195231,75.0179188 17.494043,75.698538 18.7675,75.7058333 L53.1258333,75.7058333 C55.0933478,75.7058333 56.6883333,74.1108478 56.6883333,72.1433333 L56.6883333,59.8091667 C56.6886348,56.7005465 54.191652,54.1682955 51.0833333,54.125 Z M13.4316667,28.5225 C13.4507679,20.4402828 19.1359075,13.4794342 27.0514697,11.8465001 C34.967032,10.2135661 42.9427666,14.3562564 46.1588166,21.7710809 C49.3748666,29.1859054 46.9494712,37.8399034 40.3483333,42.5033333 L40.3483333,28.6966667 C40.3483333,25.5573881 37.8034452,23.0125 34.6641667,23.0125 C31.5248881,23.0125 28.98,25.5573881 28.98,28.6966667 L28.98,31.7683333 C28.1752047,31.3624822 27.2846099,31.1561249 26.3833333,31.1666667 C23.2440548,31.1666667 20.6991667,33.7115548 20.6991667,36.8508333 L20.6991667,42.4716667 C16.1321359,39.2982488 13.4154154,34.0838026 13.4316667,28.5225 Z M53.5216667,72.2383333 C53.5216667,72.456946 53.344446,72.6341667 53.1258333,72.6341667 L18.7675,72.6341667 C18.626104,72.6359301 18.4964703,72.5556807 18.435,72.4283333 L13.8433333,64.5116667 C13.492435,63.9125244 13.4173992,63.1910262 13.6375,62.5325 C13.846066,61.8643993 14.3299638,61.317134 14.9675,61.0283333 C15.2575495,60.903349 15.5700017,60.8387037 15.8858333,60.8383333 C16.8566025,60.8622869 17.7421292,61.3984221 18.2133333,62.2475 L20.905,66.9975 C21.260487,67.6248367 21.9949366,67.9327562 22.6915227,67.7465032 C23.3881088,67.5602502 23.8708745,66.9268721 23.8658333,66.2058333 L23.8658333,36.8666667 C23.9702265,35.5492833 25.0697369,34.5334544 26.39125,34.5334544 C27.7127631,34.5334544 28.8122735,35.5492833 28.9166667,36.8666667 L28.9166667,61.725 C28.9166667,62.5994509 29.6255491,63.3083333 30.5,63.3083333 C31.3744509,63.3083333 32.0833333,62.5994509 32.0833333,61.725 L32.0833333,28.6966667 C32.0833333,27.3062898 33.2104565,26.1791667 34.6008333,26.1791667 C35.9912102,26.1791667 37.1183333,27.3062898 37.1183333,28.6966667 L37.1183333,54.9166667 C37.1183333,55.7911175 37.8272158,56.5 38.7016667,56.5 C39.5761175,56.5 40.285,55.7911175 40.285,54.9166667 C40.285,53.5262898 41.4121231,52.3991667 42.8025,52.3991667 C44.1928769,52.3991667 45.32,53.5262898 45.32,54.9166667 L45.32,59.825 C45.32,60.6994509 46.0288825,61.4083333 46.9033333,61.4083333 C47.7777842,61.4083333 48.4866667,60.6994509 48.4866667,59.825 C48.4866667,58.4346231 49.6137898,57.3075 51.0041667,57.3075 C52.3945435,57.3075 53.5216667,58.4346231 53.5216667,59.825 L53.5216667,72.2383333 Z" id="Shape" fill="#3D3D63"></path>
                    </g>
                </g>
            </g>
        </g>
    </g>
</svg>