<?xml version="1.0" encoding="UTF-8"?>
<svg width="76px" height="76px" viewBox="0 0 76 76" version="1.1" xmlns="http://www.w3.org/2000/svg" xmlns:xlink="http://www.w3.org/1999/xlink">
    <!-- Generator: Sketch 49.3 (51167) - http://www.bohemiancoding.com/sketch -->
    <title>Pie Chart</title>
    <desc>Created with Sketch.</desc>
    <defs></defs>
    <g id="Page-1" stroke="none" stroke-width="1" fill="none" fill-rule="evenodd">
        <g id="Desktop-HD-Copy-4" transform="translate(-188.000000, -1948.000000)">
            <g id="Group-14" transform="translate(83.000000, 1913.000000)">
                <g id="Group-10">
                    <g id="Group-9" transform="translate(47.000000, 28.000000)">
                        <g id="Pie-Chart" transform="translate(51.000000, 0.000000)">
                            <rect id="Rectangle-path" x="0" y="0" width="90" height="90"></rect>
                            <path d="M42.54,47.115 L29.565,75 C19.1865877,70.1629476 12.3618103,59.952935 11.8604746,48.5136527 C11.3591389,37.0743704 17.2645416,26.3064475 27.18,20.58 L42.54,47.115 Z" id="Shape" fill="#96DDFF" fill-rule="nonzero"></path>
                            <path d="M22.8,23.61 L42.54,47.115 L27.18,20.52 C25.6304617,21.4168347 24.1645766,22.4509865 22.8,23.61 Z" id="Shape" fill="#69BAF9" fill-rule="nonzero"></path>
                            <path d="M42.54,9 L42.54,47.115 L80.655,47.115 C80.655,26.0646668 63.5903332,9 42.54,9 Z" id="Shape" fill="#79DEB4" fill-rule="nonzero"></path>
                            <path d="M42.5400024,47.115 L28.215,77.835 C38.7188045,82.7572801 51.0101639,81.9670911 60.797218,75.7403489 C70.584272,69.5136067 76.5080135,58.7149418 76.5000162,47.115 L42.5400024,47.115 Z" id="Shape" fill="#EDF4FF" fill-rule="nonzero"></path>
                            <path d="M42.54,13.2296561 C36.5922743,13.2107643 30.7450439,14.7631342 25.59,17.7298523 L42.54,47.07 L42.54,13.2296561 Z" id="Shape" fill="#EDF4FF" fill-rule="nonzero"></path>
                            <path d="M42.54,47.115 L42.465,47.28 L75.225,56.055 C76.0211282,53.1212445 76.4246463,50.0948588 76.425,47.055 L42.54,47.115 Z" id="Shape" fill="#D8E3F0" fill-rule="nonzero"></path>
                            <path d="M42.54,13.23 C40.5678016,13.2339331 38.599926,13.4146563 36.66,13.77 L42.54,47.115 L42.54,13.23 Z" id="Shape" fill="#D8E3F0" fill-rule="nonzero"></path>
                            <circle id="Oval" fill="#EDF4FF" fill-rule="nonzero" cx="42.54" cy="47.115" r="10.59"></circle>
                            <path d="M44.415,36.705 C47.0934757,38.7846799 48.3310633,42.2234387 47.5921476,45.5330163 C46.8532318,48.8425938 44.2705601,51.428419 40.9618866,52.1713728 C37.6532132,52.9143265 34.2129468,51.6809359 32.13,49.005 C33.0799833,54.2856329 37.8291074,58.0214047 43.1849397,57.7010736 C48.5407721,57.3807424 52.8107615,53.1055393 53.1245569,47.7493201 C53.4383524,42.3931008 49.6967882,37.6485389 44.415,36.705 Z" id="Shape" fill="#D8E3F0" fill-rule="nonzero"></path>
                            <rect id="Rectangle-path" fill="#FFEBCC" fill-rule="nonzero" x="9.345" y="47.115" width="32.49" height="22.725"></rect>
                            <path d="M27.195,64.5 C22.065,66.405 15,66.21 9.345,65.58 L9.345,69.78 L41.835,69.78 L41.835,47.115 L38.745,47.115 C38.745,47.115 37.125,60.87 27.195,64.5 Z" id="Shape" fill="#FFDEAD" fill-rule="nonzero"></path>
                            <path d="M42.54,7.5 C41.7115729,7.5 41.04,8.17157288 41.04,9 L41.04,11.79 C35.3376791,12.0213961 29.7774885,13.6379701 24.84,16.5 C24.1312389,16.9170168 23.8903768,17.8269403 24.3,18.54 L25.155,20.04 C16.3936326,25.6832853 10.8922013,35.2060674 10.38,45.615 L9.345,45.615 C8.51657288,45.615 7.845,46.2865729 7.845,47.115 L7.845,69.84 C7.845,70.6684271 8.51657288,71.34 9.345,71.34 L21.345,71.34 C23.2571995,73.0069288 25.3562128,74.4465399 27.6,75.63 L26.865,77.13 C26.5130752,77.8797338 26.8353894,78.7728128 27.585,79.125 C38.2931657,84.0978534 50.7752844,83.407446 60.8696929,77.2839665 C70.9641014,71.160487 77.34315,60.4093154 77.88,48.615 L80.655,48.615 C81.4834271,48.615 82.155,47.9434271 82.155,47.115 C82.1302011,25.2465199 64.4084801,7.52479891 42.54,7.5 Z M41.835,45.615 L33.585,45.615 C34.3364008,40.9420718 38.5477981,37.627667 43.2664272,37.9956361 C47.9850562,38.3636053 51.6317375,42.2908005 51.6496493,47.0237215 C51.667561,51.7566424 48.0507088,55.7113265 43.335,56.115 L43.335,47.115 C43.335,46.2865729 42.6634271,45.615 41.835,45.615 Z M41.04,14.775 L41.04,35.13 C39.9343121,35.2584201 38.8530734,35.5464135 37.83,35.985 L27.66,18.36 C31.8066407,16.2072784 36.3725383,14.9839045 41.04,14.775 Z M26.655,22.62 L35.25,37.5 C32.6493556,39.4564507 30.9548635,42.3852694 30.555,45.615 L13.38,45.615 C13.8779487,36.2695877 18.8109993,27.7245408 26.655,22.62 Z M10.845,48.615 L40.335,48.615 L40.335,68.34 L10.845,68.34 L10.845,48.615 Z M26.22,71.34 L29.58,71.34 L28.86,72.84 C27.9545602,72.3861629 27.0733671,71.885485 26.22,71.34 Z M42.54,79.5 C38.3161659,79.5122986 34.1313551,78.6916475 30.225,77.085 L32.895,71.34 L41.895,71.34 C42.7234271,71.34 43.395,70.6684271 43.395,69.84 L43.395,59.16 C49.1527964,58.7789044 53.8387125,54.3819322 54.585,48.66 L74.88,48.66 C74.0406011,65.9154522 59.8158455,79.4804325 42.54,79.5 Z M76.5,45.615 L54.525,45.615 C53.8247991,40.1321276 49.5078724,35.8152009 44.025,35.115 L44.025,10.5 C63.073768,11.3022263 78.3309126,26.565891 79.125,45.615 L76.5,45.615 Z" id="Shape" fill="#3D3D63" fill-rule="nonzero"></path>
                            <path d="M15.21,56.88 L24.51,56.88 C25.3384271,56.88 26.01,56.2084271 26.01,55.38 C26.01,54.5515729 25.3384271,53.88 24.51,53.88 L15.21,53.88 C14.3815729,53.88 13.71,54.5515729 13.71,55.38 C13.71,56.2084271 14.3815729,56.88 15.21,56.88 Z" id="Shape" fill="#3D3D63" fill-rule="nonzero"></path>
                            <path d="M31.935,60.075 L15.21,60.075 C14.3815729,60.075 13.71,60.7465729 13.71,61.575 C13.71,62.4034271 14.3815729,63.075 15.21,63.075 L31.935,63.075 C32.7634271,63.075 33.435,62.4034271 33.435,61.575 C33.435,60.7465729 32.7634271,60.075 31.935,60.075 Z" id="Shape" fill="#3D3D63" fill-rule="nonzero"></path>
                        </g>
                    </g>
                </g>
            </g>
        </g>
    </g>
</svg>