<?xml version="1.0" encoding="UTF-8"?>
<svg width="82px" height="73px" viewBox="0 0 82 73" version="1.1" xmlns="http://www.w3.org/2000/svg" xmlns:xlink="http://www.w3.org/1999/xlink">
    <!-- Generator: Sketch 49.3 (51167) - http://www.bohemiancoding.com/sketch -->
    <title>Share</title>
    <desc>Created with Sketch.</desc>
    <defs></defs>
    <g id="Page-1" stroke="none" stroke-width="1" fill="none" fill-rule="evenodd">
        <g id="Desktop-HD-Copy-4" transform="translate(-514.000000, -1952.000000)">
            <g id="Group-14" transform="translate(83.000000, 1913.000000)">
                <g id="Group-11" transform="translate(328.000000, 0.000000)">
                    <g id="Share" transform="translate(96.000000, 28.000000)">
                        <rect id="Rectangle-path" x="0" y="0" width="95" height="95"></rect>
                        <circle id="Oval" fill="#EDF4FF" fill-rule="nonzero" cx="46.6291667" cy="53.01" r="28.595"></circle>
                        <path d="M74.4166667,46.1383333 C71.8818994,35.6580663 63.6496583,27.5055894 53.145209,25.0729801 C42.6407597,22.6403708 31.662852,26.3441816 24.7791667,34.6433333 C28.1021004,31.8273539 32.0306159,29.8170378 36.2583333,28.7691667 C48.3029352,25.6771338 60.9618406,30.7512663 67.5361725,41.3064195 C74.1105044,51.8615728 73.0823671,65.4607507 64.9958333,74.9075 C73.3742433,67.9049686 77.0302466,56.7403331 74.4166667,46.1383333 Z" id="Shape" fill="#FCFEFF" fill-rule="nonzero"></path>
                        <path d="M70.1416667,69.3183333 C63.6158671,78.7498336 52.0885662,83.3729004 40.8542928,81.0641434 C29.6200195,78.7553863 20.8501326,69.9610416 18.5726715,58.720382 C16.2952103,47.4797225 20.9503622,35.9653413 30.4,29.4658333 C22.5426012,40.8218455 23.9177898,56.1696256 33.6688575,65.9478876 C43.4199253,75.7261495 58.763816,77.1440757 70.1416667,69.3183333 Z" id="Shape" fill="#D8E3F0" fill-rule="nonzero"></path>
                        <circle id="Oval" fill="#D8E3F0" fill-rule="nonzero" cx="30.8591667" cy="61.8133333" r="5.25666667"></circle>
                        <circle id="Oval" fill="#D8E3F0" fill-rule="nonzero" cx="57.4908333" cy="43.0191667" r="4.56"></circle>
                        <circle id="Oval" fill="#D8E3F0" fill-rule="nonzero" cx="63.365" cy="51.3633333" r="2.39083333"></circle>
                        <circle id="Oval" fill="#D8E3F0" fill-rule="nonzero" cx="32.8066667" cy="36.955" r="3.29333333"></circle>
                        <circle id="Oval" fill="#69BAF9" fill-rule="nonzero" cx="23.0058333" cy="36.9233333" r="7.85333333"></circle>
                        <path d="M26.9166667,43.6841667 C28.617082,40.6007966 28.0766278,36.7649283 25.5904597,34.2714264 C23.1042917,31.7779245 19.2700319,31.2261741 16.1816667,32.9175 C17.2423568,31.092291 19.0049819,29.7817678 21.0583333,29.2916667 C24.7742521,28.5635993 28.4854634,30.5688224 29.9130225,34.0759878 C31.3405816,37.5831533 30.0847375,41.61017 26.9166667,43.6841667 Z" id="Shape" fill="#96DDFF" fill-rule="nonzero"></path>
                        <circle id="Oval" fill="#D8E3F0" fill-rule="nonzero" cx="53.96" cy="75.0025" r="2.24833333"></circle>
                        <path d="M86.3866667,22.0241667 L74.4166667,13.6641667 C73.9277482,13.2966888 73.2709015,13.2436697 72.7293729,13.5279722 C72.1878443,13.8122747 71.8584895,14.3830497 71.8833333,14.9941667 L71.8833333,19.0791667 C61.708228,19.0832983 52.7220007,25.7138502 49.7166667,35.435 C56.1793619,30.8217248 63.9436033,28.3870805 71.8833333,28.4841667 L71.8833333,31.6508333 C71.8584895,32.2619503 72.1878443,32.8327253 72.7293729,33.1170278 C73.2709015,33.4013303 73.9277482,33.3483112 74.4166667,32.9808333 L86.4183333,24.6208333 C86.8390501,24.3195431 87.0859892,23.8316764 87.0796791,23.3142417 C87.0733689,22.7968071 86.8146058,22.3151074 86.3866667,22.0241667 Z" id="Shape" fill="#FFC670" fill-rule="nonzero"></path>
                        <rect id="Rectangle-path" x="0" y="0" width="95" height="95"></rect>
                        <path d="M38.9025,69.16 C38.19,69.16 37.4933333,69.2866667 36.8125,69.3341667 C35.9380491,69.3604002 35.2504331,70.0905491 35.2766667,70.965 C35.3029002,71.8394509 36.0330491,72.5270669 36.9075,72.5008333 L37.0183333,72.5008333 L39.2033333,72.3108333 C40.0777842,72.2277605 40.7193228,71.4515342 40.63625,70.5770833 C40.5531772,69.7026325 39.7769509,69.0610938 38.9025,69.1441667 L38.9025,69.16 Z" id="Shape" fill="#3D3D63" fill-rule="nonzero"></path>
                        <path d="M10.165,38.5066667 C11.0394509,38.5066667 11.7483333,37.7977842 11.7483333,36.9233333 C11.7460621,32.60784 14.2042302,28.6686255 18.0816667,26.7741667 C18.6045437,26.5404542 18.9604466,26.042587 19.0123742,25.4722139 C19.0643018,24.9018408 18.8041581,24.3478879 18.3320828,24.0235935 C17.8600075,23.6992991 17.2496012,23.6552236 16.7358333,23.9083333 C11.727991,26.3124455 8.53576482,31.3683413 8.51833333,36.9233333 C8.51798828,37.3544665 8.69346885,37.7670973 9.00424403,38.0659195 C9.3150192,38.3647418 9.7342117,38.5239121 10.165,38.5066667 Z" id="Shape" fill="#3D3D63" fill-rule="nonzero"></path>
                        <path d="M12.4291667,48.355 C12.4030641,47.1110532 11.3780966,46.1212414 10.1339964,46.1385525 C8.88989618,46.1558637 7.89286584,47.1738108 7.90138471,48.4180022 C7.90990358,49.6621937 8.92077938,50.6663928 10.165,50.6666667 C10.7751742,50.6712064 11.3609874,50.427545 11.7879557,49.9916193 C12.2149241,49.5556936 12.446372,48.9649485 12.4291667,48.355 Z" id="Shape" fill="#3D3D63" fill-rule="nonzero"></path>
                        <circle id="Oval" fill="#3D3D63" fill-rule="nonzero" cx="26.41" cy="22.3408333" r="2.24833333"></circle>
                        <path d="M87.2891667,20.7258333 L75.2875,12.3658333 C74.3145428,11.6637046 73.0283247,11.5717707 71.9653976,12.1283823 C70.9024706,12.684994 70.2454183,13.7945395 70.2683333,14.9941667 L70.2683333,17.5591667 C66.794408,17.7761522 63.4057274,18.7258461 60.325,20.3458333 C55.1620636,18.170622 49.556113,17.2534819 43.9691667,17.67 C43.0947158,17.7355838 42.4389995,18.4976325 42.5045834,19.3720833 C42.5701672,20.2465342 43.3322158,20.9022505 44.2066667,20.8366667 C48.523457,20.5131805 52.8614797,21.0513967 56.9683333,22.42 C56.3067037,22.9128658 55.6724296,23.4414276 55.0683333,24.0033333 C52.3303079,23.2136433 49.4946298,22.8138767 46.645,22.8158333 C39.9829629,22.8196002 33.5130884,25.0486698 28.2625,29.1491667 C23.9842947,26.884375 18.6873208,28.1985719 15.9639068,32.2004887 C13.2404929,36.2024055 13.9616643,41.6121152 17.6383333,44.7608333 C17.3716228,45.6623615 17.1496847,46.5765349 16.9733333,47.5 C11.0833333,52.345 8.36,57.57 9.5,62.2091667 C10.64,66.8483333 15.5483333,70.2683333 23.0216667,71.7091667 C30.3226618,81.0218993 42.4050983,85.189358 53.8948502,82.3579061 C65.3846022,79.5264541 74.147144,70.2221087 76.285,58.5833333 C82.1591667,53.8333333 84.9458333,48.5608333 83.7741667,43.8425 C83.2565486,41.9028122 82.150188,40.1713578 80.6075,38.8866667 C79.9663394,38.5456815 79.1754114,38.684573 78.6887865,39.2236036 C78.2021617,39.7626342 78.1446079,40.5635995 78.5491667,41.1666667 C79.6140849,42.0558132 80.3819637,43.2490637 80.75,44.5866667 C81.4308333,47.3416667 79.9583333,50.5875 76.8233333,53.8016667 C76.8233333,53.5483333 76.8233333,53.2791667 76.8233333,53.01 C76.8004493,44.3773568 73.0970416,36.1642006 66.6425,30.4316667 C67.8458333,30.2733333 69.0491667,30.1466667 70.2683333,30.0991667 L70.2683333,31.6825 C70.2515315,32.8792827 70.9109308,33.9832772 71.9726218,34.5358923 C73.0343127,35.0885075 74.3168588,34.9953048 75.2875,34.295 L87.2891667,25.935 C88.1577456,25.3456619 88.6778586,24.3642255 88.6778586,23.3145833 C88.6778586,22.2649411 88.1577456,21.2835048 87.2891667,20.6941667 L87.2891667,20.7258333 Z M23.0058333,30.6375 C26.5036367,30.6375 29.3391667,33.4730299 29.3391667,36.9708333 C29.3391667,40.4686367 26.5036367,43.3041667 23.0058333,43.3041667 C19.5080299,43.3041667 16.6725,40.4686367 16.6725,36.9708333 C16.6725,33.4730299 19.5080299,30.6375 23.0058333,30.6375 Z M12.5716667,61.4491667 C11.9066667,58.7416667 13.3316667,55.4958333 16.4825,52.2341667 C16.4825,52.5033333 16.4825,52.7566667 16.4825,53.01 C16.4874157,58.1994369 17.8346673,63.2993569 20.3933333,67.8141667 C16.055,66.5 13.2683333,64.2358333 12.5716667,61.4491667 Z M73.6566667,53.01 C73.6449251,54.2873785 73.544405,55.5623958 73.3558333,56.8258333 C70.8705984,58.6522091 68.220197,60.2424499 65.4391667,61.5758333 C63.8122164,59.5701184 61.0979185,58.8073104 58.6643236,59.671877 C56.2307288,60.5364435 54.6060558,62.8407281 54.6091667,65.4233333 C54.6091667,65.5658333 54.6091667,65.7083333 54.6091667,65.8666667 C53.1208333,66.3258333 51.6008333,66.7533333 50.0808333,67.1333333 C48.5608333,67.5133333 47.1516667,67.8141667 45.695,68.0991667 C44.8205491,68.1822395 44.1790105,68.9584658 44.2620833,69.8329167 C44.3451562,70.7073675 45.1213825,71.3489062 45.9958333,71.2658333 C46.0901887,71.2814843 46.1864779,71.2814843 46.2808333,71.2658333 C47.8641667,70.9808333 49.3366667,70.6483333 50.8408333,70.2683333 C52.345,69.8883333 54.0075,69.4133333 55.5908333,68.9225 C57.1227335,71.0665505 59.85636,71.9873456 62.3732802,71.2071003 C64.8902005,70.426855 66.6236482,68.1212669 66.6741667,65.4866667 C66.6668762,65.1680344 66.635116,64.8504331 66.5791667,64.5366667 C68.4710183,63.5801781 70.3103161,62.5231104 72.0891667,61.37 C69.2132308,70.2023024 61.9866042,76.9276439 52.9706814,79.1623048 C43.9547586,81.3969656 34.4237582,78.8251217 27.7558333,72.3583333 C29.07,72.4691667 30.4316667,72.5483333 31.8408333,72.5641667 C32.7152842,72.5641667 33.4241667,71.8552842 33.4241667,70.9808333 C33.4241667,70.1063825 32.7152842,69.3975 31.8408333,69.3975 C29.4276471,69.3802403 27.0192851,69.1791023 24.6366667,68.7958333 C21.2743533,64.2002472 19.4560838,58.6567427 19.4433333,52.9625 C19.5227332,50.61135 19.9059121,48.2803451 20.5833333,46.0275 C21.3819327,46.2519856 22.2079583,46.3638987 23.0375,46.36 C26.5822829,46.3151822 29.8072124,44.3003797 31.4019293,41.1342508 C32.9966462,37.9681218 32.6958137,34.1774624 30.6216667,31.3025 C36.9251678,26.6228792 44.9575799,24.9284971 52.6141667,26.6633333 C50.6326189,29.1296583 49.1387957,31.9507273 48.2125,34.9758333 C48.0676837,35.453696 48.1567681,35.9718716 48.4528603,36.3739337 C48.7489524,36.7759957 49.217355,37.0148285 49.7166667,37.0183333 C50.057458,37.0229158 50.3906316,36.9174108 50.6666667,36.7175 C54.2409756,34.1032542 58.298929,32.2249708 62.605,31.1916667 C69.541047,36.2998124 73.6419983,44.39596 73.6566667,53.01 Z M63.6816667,65.5025 C63.6816494,66.6950784 62.962398,67.7699204 61.8599818,68.2248072 C60.7575656,68.6796939 59.489636,68.4248166 58.6486318,67.5792663 C57.8076275,66.7337161 57.559589,65.4644309 58.020412,64.364483 C58.4812351,63.264535 59.5599388,62.5510883 60.7525,62.5575 C61.5321144,62.5574886 62.279569,62.8682689 62.8293517,63.4210234 C63.3791344,63.9737779 63.6858808,64.722897 63.6816667,65.5025 Z M85.5,23.37 L73.435,31.6666667 L73.435,28.5 C73.435,27.6255491 72.7261175,26.9166667 71.8516667,26.9166667 C65.3580289,26.8757413 58.9517136,28.4134744 53.1841667,31.3975 C57.0358432,24.7390882 64.1595738,20.6545743 71.8516667,20.6941667 C72.7261175,20.6941667 73.435,19.9852842 73.435,19.1108333 L73.435,14.9783333 L85.5,23.3225 L85.5,23.37 Z" id="Shape" fill="#3D3D63" fill-rule="nonzero"></path>
                    </g>
                </g>
            </g>
        </g>
    </g>
</svg>