<?xml version="1.0" encoding="UTF-8" standalone="no"?>
<svg width="60px" height="60px" viewBox="0 0 60 60" version="1.1" xmlns="http://www.w3.org/2000/svg" xmlns:xlink="http://www.w3.org/1999/xlink">
    <!-- Generator: Sketch 50.2 (55047) - http://www.bohemiancoding.com/sketch -->
    <title>if_time-passing_3339052</title>
    <desc>Created with Sketch.</desc>
    <defs></defs>
    <g id="Page-1" stroke="none" stroke-width="1" fill="none" fill-rule="evenodd">
        <g id="if_time-passing_3339052" fill="#008080" fill-rule="nonzero">
            <path d="M1.005,31 C1.557,31 2.005,30.553 2.005,30 C2.005,14.561 14.566,2 30.005,2 C36.332,2 42.383,4.115 47.307,8 L42.005,8 C41.453,8 41.005,8.447 41.005,9 C41.005,9.553 41.453,10 42.005,10 L49.92,10 C49.986,10.006 50.048,10.007 50.113,10 L51.004,10 L51.004,1 C51.004,0.447 50.556,0 50.004,0 C49.452,0 49.004,0.447 49.004,1 L49.004,6.81 C43.648,2.408 36.986,0 30.005,0 C13.463,0 0.005,13.458 0.005,30 C0.005,30.553 0.453,31 1.005,31 Z" id="Shape"></path>
            <path d="M30.005,8 C17.874,8 8.005,17.869 8.005,30 C8.005,42.131 17.874,52 30.005,52 C42.136,52 52.005,42.131 52.005,30 C52.005,17.869 42.136,8 30.005,8 Z M30.005,50 C18.977,50 10.005,41.028 10.005,30 C10.005,18.972 18.977,10 30.005,10 C41.033,10 50.005,18.972 50.005,30 C50.005,41.028 41.033,50 30.005,50 Z" id="Shape"></path>
            <path d="M30.005,15 C30.557,15 31.005,14.553 31.005,14 L31.005,12 C31.005,11.447 30.557,11 30.005,11 C29.453,11 29.005,11.447 29.005,12 L29.005,14 C29.005,14.553 29.453,15 30.005,15 Z" id="Shape"></path>
            <path d="M30.005,45 C29.453,45 29.005,45.447 29.005,46 L29.005,48 C29.005,48.553 29.453,49 30.005,49 C30.557,49 31.005,48.553 31.005,48 L31.005,46 C31.005,45.447 30.557,45 30.005,45 Z" id="Shape"></path>
            <path d="M46.005,31 L48.005,31 C48.557,31 49.005,30.553 49.005,30 C49.005,29.447 48.557,29 48.005,29 L46.005,29 C45.453,29 45.005,29.447 45.005,30 C45.005,30.553 45.453,31 46.005,31 Z" id="Shape"></path>
            <path d="M14.005,29 L12.005,29 C11.453,29 11.005,29.447 11.005,30 C11.005,30.553 11.453,31 12.005,31 L14.005,31 C14.557,31 15.005,30.553 15.005,30 C15.005,29.447 14.557,29 14.005,29 Z" id="Shape"></path>
            <path d="M31.005,25.142 L31.005,20 C31.005,19.447 30.557,19 30.005,19 C29.453,19 29.005,19.447 29.005,20 L29.005,25.142 C27.285,25.589 26.005,27.141 26.005,29 C26.005,29.74 26.22,30.424 26.572,31.019 L18.298,39.293 C17.907,39.684 17.907,40.316 18.298,40.707 C18.493,40.902 18.749,41 19.005,41 C19.261,41 19.517,40.902 19.712,40.707 L27.986,32.433 C28.581,32.785 29.265,33 30.005,33 C32.211,33 34.005,31.206 34.005,29 C34.005,27.141 32.725,25.589 31.005,25.142 Z M30.005,31 C28.902,31 28.005,30.103 28.005,29 C28.005,27.897 28.902,27 30.005,27 C31.108,27 32.005,27.897 32.005,29 C32.005,30.103 31.108,31 30.005,31 Z" id="Shape"></path>
            <path d="M11.894,52.66 C11.564,53.099 11.654,53.729 12.104,54.059 C12.274,54.189 12.484,54.249 12.694,54.249 C13.004,54.249 13.304,54.119 13.504,53.849 C13.824,53.41 13.734,52.78 13.294,52.45 C12.854,52.12 12.225,52.21 11.894,52.66 Z" id="Shape"></path>
            <path d="M7.235,46.27 C6.915,45.831 6.285,45.72 5.835,46.041 C5.385,46.371 5.285,46.991 5.605,47.44 C5.805,47.711 6.105,47.86 6.425,47.86 C6.625,47.86 6.825,47.8 7.005,47.671 C7.454,47.35 7.555,46.72 7.235,46.27 Z" id="Shape"></path>
            <path d="M7.624,48.45 C7.214,48.819 7.174,49.45 7.544,49.859 C7.734,50.089 8.014,50.2 8.294,50.2 C8.524,50.2 8.764,50.12 8.954,49.95 C9.364,49.58 9.404,48.95 9.034,48.54 C8.675,48.12 8.045,48.09 7.624,48.45 Z" id="Shape"></path>
            <path d="M11.065,50.6 C10.665,50.23 10.025,50.26 9.655,50.661 C9.275,51.07 9.305,51.701 9.715,52.081 C9.905,52.251 10.145,52.341 10.385,52.341 C10.655,52.341 10.925,52.231 11.125,52.021 C11.495,51.611 11.475,50.981 11.065,50.611 C11.065,50.6 11.065,50.6 11.065,50.6 Z" id="Shape"></path>
            <path d="M5.675,43.84 C5.665,43.84 5.665,43.84 5.665,43.84 C5.395,43.36 4.785,43.19 4.305,43.47 C3.825,43.741 3.655,44.35 3.935,44.83 C4.115,45.149 4.455,45.33 4.805,45.33 C4.965,45.33 5.145,45.29 5.295,45.2 C5.775,44.93 5.945,44.319 5.675,43.84 Z" id="Shape"></path>
            <path d="M58.945,32.12 C58.965,32.12 58.975,32.12 58.985,32.12 C59.525,32.12 59.965,31.689 59.985,31.16 C60.005,30.599 59.575,30.139 59.025,30.12 C58.475,30.099 58.005,30.53 57.985,31.08 C57.965,31.63 58.394,32.1 58.945,32.12 Z" id="Shape"></path>
            <path d="M1.265,33.99 C1.815,33.929 2.215,33.439 2.155,32.889 C2.095,32.339 1.605,31.939 1.055,31.999 C0.505,32.049 0.105,32.549 0.165,33.089 C0.215,33.609 0.655,33.989 1.155,33.989 C1.195,33.99 1.225,33.99 1.265,33.99 Z" id="Shape"></path>
            <path d="M1.825,36.93 C2.365,36.82 2.715,36.29 2.595,35.75 C2.485,35.21 1.955,34.859 1.415,34.979 C0.875,35.089 0.525,35.62 0.645,36.16 C0.735,36.63 1.155,36.95 1.615,36.95 C1.684,36.95 1.755,36.95 1.825,36.93 Z" id="Shape"></path>
            <path d="M4.365,41.25 C4.145,40.75 3.555,40.52 3.045,40.74 C2.545,40.96 2.315,41.55 2.535,42.059 C2.705,42.429 3.065,42.66 3.455,42.66 C3.585,42.66 3.725,42.63 3.855,42.569 C4.354,42.35 4.584,41.76 4.365,41.25 Z" id="Shape"></path>
            <path d="M3.334,38.55 C3.174,38.02 2.604,37.73 2.084,37.9 C1.554,38.07 1.264,38.63 1.434,39.161 C1.574,39.581 1.964,39.85 2.384,39.85 C2.484,39.85 2.594,39.84 2.694,39.81 C3.215,39.64 3.505,39.069 3.334,38.55 Z" id="Shape"></path>
            <path d="M29.465,57.99 C28.915,57.979 28.455,58.42 28.445,58.969 C28.435,59.53 28.875,59.979 29.425,59.99 C29.435,59.99 29.445,59.99 29.445,59.99 C29.995,59.99 30.435,59.559 30.445,59.01 C30.454,58.46 30.015,58 29.465,57.99 Z" id="Shape"></path>
            <path d="M52.135,47.14 C51.795,47.57 51.875,48.201 52.305,48.54 C52.495,48.68 52.705,48.75 52.925,48.75 C53.215,48.75 53.515,48.62 53.715,48.359 C54.055,47.929 53.975,47.299 53.535,46.96 C53.095,46.621 52.475,46.7 52.135,47.14 Z" id="Shape"></path>
            <path d="M45.834,53.08 C45.384,53.39 45.264,54.019 45.584,54.47 C45.774,54.75 46.084,54.9 46.404,54.9 C46.604,54.9 46.794,54.85 46.974,54.73 C47.424,54.42 47.544,53.791 47.224,53.34 C46.914,52.88 46.295,52.77 45.834,53.08 Z" id="Shape"></path>
            <path d="M48.135,51.319 C47.715,51.679 47.665,52.309 48.025,52.729 C48.225,52.959 48.505,53.08 48.785,53.08 C49.015,53.08 49.245,53 49.435,52.84 C49.855,52.48 49.905,51.85 49.545,51.43 C49.184,51.01 48.555,50.96 48.135,51.319 Z" id="Shape"></path>
            <path d="M55.164,44.439 C54.694,44.149 54.074,44.299 53.784,44.759 C53.494,45.229 53.634,45.849 54.104,46.139 C54.274,46.24 54.454,46.289 54.634,46.289 C54.964,46.289 55.294,46.129 55.484,45.818 C55.775,45.35 55.635,44.729 55.164,44.439 Z" id="Shape"></path>
            <path d="M50.245,49.33 C49.855,49.729 49.875,50.359 50.275,50.74 C50.465,50.929 50.715,51.019 50.965,51.019 C51.225,51.019 51.495,50.919 51.685,50.709 C52.065,50.309 52.055,49.679 51.655,49.299 C51.255,48.919 50.624,48.93 50.245,49.33 Z" id="Shape"></path>
            <path d="M58.854,33.109 C58.314,33.03 57.804,33.42 57.724,33.96 C57.644,34.51 58.024,35.01 58.574,35.09 C58.624,35.1 58.674,35.1 58.714,35.1 C59.204,35.1 59.634,34.741 59.704,34.241 C59.785,33.7 59.405,33.189 58.854,33.109 Z" id="Shape"></path>
            <path d="M58.385,36.069 C57.845,35.939 57.305,36.269 57.165,36.799 C57.035,37.339 57.365,37.879 57.895,38.019 C57.975,38.04 58.055,38.049 58.135,38.049 C58.585,38.049 58.995,37.739 59.105,37.289 C59.245,36.75 58.914,36.21 58.385,36.069 Z" id="Shape"></path>
            <path d="M15.704,54.06 C15.224,53.781 14.614,53.93 14.334,54.411 C14.044,54.881 14.204,55.501 14.674,55.781 C14.834,55.881 15.014,55.921 15.184,55.921 C15.524,55.921 15.854,55.751 16.044,55.431 C16.334,54.96 16.175,54.35 15.704,54.06 Z" id="Shape"></path>
            <path d="M57.604,38.97 C57.084,38.781 56.504,39.05 56.324,39.57 C56.134,40.091 56.394,40.661 56.914,40.85 C57.024,40.89 57.144,40.911 57.254,40.911 C57.664,40.911 58.054,40.661 58.194,40.251 C58.385,39.729 58.124,39.16 57.604,38.97 Z" id="Shape"></path>
            <path d="M56.525,41.77 C56.035,41.531 55.425,41.73 55.185,42.23 C54.945,42.73 55.155,43.331 55.645,43.57 C55.785,43.64 55.935,43.671 56.085,43.671 C56.455,43.671 56.815,43.461 56.985,43.11 C57.225,42.609 57.025,42.01 56.525,41.77 Z" id="Shape"></path>
            <path d="M26.575,57.79 C26.025,57.72 25.535,58.109 25.465,58.66 C25.395,59.21 25.785,59.71 26.335,59.769 L26.335,59.78 C26.375,59.78 26.415,59.78 26.455,59.78 C26.955,59.78 27.385,59.41 27.445,58.899 C27.515,58.35 27.124,57.859 26.575,57.79 Z" id="Shape"></path>
            <path d="M20.945,56.5 C20.425,56.319 19.855,56.59 19.675,57.12 C19.495,57.64 19.775,58.21 20.295,58.39 C20.405,58.42 20.515,58.44 20.625,58.44 C21.035,58.44 21.425,58.18 21.565,57.77 C21.745,57.24 21.465,56.67 20.945,56.5 Z" id="Shape"></path>
            <path d="M23.725,57.29 C23.185,57.17 22.655,57.5 22.525,58.04 C22.405,58.58 22.745,59.12 23.275,59.24 C23.355,59.26 23.425,59.26 23.505,59.26 C23.955,59.26 24.375,58.95 24.475,58.49 C24.604,57.95 24.265,57.41 23.725,57.29 Z" id="Shape"></path>
            <path d="M18.265,55.42 C17.755,55.18 17.165,55.399 16.935,55.899 C16.705,56.399 16.915,57 17.415,57.229 C17.555,57.29 17.695,57.319 17.835,57.319 C18.215,57.319 18.575,57.109 18.745,56.74 C18.975,56.24 18.765,55.649 18.265,55.42 Z" id="Shape"></path>
            <path d="M35.225,57.51 C34.685,57.61 34.325,58.14 34.425,58.68 C34.515,59.16 34.945,59.491 35.415,59.491 C35.475,59.491 35.535,59.491 35.595,59.48 C36.135,59.371 36.495,58.85 36.395,58.31 C36.295,57.76 35.765,57.41 35.225,57.51 Z" id="Shape"></path>
            <path d="M38.035,56.83 C37.505,56.979 37.205,57.54 37.365,58.069 C37.495,58.5 37.895,58.78 38.325,58.78 C38.415,58.78 38.515,58.769 38.615,58.74 C39.145,58.58 39.445,58.019 39.285,57.49 C39.124,56.97 38.565,56.67 38.035,56.83 Z" id="Shape"></path>
            <path d="M40.765,55.85 C40.255,56.06 40.015,56.65 40.225,57.161 C40.385,57.541 40.755,57.77 41.145,57.77 C41.275,57.77 41.405,57.75 41.535,57.701 C42.045,57.48 42.285,56.9 42.075,56.39 C41.854,55.88 41.275,55.64 40.765,55.85 Z" id="Shape"></path>
            <path d="M32.354,57.899 C31.804,57.95 31.394,58.429 31.444,58.979 C31.484,59.5 31.924,59.899 32.444,59.899 C32.464,59.899 32.494,59.899 32.524,59.899 L32.524,59.889 C33.074,59.849 33.484,59.369 33.434,58.819 C33.394,58.27 32.905,57.859 32.354,57.899 Z" id="Shape"></path>
            <path d="M43.374,54.6 C42.884,54.86 42.704,55.47 42.974,55.951 C43.154,56.291 43.494,56.48 43.854,56.48 C44.014,56.48 44.174,56.44 44.324,56.35 C44.814,56.09 44.994,55.48 44.724,55 C44.465,54.51 43.854,54.33 43.374,54.6 Z" id="Shape"></path>
        </g>
    </g>
</svg>