<?xml version="1.0" encoding="UTF-8"?>
<svg width="37px" height="37px" viewBox="0 0 37 37" version="1.1" xmlns="http://www.w3.org/2000/svg" xmlns:xlink="http://www.w3.org/1999/xlink">
    <!-- Generator: Sketch 49.3 (51167) - http://www.bohemiancoding.com/sketch -->
    <title>settings</title>
    <desc>Created with Sketch.</desc>
    <defs></defs>
    <g id="Page-1" stroke="none" stroke-width="1" fill="none" fill-rule="evenodd" stroke-linecap="round" stroke-linejoin="round">
        <g id="Desktop-HD-Copy-4" transform="translate(-668.000000, -1242.000000)" stroke="#00A2A2" stroke-width="3">
            <g id="Group-7" transform="translate(31.000000, 982.000000)">
                <g id="Group-6">
                    <g id="settings" transform="translate(639.000000, 262.000000)">
                        <circle id="Oval" cx="16.5" cy="16.5" r="4.5"></circle>
                        <path d="M27.6,21 C27.1914803,21.9256351 27.3875012,23.0067199 28.095,23.73 L28.185,23.82 C28.7483311,24.3827048 29.06486,25.1462723 29.06486,25.9425 C29.06486,26.7387277 28.7483311,27.5022952 28.185,28.065 C27.6222952,28.6283311 26.8587277,28.94486 26.0625,28.94486 C25.2662723,28.94486 24.5027048,28.6283311 23.94,28.065 L23.85,27.975 C23.1267199,27.2675012 22.0456351,27.0714803 21.12,27.48 C20.2132941,27.8686024 19.6239344,28.7585356 19.62,29.745 L19.62,30 C19.62,31.6568542 18.2768542,33 16.62,33 C14.9631458,33 13.62,31.6568542 13.62,30 L13.62,29.865 C13.5962349,28.8490062 12.9538077,27.9507978 12,27.6 C11.0743649,27.1914803 9.9932801,27.3875012 9.27,28.095 L9.18,28.185 C8.61729523,28.7483311 7.85372774,29.06486 7.0575,29.06486 C6.26127226,29.06486 5.49770477,28.7483311 4.935,28.185 C4.37166887,27.6222952 4.05514003,26.8587277 4.05514003,26.0625 C4.05514003,25.2662723 4.37166887,24.5027048 4.935,23.94 L5.025,23.85 C5.73249882,23.1267199 5.92851969,22.0456351 5.52,21.12 C5.13139757,20.2132941 4.24146438,19.6239344 3.255,19.62 L3,19.62 C1.34314575,19.62 3.33066907e-16,18.2768542 0,16.62 C-1.66533454e-16,14.9631458 1.34314575,13.62 3,13.62 L3.135,13.62 C4.15099377,13.5962349 5.04920224,12.9538077 5.4,12 C5.80851969,11.0743649 5.61249882,9.9932801 4.905,9.27 L4.815,9.18 C4.25166887,8.61729523 3.93514003,7.85372774 3.93514003,7.0575 C3.93514003,6.26127226 4.25166887,5.49770477 4.815,4.935 C5.37770477,4.37166887 6.14127226,4.05514003 6.9375,4.05514003 C7.73372774,4.05514003 8.49729523,4.37166887 9.06,4.935 L9.15,5.025 C9.8732801,5.73249882 10.9543649,5.92851969 11.88,5.52 L12,5.52 C12.9067059,5.13139757 13.4960656,4.24146438 13.5,3.255 L13.5,3 C13.5,1.34314575 14.8431458,3.33066907e-16 16.5,0 C18.1568542,0 19.5,1.34314575 19.5,3 L19.5,3.135 C19.5039344,4.12146438 20.0932941,5.01139757 21,5.4 C21.9256351,5.80851969 23.0067199,5.61249882 23.73,4.905 L23.82,4.815 C24.3827048,4.25166887 25.1462723,3.93514003 25.9425,3.93514003 C26.7387277,3.93514003 27.5022952,4.25166887 28.065,4.815 C28.6283311,5.37770477 28.94486,6.14127226 28.94486,6.9375 C28.94486,7.73372774 28.6283311,8.49729523 28.065,9.06 L27.975,9.15 C27.2675012,9.8732801 27.0714803,10.9543649 27.48,11.88 L27.48,12 C27.8686024,12.9067059 28.7585356,13.4960656 29.745,13.5 L30,13.5 C31.6568542,13.5 33,14.8431458 33,16.5 C33,18.1568542 31.6568542,19.5 30,19.5 L29.865,19.5 C28.8785356,19.5039344 27.9886024,20.0932941 27.6,21 Z" id="Shape"></path>
                    </g>
                </g>
            </g>
        </g>
    </g>
</svg>