<?xml version="1.0" encoding="UTF-8" standalone="no"?>
<svg width="231px" height="231px" viewBox="0 0 231 231" version="1.1" xmlns="http://www.w3.org/2000/svg" xmlns:xlink="http://www.w3.org/1999/xlink">
    <!-- Generator: Sketch 50.2 (55047) - http://www.bohemiancoding.com/sketch -->
    <title>Group 19</title>
    <desc>Created with Sketch.</desc>
    <defs></defs>
    <g id="Page-1" stroke="none" stroke-width="1" fill="none" fill-rule="evenodd">
        <g id="Group-19" fill-rule="nonzero">
            <g id="if_14_3319630">
                <circle id="Oval" fill="#FFFFFF" cx="115.5" cy="115.5" r="115.5"></circle>
                <g id="Group" transform="translate(36.000000, 28.500000)">
                    <path d="M47.64375,100.701562 C45.1171875,106.476562 43.3125,111.890625 41.86875,117.304688 L9.384375,117.304688 L9.384375,100.701562 L47.64375,100.701562 Z" id="Shape" fill="#FDEF34"></path>
                    <path d="M40.7859375,128.854688 C40.7859375,130.659375 40.7859375,132.464063 41.146875,134.26875 L1.44375,134.26875 L1.44375,117.665625 L42.2296875,117.665625 C41.146875,121.275 40.7859375,125.245313 40.7859375,128.854688 Z" id="Shape" fill="#F7A90B"></path>
                    <path d="M46.2,150.871875 L9.7453125,150.871875 L9.7453125,134.26875 L40.7859375,134.26875 C41.5078125,140.765625 43.3125,146.179688 46.2,150.871875 Z" id="Shape" fill="#FDEF34"></path>
                    <path d="M66.0515625,167.475 L1.0828125,167.475 L1.0828125,150.871875 L45.8390625,150.871875 C50.53125,158.451562 57.3890625,163.865625 66.0515625,167.475 Z" id="Shape" fill="#F7A90B"></path>
                    <path d="M115.860938,53.0578125 L82.29375,53.0578125 C79.0453125,53.0578125 76.8796875,50.53125 76.8796875,47.64375 C76.8796875,44.3953125 79.40625,42.2296875 82.29375,42.2296875 L115.860937,42.2296875 C119.109375,42.2296875 121.275,44.75625 121.275,47.64375 C121.275,50.53125 119.109375,53.0578125 115.860938,53.0578125 Z" id="Shape" fill="#FFFFFF"></path>
                    <path d="M135.351562,1.8046875 L107.198438,41.86875 L90.95625,41.86875 L63.1640625,1.8046875 L80.128125,7.940625 C88.790625,11.1890625 98.5359375,10.10625 106.476562,5.053125 C112.973437,1.0828125 120.553125,-0.721875 127.771875,0.721875 L135.351562,1.8046875 Z" id="Shape" fill="#C64444"></path>
                    <path d="M115.5,53.0578125 L82.29375,53.0578125 C62.803125,68.578125 40.425,104.310937 40.425,128.854688 C40.425,160.978125 66.4125,173.25 98.896875,173.25 C131.020312,173.25 157.36875,160.978125 157.36875,128.854688 C157.36875,104.310937 134.990625,68.578125 115.5,53.0578125 Z" id="Shape" fill="#C64444"></path>
                    <path d="M134.26875,72.909375 C142.93125,87.346875 148.70625,102.867188 148.70625,115.5 C148.70625,147.984375 122.71875,160.25625 90.234375,160.25625 C71.1046875,160.25625 54.140625,155.925 43.3125,145.81875 C50.8921875,165.670313 72.909375,173.25 98.896875,173.25 C131.020312,173.25 157.36875,160.978125 157.36875,128.854688 C157.36875,112.251563 146.901563,90.234375 134.26875,72.909375 Z" id="Shape" fill="#231F20" opacity="0.1"></path>
                    <circle id="Oval" fill="#FFFFFF" opacity="0.1" cx="86.2640625" cy="100.701562" r="28.875"></circle>
                </g>
            </g>
            <g id="if_Indian_Rupee_symbol_1172636" transform="translate(122.000000, 116.000000)" fill="#FDEF34">
                <path d="M17.3386503,3.52970711 L23.5754601,3.52970711 L25.9680982,0.0464435146 L2.53619632,0.0464435146 L0.143558282,3.52970711 L4.21104294,3.52970711 C8.32638037,3.52970711 12.1386503,3.83933054 13.6539877,7.1832636 L2.53619632,7.1832636 L0.143558282,10.6665272 L14.1006135,10.6665272 C14.1006135,10.6820084 14.1006135,10.6820084 14.1006135,10.6820084 C14.1006135,13.1899582 11.9472393,17.0292887 4.86503067,17.0292887 L1.43558282,17.0292887 L1.43558282,20.2803347 L15.1693252,36.9380753 L21.2785276,36.9380753 L7.08220859,19.7230126 C12.9361963,19.4133891 18.4233129,16.239749 19.204908,10.6665272 L23.5754601,10.6665272 L25.9680982,7.1832636 L19.1411043,7.1832636 C18.8699387,5.83640167 18.2797546,4.53598326 17.3386503,3.52970711 Z" id="Shape"></path>
            </g>
        </g>
    </g>
</svg>